G75*
%MOIN*%
%OFA0B0*%
%FSLAX25Y25*%
%IPPOS*%
%LPD*%
%AMOC8*
5,1,8,0,0,1.08239X$1,22.5*
%
%ADD10R,0.01969X0.05906*%
%ADD11R,0.05906X0.01969*%
%ADD12R,0.04724X0.11811*%
%ADD13C,0.01772*%
%ADD14R,0.04331X0.05512*%
%ADD15R,0.05512X0.04331*%
%ADD16R,0.03937X0.03937*%
%ADD17R,0.06299X0.05118*%
%ADD18R,0.07480X0.05512*%
%ADD19R,0.05512X0.07087*%
%ADD20R,0.05906X0.02756*%
%ADD21R,0.04724X0.04724*%
%ADD22R,0.02165X0.04724*%
%ADD23R,0.05118X0.06299*%
%ADD24R,0.01772X0.03937*%
%ADD25R,0.02600X0.08000*%
%ADD26R,0.03150X0.05512*%
%ADD27R,0.03150X0.07480*%
%ADD28C,0.06000*%
%ADD29R,0.12000X0.23622*%
%ADD30R,0.04000X0.23622*%
%ADD31R,0.06000X0.23622*%
%ADD32R,1.25984X0.27559*%
%ADD33R,0.06693X0.03189*%
%ADD34R,0.04134X0.03189*%
%ADD35R,0.03000X0.05000*%
%ADD36R,0.00984X0.03445*%
%ADD37R,0.21260X0.24409*%
%ADD38R,0.03937X0.06299*%
%ADD39R,0.05118X0.05118*%
%ADD40R,0.05118X0.07874*%
%ADD41R,0.04600X0.06300*%
%ADD42R,0.02756X0.04724*%
%ADD43R,0.06300X0.04600*%
%ADD44R,0.07098X0.06299*%
%ADD45R,0.05512X0.03937*%
D10*
X0238417Y0100915D03*
X0241566Y0100915D03*
X0244716Y0100915D03*
X0247866Y0100915D03*
X0251015Y0100915D03*
X0254165Y0100915D03*
X0257314Y0100915D03*
X0260464Y0100915D03*
X0263614Y0100915D03*
X0266763Y0100915D03*
X0269913Y0100915D03*
X0269913Y0146585D03*
X0266763Y0146585D03*
X0263614Y0146585D03*
X0260464Y0146585D03*
X0257314Y0146585D03*
X0254165Y0146585D03*
X0251015Y0146585D03*
X0247866Y0146585D03*
X0244716Y0146585D03*
X0241566Y0146585D03*
X0238417Y0146585D03*
D11*
X0231330Y0139498D03*
X0231330Y0136348D03*
X0231330Y0133199D03*
X0231330Y0130049D03*
X0231330Y0126900D03*
X0231330Y0123750D03*
X0231330Y0120600D03*
X0231330Y0117451D03*
X0231330Y0114301D03*
X0231330Y0111152D03*
X0231330Y0108002D03*
X0276999Y0108002D03*
X0276999Y0111152D03*
X0276999Y0114301D03*
X0276999Y0117451D03*
X0276999Y0120600D03*
X0276999Y0123750D03*
X0276999Y0126900D03*
X0276999Y0130049D03*
X0276999Y0133199D03*
X0276999Y0136348D03*
X0276999Y0139498D03*
D12*
X0211224Y0167278D03*
X0203350Y0167278D03*
X0195476Y0167278D03*
X0187602Y0167278D03*
X0179728Y0167278D03*
X0171854Y0167278D03*
X0163980Y0167278D03*
X0156106Y0167278D03*
X0156106Y0108222D03*
X0163980Y0108222D03*
X0171854Y0108222D03*
X0179728Y0108222D03*
X0187602Y0108222D03*
X0195476Y0108222D03*
X0203350Y0108222D03*
X0211224Y0108222D03*
D13*
X0289301Y0113526D02*
X0295029Y0113526D01*
X0295029Y0118250D02*
X0289301Y0118250D01*
X0289301Y0122974D02*
X0295029Y0122974D01*
D14*
X0233102Y0158750D03*
X0225228Y0158750D03*
X0257228Y0183750D03*
X0265102Y0183750D03*
X0139102Y0256750D03*
X0131228Y0256750D03*
X0113102Y0192750D03*
X0105228Y0192750D03*
X0107228Y0181750D03*
X0115102Y0181750D03*
X0114228Y0096750D03*
X0122102Y0096750D03*
D15*
X0123165Y0105813D03*
X0123165Y0113687D03*
X0142165Y0075687D03*
X0150165Y0075687D03*
X0150165Y0067813D03*
X0142165Y0067813D03*
X0187165Y0085813D03*
X0187165Y0093687D03*
X0195165Y0093687D03*
X0195165Y0085813D03*
X0304165Y0128813D03*
X0304165Y0136687D03*
X0327165Y0136687D03*
X0327165Y0128813D03*
X0302165Y0180813D03*
X0302165Y0188687D03*
X0328165Y0214813D03*
X0328165Y0222687D03*
X0199165Y0198687D03*
X0199165Y0190813D03*
X0115165Y0249813D03*
X0107165Y0249813D03*
X0107165Y0257687D03*
X0115165Y0257687D03*
X0073165Y0178687D03*
X0073165Y0170813D03*
X0079165Y0071687D03*
X0079165Y0063813D03*
D16*
X0137291Y0046900D03*
X0137291Y0040600D03*
X0153039Y0040600D03*
X0153039Y0046900D03*
D17*
X0109165Y0052813D03*
X0101165Y0052813D03*
X0101165Y0060687D03*
X0109165Y0060687D03*
X0223165Y0095813D03*
X0223165Y0103687D03*
X0252165Y0090687D03*
X0252165Y0082813D03*
X0285165Y0100813D03*
X0285165Y0108687D03*
X0325165Y0142813D03*
X0325165Y0150687D03*
X0295165Y0202813D03*
X0295165Y0210687D03*
X0265165Y0210687D03*
X0265165Y0202813D03*
X0244165Y0179687D03*
X0244165Y0171813D03*
X0211165Y0178813D03*
X0211165Y0186687D03*
X0199165Y0210813D03*
X0199165Y0218687D03*
X0132165Y0183687D03*
X0132165Y0175813D03*
X0104165Y0167687D03*
X0095165Y0167687D03*
X0095165Y0159813D03*
X0104165Y0159813D03*
X0117165Y0218813D03*
X0117165Y0226687D03*
D18*
X0330015Y0085293D03*
X0326472Y0033325D03*
D19*
X0274897Y0039624D03*
X0274897Y0063246D03*
D20*
X0313480Y0062852D03*
X0315055Y0058522D03*
X0316629Y0054191D03*
X0315055Y0049860D03*
X0316629Y0045530D03*
X0315055Y0041199D03*
X0315055Y0036868D03*
X0315055Y0067183D03*
D21*
X0148165Y0060884D03*
X0142165Y0060884D03*
X0142165Y0052616D03*
X0148165Y0052616D03*
X0115165Y0234616D03*
X0107165Y0234616D03*
X0107165Y0242884D03*
X0115165Y0242884D03*
D22*
X0086425Y0052631D03*
X0093905Y0052631D03*
X0093905Y0062869D03*
X0090165Y0062869D03*
X0086425Y0062869D03*
X0087905Y0159631D03*
X0080425Y0159631D03*
X0080425Y0169869D03*
X0084165Y0169869D03*
X0087905Y0169869D03*
D23*
X0088228Y0178750D03*
X0096102Y0178750D03*
X0084102Y0235750D03*
X0076228Y0235750D03*
X0076228Y0243750D03*
X0084102Y0243750D03*
X0147228Y0266750D03*
X0155102Y0266750D03*
X0220228Y0231750D03*
X0228102Y0231750D03*
X0228102Y0223750D03*
X0220228Y0223750D03*
X0226228Y0210750D03*
X0234102Y0210750D03*
X0241228Y0223750D03*
X0249102Y0223750D03*
X0249102Y0231750D03*
X0241228Y0231750D03*
X0280228Y0223750D03*
X0288102Y0223750D03*
X0290228Y0235750D03*
X0298102Y0235750D03*
X0305228Y0245750D03*
X0313102Y0245750D03*
X0236102Y0165750D03*
X0228228Y0165750D03*
X0231102Y0145750D03*
X0223228Y0145750D03*
X0191102Y0178187D03*
X0183228Y0178187D03*
X0271228Y0153750D03*
X0279102Y0153750D03*
X0102102Y0071750D03*
X0094228Y0071750D03*
D24*
X0206326Y0194679D03*
X0208885Y0194679D03*
X0211444Y0194679D03*
X0214003Y0194679D03*
X0214003Y0210821D03*
X0211444Y0210821D03*
X0208885Y0210821D03*
X0206326Y0210821D03*
X0303326Y0222679D03*
X0305885Y0222679D03*
X0308444Y0222679D03*
X0311003Y0222679D03*
X0311003Y0238821D03*
X0308444Y0238821D03*
X0305885Y0238821D03*
X0303326Y0238821D03*
D25*
X0302165Y0171850D03*
X0307165Y0171850D03*
X0312165Y0171850D03*
X0317165Y0171850D03*
X0297165Y0171850D03*
X0292165Y0171850D03*
X0287165Y0171850D03*
X0287165Y0147650D03*
X0292165Y0147650D03*
X0297165Y0147650D03*
X0302165Y0147650D03*
X0307165Y0147650D03*
X0312165Y0147650D03*
X0317165Y0147650D03*
D26*
X0255066Y0210549D03*
X0243263Y0210549D03*
D27*
X0249165Y0209549D03*
D28*
X0248165Y0203234D02*
X0250165Y0203234D01*
X0250165Y0194864D01*
X0248165Y0194864D01*
X0248165Y0203234D01*
X0248165Y0200863D02*
X0250165Y0200863D01*
D29*
X0272204Y0232254D03*
X0202125Y0232254D03*
D30*
X0232047Y0232254D03*
D31*
X0252125Y0232254D03*
D32*
X0237165Y0263750D03*
D33*
X0283118Y0198045D03*
D34*
X0284397Y0202750D03*
X0284397Y0207455D03*
X0275933Y0207455D03*
X0275933Y0202750D03*
X0275933Y0198045D03*
D35*
X0236165Y0183750D03*
X0226165Y0183750D03*
X0226165Y0172750D03*
X0236165Y0172750D03*
D36*
X0136102Y0191630D03*
X0134133Y0191630D03*
X0132165Y0191630D03*
X0130196Y0191630D03*
X0128228Y0191630D03*
X0128228Y0207870D03*
X0130196Y0207870D03*
X0132165Y0207870D03*
X0134133Y0207870D03*
X0136102Y0207870D03*
D37*
X0089165Y0197907D03*
D38*
X0098141Y0226648D03*
X0080188Y0226648D03*
D39*
X0131338Y0237222D03*
X0131338Y0246278D03*
D40*
X0152992Y0241750D03*
D41*
X0153165Y0225750D03*
X0159165Y0225750D03*
X0159165Y0216750D03*
X0153165Y0216750D03*
X0153165Y0207750D03*
X0159165Y0207750D03*
X0159165Y0198750D03*
X0153165Y0198750D03*
D42*
X0116165Y0152033D03*
X0116165Y0137467D03*
D43*
X0101165Y0138750D03*
X0101165Y0144750D03*
X0101165Y0150750D03*
D44*
X0115165Y0119348D03*
X0115165Y0108152D03*
D45*
X0286834Y0132750D03*
X0295496Y0136490D03*
X0295496Y0129010D03*
X0311834Y0129010D03*
X0320496Y0132750D03*
X0311834Y0136490D03*
M02*
