G75*
%MOIN*%
%OFA0B0*%
%FSLAX25Y25*%
%IPPOS*%
%LPD*%
%AMOC8*
5,1,8,0,0,1.08239X$1,22.5*
%
%ADD10C,0.21000*%
%ADD11R,0.16000X0.06000*%
%ADD12C,0.06600*%
%ADD13C,0.13000*%
%ADD14OC8,0.06000*%
%ADD15R,1.25984X0.27559*%
%ADD16C,0.19685*%
%ADD17C,0.00800*%
%ADD18C,0.02600*%
%ADD19C,0.03175*%
%ADD20C,0.00600*%
%ADD21C,0.02978*%
%ADD22C,0.04000*%
%ADD23C,0.01000*%
%ADD24C,0.05000*%
%ADD25C,0.03569*%
%ADD26C,0.02000*%
D10*
X0076790Y0026250D03*
X0323665Y0110625D03*
X0323665Y0191875D03*
X0076790Y0276250D03*
D11*
X0328165Y0255750D03*
X0328165Y0235750D03*
D12*
X0102713Y0113671D03*
X0094913Y0113671D03*
X0094913Y0103829D03*
X0102713Y0103829D03*
D13*
X0084213Y0085050D03*
X0084213Y0132450D03*
D14*
X0185165Y0070750D03*
X0195165Y0070750D03*
X0195165Y0060750D03*
X0185165Y0060750D03*
X0185165Y0050750D03*
X0195165Y0050750D03*
X0089165Y0226750D03*
X0102165Y0274750D03*
D15*
X0237165Y0263750D03*
D16*
X0289527Y0263750D03*
X0184803Y0263750D03*
D17*
X0062415Y0260750D02*
X0062415Y0041750D01*
X0077523Y0041750D01*
X0077239Y0041868D01*
X0076282Y0042824D01*
X0076282Y0042824D01*
X0068282Y0050824D01*
X0067765Y0052074D01*
X0067765Y0053426D01*
X0068282Y0054676D01*
X0069239Y0055632D01*
X0070488Y0056150D01*
X0071841Y0056150D01*
X0073091Y0055632D01*
X0080573Y0048150D01*
X0113841Y0048150D01*
X0115091Y0047632D01*
X0136573Y0026150D01*
X0241361Y0026150D01*
X0241061Y0026450D01*
X0240212Y0026450D01*
X0238865Y0027797D01*
X0238865Y0029450D01*
X0237212Y0029450D01*
X0235865Y0030797D01*
X0235865Y0032703D01*
X0237212Y0034050D01*
X0239117Y0034050D01*
X0239717Y0033450D01*
X0242869Y0033450D01*
X0244869Y0031450D01*
X0287465Y0031450D01*
X0287465Y0064197D01*
X0286865Y0064797D01*
X0286865Y0066703D01*
X0288212Y0068050D01*
X0289865Y0068050D01*
X0289865Y0069703D01*
X0291212Y0071050D01*
X0293117Y0071050D01*
X0294465Y0069703D01*
X0294465Y0067797D01*
X0293865Y0067197D01*
X0293865Y0027258D01*
X0296765Y0030158D01*
X0296765Y0097426D01*
X0297282Y0098676D01*
X0298239Y0099632D01*
X0299488Y0100150D01*
X0299765Y0100150D01*
X0299765Y0121756D01*
X0298130Y0123391D01*
X0297765Y0124273D01*
X0297765Y0134350D01*
X0295687Y0134350D01*
X0295446Y0134450D01*
X0295212Y0134450D01*
X0295047Y0134615D01*
X0294805Y0134715D01*
X0294130Y0135391D01*
X0294030Y0135632D01*
X0293865Y0135797D01*
X0293865Y0136031D01*
X0293765Y0136273D01*
X0293765Y0137227D01*
X0293865Y0137469D01*
X0293865Y0137703D01*
X0294030Y0137868D01*
X0294130Y0138109D01*
X0294805Y0138785D01*
X0295047Y0138885D01*
X0295212Y0139050D01*
X0295446Y0139050D01*
X0295687Y0139150D01*
X0297765Y0139150D01*
X0297765Y0144946D01*
X0295869Y0143050D01*
X0280717Y0143050D01*
X0280117Y0142450D01*
X0278212Y0142450D01*
X0276865Y0143797D01*
X0276865Y0145703D01*
X0278212Y0147050D01*
X0280117Y0147050D01*
X0280717Y0146450D01*
X0294461Y0146450D01*
X0295465Y0147454D01*
X0295465Y0153197D01*
X0294865Y0153797D01*
X0294865Y0155703D01*
X0296212Y0157050D01*
X0297765Y0157050D01*
X0297765Y0157463D01*
X0294378Y0160850D01*
X0293265Y0161963D01*
X0293265Y0162597D01*
X0293117Y0162450D01*
X0291212Y0162450D01*
X0289865Y0163797D01*
X0289865Y0165703D01*
X0291212Y0167050D01*
X0293117Y0167050D01*
X0293265Y0166903D01*
X0293265Y0181397D01*
X0292865Y0181797D01*
X0292865Y0183703D01*
X0293265Y0184103D01*
X0293265Y0187537D01*
X0294378Y0188650D01*
X0294661Y0188650D01*
X0318465Y0212454D01*
X0318465Y0216197D01*
X0317865Y0216797D01*
X0317865Y0218703D01*
X0319212Y0220050D01*
X0321117Y0220050D01*
X0322465Y0218703D01*
X0322465Y0216797D01*
X0321865Y0216197D01*
X0321865Y0211046D01*
X0320869Y0210050D01*
X0317569Y0206750D01*
X0334915Y0206750D01*
X0334915Y0287500D01*
X0092165Y0287500D01*
X0092165Y0261650D01*
X0154941Y0261650D01*
X0156374Y0261056D01*
X0157471Y0259959D01*
X0162471Y0254959D01*
X0163065Y0253526D01*
X0163065Y0251974D01*
X0162471Y0250541D01*
X0161374Y0249444D01*
X0159941Y0248850D01*
X0158389Y0248850D01*
X0156956Y0249444D01*
X0152549Y0253850D01*
X0091389Y0253850D01*
X0089956Y0254444D01*
X0088859Y0255541D01*
X0088265Y0256974D01*
X0088265Y0258526D01*
X0088859Y0259959D01*
X0089649Y0260750D01*
X0062415Y0260750D01*
X0062415Y0260490D02*
X0089389Y0260490D01*
X0088748Y0259691D02*
X0062415Y0259691D01*
X0062415Y0258893D02*
X0088417Y0258893D01*
X0088265Y0258094D02*
X0062415Y0258094D01*
X0062415Y0257296D02*
X0088265Y0257296D01*
X0088462Y0256497D02*
X0062415Y0256497D01*
X0062415Y0255699D02*
X0088793Y0255699D01*
X0089499Y0254900D02*
X0062415Y0254900D01*
X0062415Y0254102D02*
X0090781Y0254102D01*
X0092165Y0262087D02*
X0334915Y0262087D01*
X0334915Y0261289D02*
X0155813Y0261289D01*
X0156940Y0260490D02*
X0334915Y0260490D01*
X0334915Y0259691D02*
X0157739Y0259691D01*
X0158537Y0258893D02*
X0334915Y0258893D01*
X0334915Y0258094D02*
X0159336Y0258094D01*
X0160134Y0257296D02*
X0334915Y0257296D01*
X0334915Y0256497D02*
X0160933Y0256497D01*
X0161731Y0255699D02*
X0334915Y0255699D01*
X0334915Y0254900D02*
X0162495Y0254900D01*
X0162826Y0254102D02*
X0334915Y0254102D01*
X0334915Y0253303D02*
X0163065Y0253303D01*
X0163065Y0252505D02*
X0334915Y0252505D01*
X0334915Y0251706D02*
X0162954Y0251706D01*
X0162623Y0250908D02*
X0334915Y0250908D01*
X0334915Y0250109D02*
X0162040Y0250109D01*
X0161053Y0249311D02*
X0334915Y0249311D01*
X0334915Y0248512D02*
X0246273Y0248512D01*
X0245941Y0248650D02*
X0244389Y0248650D01*
X0188389Y0248650D01*
X0186956Y0248056D01*
X0185859Y0246959D01*
X0185265Y0245526D01*
X0185265Y0243974D01*
X0185859Y0242541D01*
X0185949Y0242450D01*
X0161717Y0242450D01*
X0161117Y0243050D01*
X0159212Y0243050D01*
X0157865Y0241703D01*
X0157865Y0239797D01*
X0159212Y0238450D01*
X0161117Y0238450D01*
X0161717Y0239050D01*
X0223461Y0239050D01*
X0223865Y0238646D01*
X0223865Y0237797D01*
X0225212Y0236450D01*
X0227117Y0236450D01*
X0228465Y0237797D01*
X0228465Y0239703D01*
X0227317Y0240850D01*
X0241265Y0240850D01*
X0241265Y0238974D01*
X0241859Y0237541D01*
X0242956Y0236444D01*
X0244389Y0235850D01*
X0245941Y0235850D01*
X0247374Y0236444D01*
X0248471Y0237541D01*
X0249065Y0238974D01*
X0249065Y0245526D01*
X0248471Y0246959D01*
X0247374Y0248056D01*
X0245941Y0248650D01*
X0247716Y0247714D02*
X0334915Y0247714D01*
X0334915Y0246915D02*
X0248489Y0246915D01*
X0248820Y0246117D02*
X0334915Y0246117D01*
X0334915Y0245318D02*
X0249065Y0245318D01*
X0249065Y0244520D02*
X0334915Y0244520D01*
X0334915Y0243721D02*
X0249065Y0243721D01*
X0249065Y0242923D02*
X0334915Y0242923D01*
X0334915Y0242124D02*
X0249065Y0242124D01*
X0249065Y0241326D02*
X0334915Y0241326D01*
X0334915Y0240527D02*
X0249065Y0240527D01*
X0249065Y0239729D02*
X0334915Y0239729D01*
X0334915Y0238930D02*
X0249047Y0238930D01*
X0248716Y0238132D02*
X0334915Y0238132D01*
X0334915Y0237333D02*
X0248263Y0237333D01*
X0247465Y0236535D02*
X0334915Y0236535D01*
X0334915Y0235736D02*
X0122583Y0235736D01*
X0121869Y0236450D02*
X0099717Y0236450D01*
X0099117Y0237050D01*
X0097212Y0237050D01*
X0095865Y0235703D01*
X0095865Y0233797D01*
X0097212Y0232450D01*
X0099117Y0232450D01*
X0099717Y0233050D01*
X0120461Y0233050D01*
X0122465Y0231046D01*
X0123461Y0230050D01*
X0138612Y0230050D01*
X0139212Y0229450D01*
X0141117Y0229450D01*
X0142465Y0230797D01*
X0142465Y0232703D01*
X0141117Y0234050D01*
X0139212Y0234050D01*
X0138612Y0233450D01*
X0124869Y0233450D01*
X0121869Y0236450D01*
X0123381Y0234938D02*
X0334915Y0234938D01*
X0334915Y0234139D02*
X0124180Y0234139D01*
X0121767Y0231744D02*
X0062415Y0231744D01*
X0062415Y0232542D02*
X0097120Y0232542D01*
X0096321Y0233341D02*
X0062415Y0233341D01*
X0062415Y0234139D02*
X0095865Y0234139D01*
X0095865Y0234938D02*
X0062415Y0234938D01*
X0062415Y0235736D02*
X0095898Y0235736D01*
X0096697Y0236535D02*
X0062415Y0236535D01*
X0062415Y0237333D02*
X0224329Y0237333D01*
X0223865Y0238132D02*
X0062415Y0238132D01*
X0062415Y0238930D02*
X0158732Y0238930D01*
X0157933Y0239729D02*
X0062415Y0239729D01*
X0062415Y0240527D02*
X0157865Y0240527D01*
X0157865Y0241326D02*
X0062415Y0241326D01*
X0062415Y0242124D02*
X0158286Y0242124D01*
X0159085Y0242923D02*
X0062415Y0242923D01*
X0062415Y0243721D02*
X0185370Y0243721D01*
X0185265Y0244520D02*
X0062415Y0244520D01*
X0062415Y0245318D02*
X0185265Y0245318D01*
X0185510Y0246117D02*
X0062415Y0246117D01*
X0062415Y0246915D02*
X0185840Y0246915D01*
X0186613Y0247714D02*
X0062415Y0247714D01*
X0062415Y0248512D02*
X0188057Y0248512D01*
X0185700Y0242923D02*
X0161245Y0242923D01*
X0161598Y0238930D02*
X0223580Y0238930D01*
X0225127Y0236535D02*
X0099633Y0236535D01*
X0099210Y0232542D02*
X0120969Y0232542D01*
X0122566Y0230945D02*
X0062415Y0230945D01*
X0062415Y0230147D02*
X0086905Y0230147D01*
X0087508Y0230750D02*
X0085165Y0228407D01*
X0085165Y0225093D01*
X0087508Y0222750D01*
X0090822Y0222750D01*
X0093165Y0225093D01*
X0093165Y0228407D01*
X0090822Y0230750D01*
X0087508Y0230750D01*
X0086106Y0229348D02*
X0062415Y0229348D01*
X0062415Y0228550D02*
X0085308Y0228550D01*
X0085165Y0227751D02*
X0062415Y0227751D01*
X0062415Y0226953D02*
X0085165Y0226953D01*
X0085165Y0226154D02*
X0062415Y0226154D01*
X0062415Y0225355D02*
X0085165Y0225355D01*
X0085701Y0224557D02*
X0062415Y0224557D01*
X0062415Y0223758D02*
X0086499Y0223758D01*
X0087298Y0222960D02*
X0062415Y0222960D01*
X0062415Y0222161D02*
X0334915Y0222161D01*
X0334915Y0221363D02*
X0062415Y0221363D01*
X0062415Y0220564D02*
X0334915Y0220564D01*
X0334915Y0219766D02*
X0321402Y0219766D01*
X0322200Y0218967D02*
X0334915Y0218967D01*
X0334915Y0218169D02*
X0322465Y0218169D01*
X0322465Y0217370D02*
X0334915Y0217370D01*
X0334915Y0216572D02*
X0322239Y0216572D01*
X0321865Y0215773D02*
X0334915Y0215773D01*
X0334915Y0214975D02*
X0321865Y0214975D01*
X0321865Y0214176D02*
X0334915Y0214176D01*
X0334915Y0213378D02*
X0321865Y0213378D01*
X0321865Y0212579D02*
X0334915Y0212579D01*
X0334915Y0211781D02*
X0321865Y0211781D01*
X0321801Y0210982D02*
X0334915Y0210982D01*
X0334915Y0210184D02*
X0321003Y0210184D01*
X0320204Y0209385D02*
X0334915Y0209385D01*
X0334915Y0208587D02*
X0319406Y0208587D01*
X0318607Y0207788D02*
X0334915Y0207788D01*
X0334915Y0206990D02*
X0317809Y0206990D01*
X0315396Y0209385D02*
X0159934Y0209385D01*
X0159869Y0209450D02*
X0140717Y0209450D01*
X0140117Y0210050D01*
X0138212Y0210050D01*
X0136865Y0208703D01*
X0136865Y0206797D01*
X0138212Y0205450D01*
X0140117Y0205450D01*
X0140717Y0206050D01*
X0158461Y0206050D01*
X0161865Y0202646D01*
X0161865Y0201797D01*
X0163212Y0200450D01*
X0165117Y0200450D01*
X0166465Y0201797D01*
X0166465Y0203703D01*
X0165117Y0205050D01*
X0164269Y0205050D01*
X0159869Y0209450D01*
X0160732Y0208587D02*
X0314597Y0208587D01*
X0313799Y0207788D02*
X0161531Y0207788D01*
X0162329Y0206990D02*
X0313000Y0206990D01*
X0312202Y0206191D02*
X0163128Y0206191D01*
X0163926Y0205393D02*
X0311403Y0205393D01*
X0310605Y0204594D02*
X0165573Y0204594D01*
X0166372Y0203796D02*
X0309806Y0203796D01*
X0309008Y0202997D02*
X0166465Y0202997D01*
X0166465Y0202199D02*
X0308209Y0202199D01*
X0307411Y0201400D02*
X0166068Y0201400D01*
X0165269Y0200602D02*
X0306612Y0200602D01*
X0305814Y0199803D02*
X0153364Y0199803D01*
X0153117Y0200050D02*
X0151212Y0200050D01*
X0150612Y0199450D01*
X0137717Y0199450D01*
X0137117Y0200050D01*
X0135212Y0200050D01*
X0133865Y0198703D01*
X0133865Y0196797D01*
X0135212Y0195450D01*
X0137117Y0195450D01*
X0137717Y0196050D01*
X0150612Y0196050D01*
X0151212Y0195450D01*
X0153117Y0195450D01*
X0154465Y0196797D01*
X0154465Y0198703D01*
X0153117Y0200050D01*
X0154163Y0199005D02*
X0305015Y0199005D01*
X0304217Y0198206D02*
X0154465Y0198206D01*
X0154465Y0197408D02*
X0303418Y0197408D01*
X0302620Y0196609D02*
X0154277Y0196609D01*
X0153478Y0195811D02*
X0301821Y0195811D01*
X0301023Y0195012D02*
X0126865Y0195012D01*
X0126865Y0194214D02*
X0300224Y0194214D01*
X0299426Y0193415D02*
X0126865Y0193415D01*
X0126865Y0192617D02*
X0298627Y0192617D01*
X0297829Y0191818D02*
X0126865Y0191818D01*
X0126865Y0191020D02*
X0297030Y0191020D01*
X0296232Y0190221D02*
X0126865Y0190221D01*
X0126865Y0189422D02*
X0137585Y0189422D01*
X0138212Y0190050D02*
X0136865Y0188703D01*
X0136865Y0186797D01*
X0138212Y0185450D01*
X0140117Y0185450D01*
X0140717Y0186050D01*
X0146612Y0186050D01*
X0147212Y0185450D01*
X0149117Y0185450D01*
X0150465Y0186797D01*
X0150465Y0188703D01*
X0149117Y0190050D01*
X0147212Y0190050D01*
X0146612Y0189450D01*
X0140717Y0189450D01*
X0140117Y0190050D01*
X0138212Y0190050D01*
X0136865Y0188624D02*
X0126865Y0188624D01*
X0126865Y0187825D02*
X0136865Y0187825D01*
X0136865Y0187027D02*
X0126865Y0187027D01*
X0126865Y0186228D02*
X0137434Y0186228D01*
X0137478Y0195811D02*
X0150852Y0195811D01*
X0150965Y0199803D02*
X0137364Y0199803D01*
X0134965Y0199803D02*
X0126865Y0199803D01*
X0126865Y0199005D02*
X0134167Y0199005D01*
X0133865Y0198206D02*
X0126865Y0198206D01*
X0126865Y0197408D02*
X0133865Y0197408D01*
X0134053Y0196609D02*
X0126865Y0196609D01*
X0126865Y0195811D02*
X0134852Y0195811D01*
X0126865Y0200602D02*
X0163060Y0200602D01*
X0162262Y0201400D02*
X0126865Y0201400D01*
X0126865Y0202199D02*
X0161865Y0202199D01*
X0161513Y0202997D02*
X0126865Y0202997D01*
X0126865Y0203796D02*
X0160715Y0203796D01*
X0159916Y0204594D02*
X0126865Y0204594D01*
X0126865Y0205393D02*
X0159118Y0205393D01*
X0166612Y0211050D02*
X0167212Y0210450D01*
X0169117Y0210450D01*
X0170465Y0211797D01*
X0170465Y0213703D01*
X0169117Y0215050D01*
X0167212Y0215050D01*
X0166612Y0214450D01*
X0140717Y0214450D01*
X0140117Y0215050D01*
X0138212Y0215050D01*
X0136865Y0213703D01*
X0136865Y0211797D01*
X0138212Y0210450D01*
X0140117Y0210450D01*
X0140717Y0211050D01*
X0166612Y0211050D01*
X0166680Y0210982D02*
X0140650Y0210982D01*
X0137680Y0210982D02*
X0126865Y0210982D01*
X0126865Y0210184D02*
X0316194Y0210184D01*
X0316993Y0210982D02*
X0169650Y0210982D01*
X0170448Y0211781D02*
X0317791Y0211781D01*
X0318465Y0212579D02*
X0170465Y0212579D01*
X0170465Y0213378D02*
X0318465Y0213378D01*
X0318465Y0214176D02*
X0169991Y0214176D01*
X0169193Y0214975D02*
X0318465Y0214975D01*
X0318465Y0215773D02*
X0129441Y0215773D01*
X0129465Y0215797D02*
X0129465Y0217703D01*
X0128117Y0219050D01*
X0126212Y0219050D01*
X0124865Y0217703D01*
X0124865Y0216854D01*
X0123465Y0215454D01*
X0123465Y0180303D01*
X0122865Y0179703D01*
X0122865Y0177797D01*
X0124212Y0176450D01*
X0126117Y0176450D01*
X0127465Y0177797D01*
X0127465Y0179703D01*
X0126865Y0180303D01*
X0126865Y0214046D01*
X0127269Y0214450D01*
X0128117Y0214450D01*
X0129465Y0215797D01*
X0129465Y0216572D02*
X0318090Y0216572D01*
X0317865Y0217370D02*
X0129465Y0217370D01*
X0128999Y0218169D02*
X0317865Y0218169D01*
X0318130Y0218967D02*
X0128200Y0218967D01*
X0126130Y0218967D02*
X0062415Y0218967D01*
X0062415Y0218169D02*
X0125331Y0218169D01*
X0124865Y0217370D02*
X0062415Y0217370D01*
X0062415Y0216572D02*
X0124583Y0216572D01*
X0123784Y0215773D02*
X0062415Y0215773D01*
X0062415Y0214975D02*
X0123465Y0214975D01*
X0123465Y0214176D02*
X0062415Y0214176D01*
X0062415Y0213378D02*
X0123465Y0213378D01*
X0123465Y0212579D02*
X0062415Y0212579D01*
X0062415Y0211781D02*
X0123465Y0211781D01*
X0123465Y0210982D02*
X0062415Y0210982D01*
X0062415Y0210184D02*
X0123465Y0210184D01*
X0123465Y0209385D02*
X0062415Y0209385D01*
X0062415Y0208587D02*
X0123465Y0208587D01*
X0123465Y0207788D02*
X0062415Y0207788D01*
X0062415Y0206990D02*
X0123465Y0206990D01*
X0123465Y0206191D02*
X0062415Y0206191D01*
X0062415Y0205393D02*
X0123465Y0205393D01*
X0123465Y0204594D02*
X0062415Y0204594D01*
X0062415Y0203796D02*
X0123465Y0203796D01*
X0123465Y0202997D02*
X0062415Y0202997D01*
X0062415Y0202199D02*
X0123465Y0202199D01*
X0123465Y0201400D02*
X0062415Y0201400D01*
X0062415Y0200602D02*
X0123465Y0200602D01*
X0123465Y0199803D02*
X0062415Y0199803D01*
X0062415Y0199005D02*
X0123465Y0199005D01*
X0123465Y0198206D02*
X0062415Y0198206D01*
X0062415Y0197408D02*
X0123465Y0197408D01*
X0123465Y0196609D02*
X0062415Y0196609D01*
X0062415Y0195811D02*
X0123465Y0195811D01*
X0123465Y0195012D02*
X0062415Y0195012D01*
X0062415Y0194214D02*
X0123465Y0194214D01*
X0123465Y0193415D02*
X0062415Y0193415D01*
X0062415Y0192617D02*
X0123465Y0192617D01*
X0123465Y0191818D02*
X0062415Y0191818D01*
X0062415Y0191020D02*
X0123465Y0191020D01*
X0123465Y0190221D02*
X0062415Y0190221D01*
X0062415Y0189422D02*
X0111585Y0189422D01*
X0112212Y0190050D02*
X0110865Y0188703D01*
X0110865Y0187854D01*
X0110465Y0187454D01*
X0110465Y0174303D01*
X0109865Y0173703D01*
X0109865Y0171797D01*
X0111212Y0170450D01*
X0113117Y0170450D01*
X0114465Y0171797D01*
X0114465Y0173703D01*
X0113865Y0174303D01*
X0113865Y0185450D01*
X0114117Y0185450D01*
X0115465Y0186797D01*
X0115465Y0188703D01*
X0114117Y0190050D01*
X0112212Y0190050D01*
X0110865Y0188624D02*
X0062415Y0188624D01*
X0062415Y0187825D02*
X0110836Y0187825D01*
X0110465Y0187027D02*
X0062415Y0187027D01*
X0062415Y0186228D02*
X0110465Y0186228D01*
X0110465Y0185430D02*
X0062415Y0185430D01*
X0062415Y0184631D02*
X0110465Y0184631D01*
X0110465Y0183833D02*
X0062415Y0183833D01*
X0062415Y0183034D02*
X0110465Y0183034D01*
X0110465Y0182236D02*
X0062415Y0182236D01*
X0062415Y0181437D02*
X0110465Y0181437D01*
X0110465Y0180639D02*
X0062415Y0180639D01*
X0062415Y0179840D02*
X0110465Y0179840D01*
X0110465Y0179042D02*
X0062415Y0179042D01*
X0062415Y0178243D02*
X0110465Y0178243D01*
X0110465Y0177445D02*
X0062415Y0177445D01*
X0062415Y0176646D02*
X0110465Y0176646D01*
X0110465Y0175848D02*
X0062415Y0175848D01*
X0062415Y0175049D02*
X0110465Y0175049D01*
X0110413Y0174251D02*
X0062415Y0174251D01*
X0062415Y0173452D02*
X0109865Y0173452D01*
X0109865Y0172654D02*
X0062415Y0172654D01*
X0062415Y0171855D02*
X0109865Y0171855D01*
X0110605Y0171057D02*
X0062415Y0171057D01*
X0062415Y0170258D02*
X0185465Y0170258D01*
X0185465Y0169460D02*
X0062415Y0169460D01*
X0062415Y0168661D02*
X0185465Y0168661D01*
X0185465Y0167863D02*
X0062415Y0167863D01*
X0062415Y0167064D02*
X0185465Y0167064D01*
X0185465Y0166266D02*
X0062415Y0166266D01*
X0062415Y0165467D02*
X0185465Y0165467D01*
X0185465Y0164669D02*
X0062415Y0164669D01*
X0062415Y0163870D02*
X0185465Y0163870D01*
X0185465Y0163072D02*
X0062415Y0163072D01*
X0062415Y0162273D02*
X0185465Y0162273D01*
X0185465Y0161475D02*
X0062415Y0161475D01*
X0062415Y0160676D02*
X0185465Y0160676D01*
X0185465Y0159878D02*
X0062415Y0159878D01*
X0062415Y0159079D02*
X0185465Y0159079D01*
X0185465Y0159046D02*
X0186461Y0158050D01*
X0191465Y0153046D01*
X0192461Y0152050D01*
X0236461Y0152050D01*
X0250461Y0138050D01*
X0254461Y0138050D01*
X0256865Y0135646D01*
X0256865Y0134797D01*
X0257212Y0134450D01*
X0222717Y0134450D01*
X0222117Y0135050D01*
X0220212Y0135050D01*
X0218865Y0133703D01*
X0218865Y0131797D01*
X0220212Y0130450D01*
X0222117Y0130450D01*
X0222717Y0131050D01*
X0262869Y0131050D01*
X0263865Y0132046D01*
X0263869Y0132050D01*
X0267612Y0132050D01*
X0268212Y0131450D01*
X0268612Y0131450D01*
X0267865Y0130703D01*
X0267865Y0129854D01*
X0267461Y0129450D01*
X0266465Y0128454D01*
X0266465Y0099046D01*
X0273461Y0092050D01*
X0272212Y0092050D01*
X0271612Y0091450D01*
X0241717Y0091450D01*
X0241117Y0092050D01*
X0239212Y0092050D01*
X0237865Y0090703D01*
X0237865Y0088797D01*
X0239212Y0087450D01*
X0241117Y0087450D01*
X0241717Y0088050D01*
X0271612Y0088050D01*
X0272212Y0087450D01*
X0274117Y0087450D01*
X0275465Y0088797D01*
X0275465Y0090046D01*
X0276865Y0088646D01*
X0276865Y0087797D01*
X0278212Y0086450D01*
X0280117Y0086450D01*
X0281465Y0087797D01*
X0281465Y0089450D01*
X0283117Y0089450D01*
X0284465Y0090797D01*
X0284465Y0092703D01*
X0283117Y0094050D01*
X0281212Y0094050D01*
X0280612Y0093450D01*
X0279869Y0093450D01*
X0271865Y0101454D01*
X0271865Y0123450D01*
X0272117Y0123450D01*
X0273465Y0124797D01*
X0273465Y0126703D01*
X0272117Y0128050D01*
X0271717Y0128050D01*
X0272465Y0128797D01*
X0272465Y0130703D01*
X0271117Y0132050D01*
X0270717Y0132050D01*
X0271465Y0132797D01*
X0271465Y0134703D01*
X0271317Y0134850D01*
X0284265Y0134850D01*
X0284265Y0134103D01*
X0283865Y0133703D01*
X0283865Y0131797D01*
X0285212Y0130450D01*
X0287117Y0130450D01*
X0288465Y0131797D01*
X0288465Y0133703D01*
X0288065Y0134103D01*
X0288065Y0137537D01*
X0286952Y0138650D01*
X0285317Y0138650D01*
X0285465Y0138797D01*
X0285465Y0140703D01*
X0284117Y0142050D01*
X0282212Y0142050D01*
X0281812Y0141650D01*
X0265952Y0141650D01*
X0265065Y0142537D01*
X0265065Y0151397D01*
X0265465Y0151797D01*
X0265465Y0153450D01*
X0267117Y0153450D01*
X0268465Y0154797D01*
X0268465Y0156703D01*
X0268065Y0157103D01*
X0268065Y0157963D01*
X0272952Y0162850D01*
X0274812Y0162850D01*
X0275212Y0162450D01*
X0277117Y0162450D01*
X0278465Y0163797D01*
X0278465Y0165703D01*
X0277117Y0167050D01*
X0275212Y0167050D01*
X0274812Y0166650D01*
X0271378Y0166650D01*
X0270265Y0165537D01*
X0266865Y0162137D01*
X0266865Y0163197D01*
X0267465Y0163797D01*
X0267465Y0165703D01*
X0266117Y0167050D01*
X0264212Y0167050D01*
X0262865Y0165703D01*
X0262865Y0163797D01*
X0263465Y0163197D01*
X0263465Y0162454D01*
X0262461Y0161450D01*
X0261865Y0160854D01*
X0261865Y0169046D01*
X0261869Y0169050D01*
X0263612Y0169050D01*
X0264212Y0168450D01*
X0266117Y0168450D01*
X0267465Y0169797D01*
X0267465Y0171703D01*
X0266117Y0173050D01*
X0264212Y0173050D01*
X0263612Y0172450D01*
X0260461Y0172450D01*
X0259865Y0171854D01*
X0259865Y0174046D01*
X0260869Y0175050D01*
X0263612Y0175050D01*
X0264212Y0174450D01*
X0266117Y0174450D01*
X0267465Y0175797D01*
X0267465Y0177703D01*
X0266117Y0179050D01*
X0264212Y0179050D01*
X0263612Y0178450D01*
X0259461Y0178450D01*
X0258465Y0177454D01*
X0256465Y0175454D01*
X0256465Y0159454D01*
X0255865Y0158854D01*
X0255865Y0163197D01*
X0256465Y0163797D01*
X0256465Y0165703D01*
X0255117Y0167050D01*
X0253212Y0167050D01*
X0252865Y0166703D01*
X0252865Y0168797D01*
X0253212Y0168450D01*
X0255117Y0168450D01*
X0256465Y0169797D01*
X0256465Y0171703D01*
X0255117Y0173050D01*
X0253212Y0173050D01*
X0252612Y0172450D01*
X0251461Y0172450D01*
X0250865Y0171854D01*
X0250865Y0174046D01*
X0251869Y0175050D01*
X0252612Y0175050D01*
X0253212Y0174450D01*
X0255117Y0174450D01*
X0256465Y0175797D01*
X0256465Y0177703D01*
X0255117Y0179050D01*
X0253212Y0179050D01*
X0252612Y0178450D01*
X0250461Y0178450D01*
X0249465Y0177454D01*
X0247465Y0175454D01*
X0247465Y0159454D01*
X0247065Y0159054D01*
X0247065Y0163397D01*
X0247465Y0163797D01*
X0247465Y0165703D01*
X0246117Y0167050D01*
X0244212Y0167050D01*
X0242865Y0165703D01*
X0242865Y0163797D01*
X0243265Y0163397D01*
X0243265Y0162903D01*
X0242117Y0164050D01*
X0240212Y0164050D01*
X0238865Y0162703D01*
X0238865Y0162450D01*
X0223869Y0162450D01*
X0223865Y0162454D01*
X0223865Y0163450D01*
X0224117Y0163450D01*
X0225465Y0164797D01*
X0225465Y0166703D01*
X0224117Y0168050D01*
X0222212Y0168050D01*
X0220865Y0166703D01*
X0220865Y0165854D01*
X0220465Y0165454D01*
X0220465Y0161046D01*
X0221465Y0160046D01*
X0222461Y0159050D01*
X0240869Y0159050D01*
X0241269Y0159450D01*
X0242117Y0159450D01*
X0243265Y0160597D01*
X0243265Y0150054D01*
X0237869Y0155450D01*
X0193869Y0155450D01*
X0188865Y0160454D01*
X0188865Y0185197D01*
X0189465Y0185797D01*
X0189465Y0187703D01*
X0188117Y0189050D01*
X0186212Y0189050D01*
X0184865Y0187703D01*
X0184865Y0185797D01*
X0185465Y0185197D01*
X0185465Y0159046D01*
X0186230Y0158281D02*
X0062415Y0158281D01*
X0062415Y0157482D02*
X0187029Y0157482D01*
X0187827Y0156684D02*
X0062415Y0156684D01*
X0062415Y0155885D02*
X0135047Y0155885D01*
X0135212Y0156050D02*
X0133865Y0154703D01*
X0133865Y0152797D01*
X0135212Y0151450D01*
X0137117Y0151450D01*
X0137717Y0152050D01*
X0156612Y0152050D01*
X0157212Y0151450D01*
X0159117Y0151450D01*
X0160465Y0152797D01*
X0160465Y0154703D01*
X0159117Y0156050D01*
X0157212Y0156050D01*
X0156612Y0155450D01*
X0137717Y0155450D01*
X0137117Y0156050D01*
X0135212Y0156050D01*
X0134249Y0155087D02*
X0062415Y0155087D01*
X0062415Y0154288D02*
X0133865Y0154288D01*
X0133865Y0153489D02*
X0062415Y0153489D01*
X0062415Y0152691D02*
X0133971Y0152691D01*
X0134770Y0151892D02*
X0062415Y0151892D01*
X0062415Y0151094D02*
X0237417Y0151094D01*
X0238215Y0150295D02*
X0062415Y0150295D01*
X0062415Y0149497D02*
X0239014Y0149497D01*
X0239812Y0148698D02*
X0062415Y0148698D01*
X0062415Y0147900D02*
X0240611Y0147900D01*
X0241409Y0147101D02*
X0062415Y0147101D01*
X0062415Y0146303D02*
X0242208Y0146303D01*
X0243006Y0145504D02*
X0062415Y0145504D01*
X0062415Y0144706D02*
X0243805Y0144706D01*
X0244603Y0143907D02*
X0062415Y0143907D01*
X0062415Y0143109D02*
X0245402Y0143109D01*
X0246200Y0142310D02*
X0062415Y0142310D01*
X0062415Y0141512D02*
X0246999Y0141512D01*
X0247797Y0140713D02*
X0062415Y0140713D01*
X0062415Y0139915D02*
X0082636Y0139915D01*
X0082721Y0139950D02*
X0079964Y0138808D01*
X0077855Y0136698D01*
X0076713Y0133942D01*
X0076713Y0130958D01*
X0077855Y0128202D01*
X0079964Y0126092D01*
X0082721Y0124950D01*
X0085705Y0124950D01*
X0088461Y0126092D01*
X0090571Y0128202D01*
X0091713Y0130958D01*
X0091713Y0133942D01*
X0090571Y0136698D01*
X0088461Y0138808D01*
X0085705Y0139950D01*
X0082721Y0139950D01*
X0080708Y0139116D02*
X0062415Y0139116D01*
X0062415Y0138318D02*
X0079474Y0138318D01*
X0078675Y0137519D02*
X0062415Y0137519D01*
X0062415Y0136721D02*
X0077877Y0136721D01*
X0077533Y0135922D02*
X0062415Y0135922D01*
X0062415Y0135124D02*
X0077202Y0135124D01*
X0076872Y0134325D02*
X0062415Y0134325D01*
X0062415Y0133527D02*
X0076713Y0133527D01*
X0076713Y0132728D02*
X0062415Y0132728D01*
X0062415Y0131930D02*
X0076713Y0131930D01*
X0076713Y0131131D02*
X0062415Y0131131D01*
X0062415Y0130333D02*
X0076972Y0130333D01*
X0077303Y0129534D02*
X0062415Y0129534D01*
X0062415Y0128736D02*
X0077633Y0128736D01*
X0078119Y0127937D02*
X0062415Y0127937D01*
X0062415Y0127139D02*
X0078918Y0127139D01*
X0079716Y0126340D02*
X0062415Y0126340D01*
X0062415Y0125542D02*
X0081293Y0125542D01*
X0087133Y0125542D02*
X0266465Y0125542D01*
X0266465Y0126340D02*
X0088710Y0126340D01*
X0089508Y0127139D02*
X0266465Y0127139D01*
X0266465Y0127937D02*
X0090307Y0127937D01*
X0090792Y0128736D02*
X0266746Y0128736D01*
X0267545Y0129534D02*
X0091123Y0129534D01*
X0091454Y0130333D02*
X0267865Y0130333D01*
X0268293Y0131131D02*
X0262950Y0131131D01*
X0263749Y0131930D02*
X0267732Y0131930D01*
X0271238Y0131930D02*
X0283865Y0131930D01*
X0283865Y0132728D02*
X0271396Y0132728D01*
X0271465Y0133527D02*
X0283865Y0133527D01*
X0284265Y0134325D02*
X0271465Y0134325D01*
X0272036Y0131131D02*
X0284531Y0131131D01*
X0287799Y0131131D02*
X0297765Y0131131D01*
X0297765Y0130333D02*
X0272465Y0130333D01*
X0272465Y0129534D02*
X0297765Y0129534D01*
X0297765Y0128736D02*
X0272403Y0128736D01*
X0272230Y0127937D02*
X0297765Y0127937D01*
X0297765Y0127139D02*
X0273029Y0127139D01*
X0273465Y0126340D02*
X0297765Y0126340D01*
X0297765Y0125542D02*
X0273465Y0125542D01*
X0273411Y0124743D02*
X0297765Y0124743D01*
X0297901Y0123945D02*
X0272612Y0123945D01*
X0271865Y0123146D02*
X0298375Y0123146D01*
X0299173Y0122348D02*
X0271865Y0122348D01*
X0271865Y0121549D02*
X0299765Y0121549D01*
X0299765Y0120751D02*
X0271865Y0120751D01*
X0271865Y0119952D02*
X0299765Y0119952D01*
X0299765Y0119153D02*
X0271865Y0119153D01*
X0271865Y0118355D02*
X0299765Y0118355D01*
X0299765Y0117556D02*
X0271865Y0117556D01*
X0271865Y0116758D02*
X0299765Y0116758D01*
X0299765Y0115959D02*
X0271865Y0115959D01*
X0271865Y0115161D02*
X0299765Y0115161D01*
X0299765Y0114362D02*
X0271865Y0114362D01*
X0271865Y0113564D02*
X0299765Y0113564D01*
X0299765Y0112765D02*
X0271865Y0112765D01*
X0271865Y0111967D02*
X0299765Y0111967D01*
X0299765Y0111168D02*
X0271865Y0111168D01*
X0271865Y0110370D02*
X0299765Y0110370D01*
X0299765Y0109571D02*
X0271865Y0109571D01*
X0271865Y0108773D02*
X0299765Y0108773D01*
X0299765Y0107974D02*
X0271865Y0107974D01*
X0271865Y0107176D02*
X0299765Y0107176D01*
X0299765Y0106377D02*
X0271865Y0106377D01*
X0271865Y0105579D02*
X0299765Y0105579D01*
X0299765Y0104780D02*
X0271865Y0104780D01*
X0271865Y0103982D02*
X0299765Y0103982D01*
X0299765Y0103183D02*
X0271865Y0103183D01*
X0271865Y0102385D02*
X0299765Y0102385D01*
X0299765Y0101586D02*
X0271865Y0101586D01*
X0272531Y0100788D02*
X0299765Y0100788D01*
X0299100Y0099989D02*
X0273330Y0099989D01*
X0274128Y0099191D02*
X0297797Y0099191D01*
X0297165Y0098392D02*
X0294775Y0098392D01*
X0294117Y0099050D02*
X0292212Y0099050D01*
X0290865Y0097703D01*
X0290865Y0095797D01*
X0292212Y0094450D01*
X0294117Y0094450D01*
X0295465Y0095797D01*
X0295465Y0097703D01*
X0294117Y0099050D01*
X0295465Y0097594D02*
X0296834Y0097594D01*
X0296765Y0096795D02*
X0295465Y0096795D01*
X0295465Y0095997D02*
X0296765Y0095997D01*
X0296765Y0095198D02*
X0294866Y0095198D01*
X0296765Y0094400D02*
X0278919Y0094400D01*
X0278121Y0095198D02*
X0291464Y0095198D01*
X0290865Y0095997D02*
X0277322Y0095997D01*
X0276524Y0096795D02*
X0290865Y0096795D01*
X0290865Y0097594D02*
X0275725Y0097594D01*
X0274927Y0098392D02*
X0291554Y0098392D01*
X0296765Y0093601D02*
X0283566Y0093601D01*
X0284365Y0092803D02*
X0296765Y0092803D01*
X0296765Y0092004D02*
X0284465Y0092004D01*
X0284465Y0091206D02*
X0296765Y0091206D01*
X0296765Y0090407D02*
X0284075Y0090407D01*
X0283276Y0089609D02*
X0296765Y0089609D01*
X0296765Y0088810D02*
X0281465Y0088810D01*
X0281465Y0088012D02*
X0296765Y0088012D01*
X0296765Y0087213D02*
X0280881Y0087213D01*
X0277449Y0087213D02*
X0235565Y0087213D01*
X0235565Y0086415D02*
X0296765Y0086415D01*
X0296765Y0085616D02*
X0235565Y0085616D01*
X0235565Y0085074D02*
X0235565Y0101342D01*
X0244047Y0109824D01*
X0244565Y0111074D01*
X0244565Y0112426D01*
X0244047Y0113676D01*
X0243091Y0114632D01*
X0241841Y0115150D01*
X0240488Y0115150D01*
X0239239Y0114632D01*
X0229282Y0104676D01*
X0228765Y0103426D01*
X0228765Y0102074D01*
X0228765Y0085074D01*
X0229282Y0083824D01*
X0230239Y0082868D01*
X0231488Y0082350D01*
X0232841Y0082350D01*
X0234091Y0082868D01*
X0235047Y0083824D01*
X0235565Y0085074D01*
X0235459Y0084818D02*
X0296765Y0084818D01*
X0296765Y0084019D02*
X0235128Y0084019D01*
X0234444Y0083220D02*
X0296765Y0083220D01*
X0296765Y0082422D02*
X0233015Y0082422D01*
X0231315Y0082422D02*
X0180015Y0082422D01*
X0179841Y0082350D02*
X0181091Y0082868D01*
X0182047Y0083824D01*
X0182565Y0085074D01*
X0182565Y0086426D01*
X0182047Y0087676D01*
X0181091Y0088632D01*
X0179841Y0089150D01*
X0142488Y0089150D01*
X0141239Y0088632D01*
X0140282Y0087676D01*
X0115239Y0062632D01*
X0115239Y0062632D01*
X0114282Y0061676D01*
X0113765Y0060426D01*
X0113765Y0058404D01*
X0113756Y0058383D01*
X0113765Y0057728D01*
X0113765Y0057074D01*
X0113773Y0057053D01*
X0113837Y0052093D01*
X0114370Y0050850D01*
X0115339Y0049906D01*
X0116595Y0049405D01*
X0117947Y0049422D01*
X0119190Y0049955D01*
X0120134Y0050924D01*
X0120636Y0052180D01*
X0120565Y0057772D01*
X0120565Y0058342D01*
X0144573Y0082350D01*
X0179841Y0082350D01*
X0181444Y0083220D02*
X0229886Y0083220D01*
X0229202Y0084019D02*
X0182128Y0084019D01*
X0182459Y0084818D02*
X0228871Y0084818D01*
X0228765Y0085616D02*
X0182565Y0085616D01*
X0182565Y0086415D02*
X0228765Y0086415D01*
X0228765Y0087213D02*
X0182239Y0087213D01*
X0181712Y0088012D02*
X0228765Y0088012D01*
X0228765Y0088810D02*
X0180662Y0088810D01*
X0176117Y0082050D02*
X0174212Y0082050D01*
X0172865Y0080703D01*
X0172865Y0078797D01*
X0173465Y0078197D01*
X0173465Y0065046D01*
X0174461Y0064050D01*
X0179461Y0059050D01*
X0181208Y0059050D01*
X0183508Y0056750D01*
X0186761Y0056750D01*
X0188465Y0055046D01*
X0189461Y0054050D01*
X0261612Y0054050D01*
X0262212Y0053450D01*
X0264117Y0053450D01*
X0265465Y0054797D01*
X0265465Y0056703D01*
X0264117Y0058050D01*
X0262212Y0058050D01*
X0261612Y0057450D01*
X0197522Y0057450D01*
X0199165Y0059093D01*
X0199165Y0062407D01*
X0196822Y0064750D01*
X0193508Y0064750D01*
X0191165Y0062407D01*
X0191165Y0059093D01*
X0192808Y0057450D01*
X0190869Y0057450D01*
X0189165Y0059154D01*
X0189165Y0062407D01*
X0186822Y0064750D01*
X0183508Y0064750D01*
X0181208Y0062450D01*
X0180869Y0062450D01*
X0176865Y0066454D01*
X0176865Y0078197D01*
X0177465Y0078797D01*
X0177465Y0080703D01*
X0176117Y0082050D01*
X0176544Y0081623D02*
X0296765Y0081623D01*
X0296765Y0080825D02*
X0177343Y0080825D01*
X0177465Y0080026D02*
X0296765Y0080026D01*
X0296765Y0079228D02*
X0177465Y0079228D01*
X0177097Y0078429D02*
X0296765Y0078429D01*
X0296765Y0077631D02*
X0176865Y0077631D01*
X0176865Y0076832D02*
X0188843Y0076832D01*
X0188465Y0076454D02*
X0186761Y0074750D01*
X0183508Y0074750D01*
X0181165Y0072407D01*
X0181165Y0069093D01*
X0183508Y0066750D01*
X0186822Y0066750D01*
X0189165Y0069093D01*
X0189165Y0072346D01*
X0190869Y0074050D01*
X0192808Y0074050D01*
X0191165Y0072407D01*
X0191165Y0069093D01*
X0193508Y0066750D01*
X0196822Y0066750D01*
X0199165Y0069093D01*
X0199165Y0072407D01*
X0197522Y0074050D01*
X0200461Y0074050D01*
X0200865Y0073646D01*
X0200865Y0072797D01*
X0202212Y0071450D01*
X0204117Y0071450D01*
X0205465Y0072797D01*
X0205465Y0074703D01*
X0204117Y0076050D01*
X0203269Y0076050D01*
X0201869Y0077450D01*
X0189461Y0077450D01*
X0188465Y0076454D01*
X0188045Y0076034D02*
X0176865Y0076034D01*
X0176865Y0075235D02*
X0187246Y0075235D01*
X0189659Y0072840D02*
X0191598Y0072840D01*
X0191165Y0072041D02*
X0189165Y0072041D01*
X0189165Y0071243D02*
X0191165Y0071243D01*
X0191165Y0070444D02*
X0189165Y0070444D01*
X0189165Y0069646D02*
X0191165Y0069646D01*
X0191411Y0068847D02*
X0188919Y0068847D01*
X0188120Y0068049D02*
X0192209Y0068049D01*
X0193008Y0067250D02*
X0187322Y0067250D01*
X0187515Y0064056D02*
X0192814Y0064056D01*
X0192016Y0063258D02*
X0188314Y0063258D01*
X0189112Y0062459D02*
X0191217Y0062459D01*
X0191165Y0061661D02*
X0189165Y0061661D01*
X0189165Y0060862D02*
X0191165Y0060862D01*
X0191165Y0060064D02*
X0189165Y0060064D01*
X0189165Y0059265D02*
X0191165Y0059265D01*
X0191791Y0058467D02*
X0189852Y0058467D01*
X0190651Y0057668D02*
X0192590Y0057668D01*
X0189037Y0054474D02*
X0187098Y0054474D01*
X0186822Y0054750D02*
X0183508Y0054750D01*
X0181165Y0052407D01*
X0181165Y0049093D01*
X0183508Y0046750D01*
X0186822Y0046750D01*
X0189165Y0049093D01*
X0189165Y0052407D01*
X0186822Y0054750D01*
X0187440Y0056071D02*
X0120586Y0056071D01*
X0120597Y0055273D02*
X0188238Y0055273D01*
X0187896Y0053676D02*
X0261987Y0053676D01*
X0264343Y0053676D02*
X0268987Y0053676D01*
X0268865Y0053797D02*
X0270212Y0052450D01*
X0270958Y0052450D01*
X0278865Y0043753D01*
X0278865Y0042797D01*
X0280212Y0041450D01*
X0282117Y0041450D01*
X0283465Y0042797D01*
X0283465Y0044703D01*
X0282117Y0046050D01*
X0281371Y0046050D01*
X0273465Y0054747D01*
X0273465Y0055703D01*
X0272117Y0057050D01*
X0270212Y0057050D01*
X0268865Y0055703D01*
X0268865Y0053797D01*
X0268865Y0054474D02*
X0265142Y0054474D01*
X0265465Y0055273D02*
X0268865Y0055273D01*
X0269233Y0056071D02*
X0265465Y0056071D01*
X0265298Y0056870D02*
X0270032Y0056870D01*
X0272298Y0056870D02*
X0287465Y0056870D01*
X0287465Y0057668D02*
X0264499Y0057668D01*
X0265212Y0058450D02*
X0267117Y0058450D01*
X0268465Y0059797D01*
X0268465Y0061703D01*
X0267117Y0063050D01*
X0265212Y0063050D01*
X0264612Y0062450D01*
X0234717Y0062450D01*
X0234117Y0063050D01*
X0232212Y0063050D01*
X0230865Y0061703D01*
X0230865Y0059797D01*
X0232212Y0058450D01*
X0234117Y0058450D01*
X0234717Y0059050D01*
X0264612Y0059050D01*
X0265212Y0058450D01*
X0265195Y0058467D02*
X0234134Y0058467D01*
X0232195Y0058467D02*
X0198538Y0058467D01*
X0199165Y0059265D02*
X0231397Y0059265D01*
X0230865Y0060064D02*
X0199165Y0060064D01*
X0199165Y0060862D02*
X0230865Y0060862D01*
X0230865Y0061661D02*
X0199165Y0061661D01*
X0199112Y0062459D02*
X0231621Y0062459D01*
X0234708Y0062459D02*
X0264621Y0062459D01*
X0267708Y0062459D02*
X0287465Y0062459D01*
X0287465Y0061661D02*
X0268465Y0061661D01*
X0268465Y0060862D02*
X0287465Y0060862D01*
X0287465Y0060064D02*
X0268465Y0060064D01*
X0267933Y0059265D02*
X0287465Y0059265D01*
X0287465Y0058467D02*
X0267134Y0058467D01*
X0261830Y0057668D02*
X0197740Y0057668D01*
X0198314Y0063258D02*
X0287465Y0063258D01*
X0287465Y0064056D02*
X0197515Y0064056D01*
X0197322Y0067250D02*
X0287412Y0067250D01*
X0286865Y0066452D02*
X0176867Y0066452D01*
X0176865Y0067250D02*
X0183008Y0067250D01*
X0182209Y0068049D02*
X0176865Y0068049D01*
X0176865Y0068847D02*
X0181411Y0068847D01*
X0181165Y0069646D02*
X0176865Y0069646D01*
X0176865Y0070444D02*
X0181165Y0070444D01*
X0181165Y0071243D02*
X0176865Y0071243D01*
X0176865Y0072041D02*
X0181165Y0072041D01*
X0181598Y0072840D02*
X0176865Y0072840D01*
X0176865Y0073638D02*
X0182396Y0073638D01*
X0183195Y0074437D02*
X0176865Y0074437D01*
X0173465Y0074437D02*
X0136660Y0074437D01*
X0137458Y0075235D02*
X0173465Y0075235D01*
X0173465Y0076034D02*
X0138257Y0076034D01*
X0139055Y0076832D02*
X0173465Y0076832D01*
X0173465Y0077631D02*
X0139854Y0077631D01*
X0140653Y0078429D02*
X0173233Y0078429D01*
X0172865Y0079228D02*
X0141451Y0079228D01*
X0142250Y0080026D02*
X0172865Y0080026D01*
X0172987Y0080825D02*
X0143048Y0080825D01*
X0143847Y0081623D02*
X0173786Y0081623D01*
X0173465Y0073638D02*
X0135861Y0073638D01*
X0135063Y0072840D02*
X0173465Y0072840D01*
X0173465Y0072041D02*
X0134264Y0072041D01*
X0133466Y0071243D02*
X0173465Y0071243D01*
X0173465Y0070444D02*
X0132667Y0070444D01*
X0131869Y0069646D02*
X0173465Y0069646D01*
X0173465Y0068847D02*
X0131070Y0068847D01*
X0130272Y0068049D02*
X0173465Y0068049D01*
X0173465Y0067250D02*
X0129473Y0067250D01*
X0128675Y0066452D02*
X0173465Y0066452D01*
X0173465Y0065653D02*
X0127876Y0065653D01*
X0127078Y0064855D02*
X0173656Y0064855D01*
X0174454Y0064056D02*
X0126279Y0064056D01*
X0125481Y0063258D02*
X0175253Y0063258D01*
X0176051Y0062459D02*
X0124682Y0062459D01*
X0123884Y0061661D02*
X0176850Y0061661D01*
X0177648Y0060862D02*
X0123085Y0060862D01*
X0122287Y0060064D02*
X0178447Y0060064D01*
X0179245Y0059265D02*
X0121488Y0059265D01*
X0120690Y0058467D02*
X0181791Y0058467D01*
X0182590Y0057668D02*
X0120566Y0057668D01*
X0120576Y0056870D02*
X0183388Y0056870D01*
X0183232Y0054474D02*
X0158693Y0054474D01*
X0158117Y0055050D02*
X0159465Y0053703D01*
X0159465Y0051797D01*
X0158865Y0051197D01*
X0158865Y0037303D01*
X0159465Y0036703D01*
X0159465Y0034797D01*
X0158117Y0033450D01*
X0156212Y0033450D01*
X0154865Y0034797D01*
X0154865Y0036703D01*
X0155465Y0037303D01*
X0155465Y0051197D01*
X0154865Y0051797D01*
X0154865Y0053703D01*
X0156212Y0055050D01*
X0158117Y0055050D01*
X0159465Y0053676D02*
X0182434Y0053676D01*
X0181635Y0052877D02*
X0159465Y0052877D01*
X0159465Y0052079D02*
X0181165Y0052079D01*
X0181165Y0051280D02*
X0158948Y0051280D01*
X0158865Y0050482D02*
X0181165Y0050482D01*
X0181165Y0049683D02*
X0158865Y0049683D01*
X0158865Y0048884D02*
X0181373Y0048884D01*
X0182172Y0048086D02*
X0158865Y0048086D01*
X0158865Y0047287D02*
X0182970Y0047287D01*
X0187359Y0047287D02*
X0235375Y0047287D01*
X0234865Y0047797D02*
X0236212Y0046450D01*
X0238117Y0046450D01*
X0238717Y0047050D01*
X0265612Y0047050D01*
X0266212Y0046450D01*
X0268117Y0046450D01*
X0269465Y0047797D01*
X0269465Y0049703D01*
X0268117Y0051050D01*
X0266212Y0051050D01*
X0265612Y0050450D01*
X0238717Y0050450D01*
X0238117Y0051050D01*
X0236212Y0051050D01*
X0234865Y0049703D01*
X0234865Y0047797D01*
X0234865Y0048086D02*
X0188158Y0048086D01*
X0188956Y0048884D02*
X0234865Y0048884D01*
X0234865Y0049683D02*
X0189165Y0049683D01*
X0189165Y0050482D02*
X0235644Y0050482D01*
X0238686Y0050482D02*
X0265644Y0050482D01*
X0268686Y0050482D02*
X0272748Y0050482D01*
X0272022Y0051280D02*
X0189165Y0051280D01*
X0189165Y0052079D02*
X0271296Y0052079D01*
X0269785Y0052877D02*
X0188695Y0052877D01*
X0181217Y0062459D02*
X0180860Y0062459D01*
X0180061Y0063258D02*
X0182016Y0063258D01*
X0182814Y0064056D02*
X0179263Y0064056D01*
X0178464Y0064855D02*
X0286865Y0064855D01*
X0286865Y0065653D02*
X0177666Y0065653D01*
X0190457Y0073638D02*
X0192396Y0073638D01*
X0197933Y0073638D02*
X0200865Y0073638D01*
X0200865Y0072840D02*
X0198732Y0072840D01*
X0199165Y0072041D02*
X0201621Y0072041D01*
X0199165Y0071243D02*
X0296765Y0071243D01*
X0296765Y0072041D02*
X0270709Y0072041D01*
X0270117Y0071450D02*
X0271465Y0072797D01*
X0271465Y0074703D01*
X0270117Y0076050D01*
X0268212Y0076050D01*
X0267612Y0075450D01*
X0234717Y0075450D01*
X0234117Y0076050D01*
X0232212Y0076050D01*
X0230865Y0074703D01*
X0230865Y0072797D01*
X0232212Y0071450D01*
X0234117Y0071450D01*
X0234717Y0072050D01*
X0267612Y0072050D01*
X0268212Y0071450D01*
X0270117Y0071450D01*
X0271465Y0072840D02*
X0296765Y0072840D01*
X0296765Y0073638D02*
X0271465Y0073638D01*
X0271465Y0074437D02*
X0296765Y0074437D01*
X0296765Y0075235D02*
X0270932Y0075235D01*
X0270134Y0076034D02*
X0296765Y0076034D01*
X0296765Y0076832D02*
X0202487Y0076832D01*
X0204134Y0076034D02*
X0232196Y0076034D01*
X0231397Y0075235D02*
X0204932Y0075235D01*
X0205465Y0074437D02*
X0230865Y0074437D01*
X0230865Y0073638D02*
X0205465Y0073638D01*
X0205465Y0072840D02*
X0230865Y0072840D01*
X0231621Y0072041D02*
X0204709Y0072041D01*
X0199165Y0070444D02*
X0290606Y0070444D01*
X0289865Y0069646D02*
X0199165Y0069646D01*
X0198919Y0068847D02*
X0289865Y0068847D01*
X0288211Y0068049D02*
X0198120Y0068049D01*
X0228765Y0089609D02*
X0090261Y0089609D01*
X0090571Y0089298D02*
X0088461Y0091408D01*
X0085705Y0092550D01*
X0082721Y0092550D01*
X0079964Y0091408D01*
X0077855Y0089298D01*
X0076713Y0086542D01*
X0076713Y0083558D01*
X0077855Y0080802D01*
X0079964Y0078692D01*
X0082721Y0077550D01*
X0085705Y0077550D01*
X0088461Y0078692D01*
X0090571Y0080802D01*
X0091713Y0083558D01*
X0091713Y0086542D01*
X0090571Y0089298D01*
X0090773Y0088810D02*
X0141668Y0088810D01*
X0140618Y0088012D02*
X0091104Y0088012D01*
X0091435Y0087213D02*
X0139820Y0087213D01*
X0140282Y0087676D02*
X0140282Y0087676D01*
X0139021Y0086415D02*
X0091713Y0086415D01*
X0091713Y0085616D02*
X0138223Y0085616D01*
X0137424Y0084818D02*
X0091713Y0084818D01*
X0091713Y0084019D02*
X0136625Y0084019D01*
X0135827Y0083220D02*
X0091573Y0083220D01*
X0091242Y0082422D02*
X0135028Y0082422D01*
X0134230Y0081623D02*
X0090911Y0081623D01*
X0090581Y0080825D02*
X0133431Y0080825D01*
X0132633Y0080026D02*
X0089796Y0080026D01*
X0088997Y0079228D02*
X0131834Y0079228D01*
X0131036Y0078429D02*
X0087828Y0078429D01*
X0085900Y0077631D02*
X0130237Y0077631D01*
X0129439Y0076832D02*
X0062415Y0076832D01*
X0062415Y0076034D02*
X0128640Y0076034D01*
X0127842Y0075235D02*
X0062415Y0075235D01*
X0062415Y0074437D02*
X0127043Y0074437D01*
X0126245Y0073638D02*
X0062415Y0073638D01*
X0062415Y0072840D02*
X0125446Y0072840D01*
X0124648Y0072041D02*
X0062415Y0072041D01*
X0062415Y0071243D02*
X0123849Y0071243D01*
X0123051Y0070444D02*
X0062415Y0070444D01*
X0062415Y0069646D02*
X0122252Y0069646D01*
X0121454Y0068847D02*
X0062415Y0068847D01*
X0062415Y0068049D02*
X0120655Y0068049D01*
X0119857Y0067250D02*
X0062415Y0067250D01*
X0062415Y0066452D02*
X0119058Y0066452D01*
X0118260Y0065653D02*
X0062415Y0065653D01*
X0062415Y0064855D02*
X0117461Y0064855D01*
X0116663Y0064056D02*
X0062415Y0064056D01*
X0062415Y0063258D02*
X0115864Y0063258D01*
X0115066Y0062459D02*
X0062415Y0062459D01*
X0062415Y0061661D02*
X0114276Y0061661D01*
X0113945Y0060862D02*
X0062415Y0060862D01*
X0062415Y0060064D02*
X0113765Y0060064D01*
X0113765Y0059265D02*
X0062415Y0059265D01*
X0062415Y0058467D02*
X0113765Y0058467D01*
X0113765Y0057668D02*
X0062415Y0057668D01*
X0062415Y0056870D02*
X0113776Y0056870D01*
X0113786Y0056071D02*
X0072032Y0056071D01*
X0073451Y0055273D02*
X0113796Y0055273D01*
X0113806Y0054474D02*
X0074249Y0054474D01*
X0075048Y0053676D02*
X0113817Y0053676D01*
X0113827Y0052877D02*
X0075846Y0052877D01*
X0076645Y0052079D02*
X0113843Y0052079D01*
X0114186Y0051280D02*
X0077443Y0051280D01*
X0078242Y0050482D02*
X0114749Y0050482D01*
X0115898Y0049683D02*
X0079040Y0049683D01*
X0079839Y0048884D02*
X0155465Y0048884D01*
X0155465Y0048086D02*
X0113996Y0048086D01*
X0115436Y0047287D02*
X0155465Y0047287D01*
X0155465Y0046489D02*
X0116234Y0046489D01*
X0117033Y0045690D02*
X0155465Y0045690D01*
X0155465Y0044892D02*
X0117831Y0044892D01*
X0118630Y0044093D02*
X0155465Y0044093D01*
X0155465Y0043295D02*
X0119428Y0043295D01*
X0120227Y0042496D02*
X0155465Y0042496D01*
X0155465Y0041698D02*
X0121025Y0041698D01*
X0121824Y0040899D02*
X0155465Y0040899D01*
X0155465Y0040101D02*
X0122622Y0040101D01*
X0123421Y0039302D02*
X0155465Y0039302D01*
X0155465Y0038504D02*
X0124219Y0038504D01*
X0125018Y0037705D02*
X0155465Y0037705D01*
X0155069Y0036907D02*
X0125816Y0036907D01*
X0126615Y0036108D02*
X0154865Y0036108D01*
X0154865Y0035310D02*
X0127413Y0035310D01*
X0128212Y0034511D02*
X0155151Y0034511D01*
X0155949Y0033713D02*
X0129010Y0033713D01*
X0129809Y0032914D02*
X0236076Y0032914D01*
X0235865Y0032116D02*
X0130607Y0032116D01*
X0131406Y0031317D02*
X0235865Y0031317D01*
X0236143Y0030519D02*
X0132204Y0030519D01*
X0133003Y0029720D02*
X0236942Y0029720D01*
X0238865Y0028922D02*
X0133801Y0028922D01*
X0134600Y0028123D02*
X0238865Y0028123D01*
X0239337Y0027325D02*
X0135398Y0027325D01*
X0136197Y0026526D02*
X0240136Y0026526D01*
X0244203Y0032116D02*
X0287465Y0032116D01*
X0287465Y0032914D02*
X0243405Y0032914D01*
X0239455Y0033713D02*
X0287465Y0033713D01*
X0287465Y0034511D02*
X0159179Y0034511D01*
X0159465Y0035310D02*
X0287465Y0035310D01*
X0287465Y0036108D02*
X0159465Y0036108D01*
X0159261Y0036907D02*
X0287465Y0036907D01*
X0287465Y0037705D02*
X0158865Y0037705D01*
X0158865Y0038504D02*
X0287465Y0038504D01*
X0287465Y0039302D02*
X0158865Y0039302D01*
X0158865Y0040101D02*
X0287465Y0040101D01*
X0287465Y0040899D02*
X0158865Y0040899D01*
X0158865Y0041698D02*
X0279964Y0041698D01*
X0279166Y0042496D02*
X0158865Y0042496D01*
X0158865Y0043295D02*
X0278865Y0043295D01*
X0278555Y0044093D02*
X0158865Y0044093D01*
X0158865Y0044892D02*
X0277829Y0044892D01*
X0277103Y0045690D02*
X0158865Y0045690D01*
X0158865Y0046489D02*
X0236173Y0046489D01*
X0238156Y0046489D02*
X0266173Y0046489D01*
X0268156Y0046489D02*
X0276377Y0046489D01*
X0275651Y0047287D02*
X0268955Y0047287D01*
X0269465Y0048086D02*
X0274926Y0048086D01*
X0274200Y0048884D02*
X0269465Y0048884D01*
X0269465Y0049683D02*
X0273474Y0049683D01*
X0275891Y0052079D02*
X0287465Y0052079D01*
X0287465Y0052877D02*
X0275165Y0052877D01*
X0274439Y0053676D02*
X0287465Y0053676D01*
X0287465Y0054474D02*
X0273713Y0054474D01*
X0273465Y0055273D02*
X0287465Y0055273D01*
X0287465Y0056071D02*
X0273096Y0056071D01*
X0276617Y0051280D02*
X0287465Y0051280D01*
X0287465Y0050482D02*
X0277343Y0050482D01*
X0278069Y0049683D02*
X0287465Y0049683D01*
X0287465Y0048884D02*
X0278795Y0048884D01*
X0279520Y0048086D02*
X0287465Y0048086D01*
X0287465Y0047287D02*
X0280246Y0047287D01*
X0280972Y0046489D02*
X0287465Y0046489D01*
X0287465Y0045690D02*
X0282477Y0045690D01*
X0283276Y0044892D02*
X0287465Y0044892D01*
X0287465Y0044093D02*
X0283465Y0044093D01*
X0283465Y0043295D02*
X0287465Y0043295D01*
X0287465Y0042496D02*
X0283164Y0042496D01*
X0282365Y0041698D02*
X0287465Y0041698D01*
X0293865Y0041698D02*
X0296765Y0041698D01*
X0296765Y0042496D02*
X0293865Y0042496D01*
X0293865Y0043295D02*
X0296765Y0043295D01*
X0296765Y0044093D02*
X0293865Y0044093D01*
X0293865Y0044892D02*
X0296765Y0044892D01*
X0296765Y0045690D02*
X0293865Y0045690D01*
X0293865Y0046489D02*
X0296765Y0046489D01*
X0296765Y0047287D02*
X0293865Y0047287D01*
X0293865Y0048086D02*
X0296765Y0048086D01*
X0296765Y0048884D02*
X0293865Y0048884D01*
X0293865Y0049683D02*
X0296765Y0049683D01*
X0296765Y0050482D02*
X0293865Y0050482D01*
X0293865Y0051280D02*
X0296765Y0051280D01*
X0296765Y0052079D02*
X0293865Y0052079D01*
X0293865Y0052877D02*
X0296765Y0052877D01*
X0296765Y0053676D02*
X0293865Y0053676D01*
X0293865Y0054474D02*
X0296765Y0054474D01*
X0296765Y0055273D02*
X0293865Y0055273D01*
X0293865Y0056071D02*
X0296765Y0056071D01*
X0296765Y0056870D02*
X0293865Y0056870D01*
X0293865Y0057668D02*
X0296765Y0057668D01*
X0296765Y0058467D02*
X0293865Y0058467D01*
X0293865Y0059265D02*
X0296765Y0059265D01*
X0296765Y0060064D02*
X0293865Y0060064D01*
X0293865Y0060862D02*
X0296765Y0060862D01*
X0296765Y0061661D02*
X0293865Y0061661D01*
X0293865Y0062459D02*
X0296765Y0062459D01*
X0296765Y0063258D02*
X0293865Y0063258D01*
X0293865Y0064056D02*
X0296765Y0064056D01*
X0296765Y0064855D02*
X0293865Y0064855D01*
X0293865Y0065653D02*
X0296765Y0065653D01*
X0296765Y0066452D02*
X0293865Y0066452D01*
X0293918Y0067250D02*
X0296765Y0067250D01*
X0296765Y0068049D02*
X0294465Y0068049D01*
X0294465Y0068847D02*
X0296765Y0068847D01*
X0296765Y0069646D02*
X0294465Y0069646D01*
X0293723Y0070444D02*
X0296765Y0070444D01*
X0303565Y0070444D02*
X0334915Y0070444D01*
X0334915Y0069646D02*
X0303565Y0069646D01*
X0303565Y0068847D02*
X0334915Y0068847D01*
X0334915Y0068049D02*
X0303565Y0068049D01*
X0303565Y0067250D02*
X0334915Y0067250D01*
X0334915Y0066452D02*
X0303565Y0066452D01*
X0303565Y0065653D02*
X0334915Y0065653D01*
X0334915Y0064855D02*
X0303565Y0064855D01*
X0303565Y0064056D02*
X0334915Y0064056D01*
X0334915Y0063258D02*
X0303565Y0063258D01*
X0303565Y0062459D02*
X0334915Y0062459D01*
X0334915Y0061661D02*
X0303565Y0061661D01*
X0303565Y0060862D02*
X0334915Y0060862D01*
X0334915Y0060064D02*
X0303565Y0060064D01*
X0303565Y0059265D02*
X0334915Y0059265D01*
X0334915Y0058467D02*
X0303565Y0058467D01*
X0303565Y0057668D02*
X0334915Y0057668D01*
X0334915Y0056870D02*
X0303565Y0056870D01*
X0303565Y0056071D02*
X0334915Y0056071D01*
X0334915Y0055273D02*
X0303565Y0055273D01*
X0303565Y0054474D02*
X0334915Y0054474D01*
X0334915Y0053676D02*
X0303565Y0053676D01*
X0303565Y0052877D02*
X0334915Y0052877D01*
X0334915Y0052079D02*
X0303565Y0052079D01*
X0303565Y0051280D02*
X0334915Y0051280D01*
X0334915Y0050482D02*
X0303565Y0050482D01*
X0303565Y0049683D02*
X0334915Y0049683D01*
X0334915Y0048884D02*
X0303565Y0048884D01*
X0303565Y0048086D02*
X0334915Y0048086D01*
X0334915Y0047287D02*
X0303565Y0047287D01*
X0303565Y0046489D02*
X0334915Y0046489D01*
X0334915Y0045690D02*
X0303565Y0045690D01*
X0303565Y0044892D02*
X0334915Y0044892D01*
X0334915Y0044093D02*
X0303565Y0044093D01*
X0303565Y0043295D02*
X0334915Y0043295D01*
X0334915Y0042496D02*
X0303565Y0042496D01*
X0303565Y0041698D02*
X0334915Y0041698D01*
X0334915Y0040899D02*
X0303565Y0040899D01*
X0303565Y0040101D02*
X0334915Y0040101D01*
X0334915Y0039302D02*
X0303565Y0039302D01*
X0303565Y0038504D02*
X0334915Y0038504D01*
X0334915Y0037705D02*
X0303565Y0037705D01*
X0303565Y0036907D02*
X0334915Y0036907D01*
X0334915Y0036108D02*
X0303565Y0036108D01*
X0303565Y0035310D02*
X0334915Y0035310D01*
X0334915Y0034511D02*
X0303565Y0034511D01*
X0303565Y0033713D02*
X0334915Y0033713D01*
X0334915Y0032914D02*
X0303565Y0032914D01*
X0303565Y0032116D02*
X0334915Y0032116D01*
X0334915Y0031317D02*
X0303565Y0031317D01*
X0303565Y0030519D02*
X0334915Y0030519D01*
X0334915Y0029720D02*
X0303565Y0029720D01*
X0303565Y0028922D02*
X0334915Y0028922D01*
X0334915Y0028123D02*
X0303565Y0028123D01*
X0303565Y0028074D02*
X0303565Y0096756D01*
X0304199Y0097391D01*
X0304565Y0098273D01*
X0304565Y0123227D01*
X0304199Y0124109D01*
X0303524Y0124785D01*
X0302565Y0125744D01*
X0302565Y0127097D01*
X0303212Y0126450D01*
X0305117Y0126450D01*
X0306465Y0127797D01*
X0306465Y0129703D01*
X0305865Y0130303D01*
X0305865Y0140697D01*
X0306965Y0141797D01*
X0306965Y0143703D01*
X0305617Y0145050D01*
X0303712Y0145050D01*
X0302565Y0143903D01*
X0302565Y0158227D01*
X0302465Y0158469D01*
X0302465Y0158703D01*
X0302299Y0158868D01*
X0302199Y0159109D01*
X0301524Y0159785D01*
X0301283Y0159885D01*
X0301117Y0160050D01*
X0300884Y0160050D01*
X0300642Y0160150D01*
X0300452Y0160150D01*
X0297065Y0163537D01*
X0297065Y0181397D01*
X0297465Y0181797D01*
X0297465Y0183703D01*
X0297065Y0184103D01*
X0297065Y0186246D01*
X0307165Y0196346D01*
X0307165Y0186750D01*
X0317165Y0176750D01*
X0334915Y0176750D01*
X0334915Y0125750D01*
X0316165Y0125750D01*
X0307165Y0116750D01*
X0307165Y0104750D01*
X0316165Y0095750D01*
X0334915Y0095750D01*
X0334915Y0015000D01*
X0092165Y0015000D01*
X0092165Y0041350D01*
X0111756Y0041350D01*
X0132282Y0020824D01*
X0133239Y0019868D01*
X0134488Y0019350D01*
X0294841Y0019350D01*
X0296091Y0019868D01*
X0302091Y0025868D01*
X0303047Y0026824D01*
X0303565Y0028074D01*
X0303255Y0027325D02*
X0334915Y0027325D01*
X0334915Y0026526D02*
X0302749Y0026526D01*
X0302091Y0025868D02*
X0302091Y0025868D01*
X0301951Y0025728D02*
X0334915Y0025728D01*
X0334915Y0024929D02*
X0301152Y0024929D01*
X0300354Y0024131D02*
X0334915Y0024131D01*
X0334915Y0023332D02*
X0299555Y0023332D01*
X0298757Y0022534D02*
X0334915Y0022534D01*
X0334915Y0021735D02*
X0297958Y0021735D01*
X0297160Y0020937D02*
X0334915Y0020937D01*
X0334915Y0020138D02*
X0296361Y0020138D01*
X0293931Y0027325D02*
X0293865Y0027325D01*
X0293865Y0028123D02*
X0294730Y0028123D01*
X0295528Y0028922D02*
X0293865Y0028922D01*
X0293865Y0029720D02*
X0296327Y0029720D01*
X0296765Y0030519D02*
X0293865Y0030519D01*
X0293865Y0031317D02*
X0296765Y0031317D01*
X0296765Y0032116D02*
X0293865Y0032116D01*
X0293865Y0032914D02*
X0296765Y0032914D01*
X0296765Y0033713D02*
X0293865Y0033713D01*
X0293865Y0034511D02*
X0296765Y0034511D01*
X0296765Y0035310D02*
X0293865Y0035310D01*
X0293865Y0036108D02*
X0296765Y0036108D01*
X0296765Y0036907D02*
X0293865Y0036907D01*
X0293865Y0037705D02*
X0296765Y0037705D01*
X0296765Y0038504D02*
X0293865Y0038504D01*
X0293865Y0039302D02*
X0296765Y0039302D01*
X0296765Y0040101D02*
X0293865Y0040101D01*
X0293865Y0040899D02*
X0296765Y0040899D01*
X0334915Y0019340D02*
X0092165Y0019340D01*
X0092165Y0020138D02*
X0132968Y0020138D01*
X0132282Y0020824D02*
X0132282Y0020824D01*
X0132170Y0020937D02*
X0092165Y0020937D01*
X0092165Y0021735D02*
X0131371Y0021735D01*
X0130573Y0022534D02*
X0092165Y0022534D01*
X0092165Y0023332D02*
X0129774Y0023332D01*
X0128976Y0024131D02*
X0092165Y0024131D01*
X0092165Y0024929D02*
X0128177Y0024929D01*
X0127379Y0025728D02*
X0092165Y0025728D01*
X0092165Y0026526D02*
X0126580Y0026526D01*
X0125782Y0027325D02*
X0092165Y0027325D01*
X0092165Y0028123D02*
X0124983Y0028123D01*
X0124185Y0028922D02*
X0092165Y0028922D01*
X0092165Y0029720D02*
X0123386Y0029720D01*
X0122588Y0030519D02*
X0092165Y0030519D01*
X0092165Y0031317D02*
X0121789Y0031317D01*
X0120991Y0032116D02*
X0092165Y0032116D01*
X0092165Y0032914D02*
X0120192Y0032914D01*
X0119394Y0033713D02*
X0092165Y0033713D01*
X0092165Y0034511D02*
X0118595Y0034511D01*
X0117797Y0035310D02*
X0092165Y0035310D01*
X0092165Y0036108D02*
X0116998Y0036108D01*
X0116200Y0036907D02*
X0092165Y0036907D01*
X0092165Y0037705D02*
X0115401Y0037705D01*
X0114603Y0038504D02*
X0092165Y0038504D01*
X0092165Y0039302D02*
X0113804Y0039302D01*
X0113006Y0040101D02*
X0092165Y0040101D01*
X0092165Y0040899D02*
X0112207Y0040899D01*
X0118556Y0049683D02*
X0155465Y0049683D01*
X0155465Y0050482D02*
X0119703Y0050482D01*
X0120277Y0051280D02*
X0155382Y0051280D01*
X0154865Y0052079D02*
X0120596Y0052079D01*
X0120627Y0052877D02*
X0154865Y0052877D01*
X0154865Y0053676D02*
X0120617Y0053676D01*
X0120607Y0054474D02*
X0155636Y0054474D01*
X0158380Y0033713D02*
X0236875Y0033713D01*
X0234709Y0072041D02*
X0267621Y0072041D01*
X0268196Y0076034D02*
X0234134Y0076034D01*
X0235565Y0088012D02*
X0238651Y0088012D01*
X0237865Y0088810D02*
X0235565Y0088810D01*
X0235565Y0089609D02*
X0237865Y0089609D01*
X0237865Y0090407D02*
X0235565Y0090407D01*
X0235565Y0091206D02*
X0238368Y0091206D01*
X0239166Y0092004D02*
X0235565Y0092004D01*
X0235565Y0092803D02*
X0272708Y0092803D01*
X0272166Y0092004D02*
X0241163Y0092004D01*
X0241679Y0088012D02*
X0271651Y0088012D01*
X0274679Y0088012D02*
X0276865Y0088012D01*
X0276701Y0088810D02*
X0275465Y0088810D01*
X0275465Y0089609D02*
X0275902Y0089609D01*
X0279718Y0093601D02*
X0280763Y0093601D01*
X0271909Y0093601D02*
X0235565Y0093601D01*
X0235565Y0094400D02*
X0271111Y0094400D01*
X0270312Y0095198D02*
X0235565Y0095198D01*
X0235565Y0095997D02*
X0269514Y0095997D01*
X0268715Y0096795D02*
X0235565Y0096795D01*
X0235565Y0097594D02*
X0267917Y0097594D01*
X0267118Y0098392D02*
X0235565Y0098392D01*
X0235565Y0099191D02*
X0266465Y0099191D01*
X0266465Y0099989D02*
X0235565Y0099989D01*
X0235565Y0100788D02*
X0266465Y0100788D01*
X0266465Y0101586D02*
X0235809Y0101586D01*
X0236608Y0102385D02*
X0266465Y0102385D01*
X0266465Y0103183D02*
X0237406Y0103183D01*
X0238205Y0103982D02*
X0266465Y0103982D01*
X0266465Y0104780D02*
X0239003Y0104780D01*
X0239802Y0105579D02*
X0266465Y0105579D01*
X0266465Y0106377D02*
X0240600Y0106377D01*
X0241399Y0107176D02*
X0266465Y0107176D01*
X0266465Y0107974D02*
X0242197Y0107974D01*
X0242996Y0108773D02*
X0266465Y0108773D01*
X0266465Y0109571D02*
X0243794Y0109571D01*
X0244273Y0110370D02*
X0266465Y0110370D01*
X0266465Y0111168D02*
X0244565Y0111168D01*
X0244565Y0111967D02*
X0266465Y0111967D01*
X0266465Y0112765D02*
X0244424Y0112765D01*
X0244094Y0113564D02*
X0266465Y0113564D01*
X0266465Y0114362D02*
X0243361Y0114362D01*
X0238969Y0114362D02*
X0107013Y0114362D01*
X0107013Y0114527D02*
X0106358Y0116107D01*
X0105149Y0117317D01*
X0103568Y0117971D01*
X0101858Y0117971D01*
X0100277Y0117317D01*
X0099067Y0116107D01*
X0098813Y0115492D01*
X0098558Y0116107D01*
X0097349Y0117317D01*
X0095768Y0117971D01*
X0094058Y0117971D01*
X0092477Y0117317D01*
X0091267Y0116107D01*
X0090613Y0114527D01*
X0090613Y0112816D01*
X0091267Y0111235D01*
X0092477Y0110026D01*
X0094058Y0109371D01*
X0095768Y0109371D01*
X0097349Y0110026D01*
X0098558Y0111235D01*
X0098813Y0111850D01*
X0099067Y0111235D01*
X0100277Y0110026D01*
X0101858Y0109371D01*
X0103568Y0109371D01*
X0105149Y0110026D01*
X0106358Y0111235D01*
X0107013Y0112816D01*
X0107013Y0114527D01*
X0106750Y0115161D02*
X0266465Y0115161D01*
X0266465Y0115959D02*
X0106419Y0115959D01*
X0105707Y0116758D02*
X0266465Y0116758D01*
X0266465Y0117556D02*
X0104570Y0117556D01*
X0100856Y0117556D02*
X0096770Y0117556D01*
X0097907Y0116758D02*
X0099718Y0116758D01*
X0099006Y0115959D02*
X0098619Y0115959D01*
X0093056Y0117556D02*
X0062415Y0117556D01*
X0062415Y0116758D02*
X0091918Y0116758D01*
X0091206Y0115959D02*
X0062415Y0115959D01*
X0062415Y0115161D02*
X0090876Y0115161D01*
X0090613Y0114362D02*
X0062415Y0114362D01*
X0062415Y0113564D02*
X0090613Y0113564D01*
X0090634Y0112765D02*
X0062415Y0112765D01*
X0062415Y0111967D02*
X0090965Y0111967D01*
X0091335Y0111168D02*
X0062415Y0111168D01*
X0062415Y0110370D02*
X0092133Y0110370D01*
X0093574Y0109571D02*
X0062415Y0109571D01*
X0062415Y0108773D02*
X0233379Y0108773D01*
X0232581Y0107974D02*
X0103941Y0107974D01*
X0103568Y0108129D02*
X0101858Y0108129D01*
X0100277Y0107474D01*
X0099067Y0106264D01*
X0098413Y0104684D01*
X0098413Y0102973D01*
X0099067Y0101393D01*
X0100277Y0100183D01*
X0101858Y0099529D01*
X0103568Y0099529D01*
X0105149Y0100183D01*
X0106358Y0101393D01*
X0107013Y0102973D01*
X0107013Y0104684D01*
X0106358Y0106264D01*
X0105149Y0107474D01*
X0103568Y0108129D01*
X0104051Y0109571D02*
X0234178Y0109571D01*
X0234976Y0110370D02*
X0105493Y0110370D01*
X0106291Y0111168D02*
X0235775Y0111168D01*
X0236573Y0111967D02*
X0106661Y0111967D01*
X0106992Y0112765D02*
X0237372Y0112765D01*
X0238170Y0113564D02*
X0107013Y0113564D01*
X0101374Y0109571D02*
X0096251Y0109571D01*
X0097693Y0110370D02*
X0099933Y0110370D01*
X0099135Y0111168D02*
X0098491Y0111168D01*
X0099979Y0107176D02*
X0062415Y0107176D01*
X0062415Y0107974D02*
X0101485Y0107974D01*
X0099180Y0106377D02*
X0062415Y0106377D01*
X0062415Y0105579D02*
X0098783Y0105579D01*
X0098453Y0104780D02*
X0062415Y0104780D01*
X0062415Y0103982D02*
X0098413Y0103982D01*
X0098413Y0103183D02*
X0062415Y0103183D01*
X0062415Y0102385D02*
X0098657Y0102385D01*
X0098987Y0101586D02*
X0062415Y0101586D01*
X0062415Y0100788D02*
X0099673Y0100788D01*
X0100746Y0099989D02*
X0062415Y0099989D01*
X0062415Y0099191D02*
X0228765Y0099191D01*
X0228765Y0099989D02*
X0104680Y0099989D01*
X0105753Y0100788D02*
X0228765Y0100788D01*
X0228765Y0101586D02*
X0106438Y0101586D01*
X0106769Y0102385D02*
X0228765Y0102385D01*
X0228765Y0103183D02*
X0107013Y0103183D01*
X0107013Y0103982D02*
X0228995Y0103982D01*
X0229387Y0104780D02*
X0106973Y0104780D01*
X0106642Y0105579D02*
X0230185Y0105579D01*
X0230984Y0106377D02*
X0106245Y0106377D01*
X0105447Y0107176D02*
X0231782Y0107176D01*
X0228765Y0098392D02*
X0062415Y0098392D01*
X0062415Y0097594D02*
X0228765Y0097594D01*
X0228765Y0096795D02*
X0062415Y0096795D01*
X0062415Y0095997D02*
X0228765Y0095997D01*
X0228765Y0095198D02*
X0062415Y0095198D01*
X0062415Y0094400D02*
X0228765Y0094400D01*
X0228765Y0093601D02*
X0062415Y0093601D01*
X0062415Y0092803D02*
X0228765Y0092803D01*
X0228765Y0092004D02*
X0087023Y0092004D01*
X0088664Y0091206D02*
X0228765Y0091206D01*
X0228765Y0090407D02*
X0089462Y0090407D01*
X0081403Y0092004D02*
X0062415Y0092004D01*
X0062415Y0091206D02*
X0079762Y0091206D01*
X0078963Y0090407D02*
X0062415Y0090407D01*
X0062415Y0089609D02*
X0078165Y0089609D01*
X0077652Y0088810D02*
X0062415Y0088810D01*
X0062415Y0088012D02*
X0077322Y0088012D01*
X0076991Y0087213D02*
X0062415Y0087213D01*
X0062415Y0086415D02*
X0076713Y0086415D01*
X0076713Y0085616D02*
X0062415Y0085616D01*
X0062415Y0084818D02*
X0076713Y0084818D01*
X0076713Y0084019D02*
X0062415Y0084019D01*
X0062415Y0083220D02*
X0076853Y0083220D01*
X0077183Y0082422D02*
X0062415Y0082422D01*
X0062415Y0081623D02*
X0077514Y0081623D01*
X0077845Y0080825D02*
X0062415Y0080825D01*
X0062415Y0080026D02*
X0078630Y0080026D01*
X0079428Y0079228D02*
X0062415Y0079228D01*
X0062415Y0078429D02*
X0080598Y0078429D01*
X0082526Y0077631D02*
X0062415Y0077631D01*
X0062415Y0056071D02*
X0070298Y0056071D01*
X0068879Y0055273D02*
X0062415Y0055273D01*
X0062415Y0054474D02*
X0068199Y0054474D01*
X0067868Y0053676D02*
X0062415Y0053676D01*
X0062415Y0052877D02*
X0067765Y0052877D01*
X0067765Y0052079D02*
X0062415Y0052079D01*
X0062415Y0051280D02*
X0068094Y0051280D01*
X0068625Y0050482D02*
X0062415Y0050482D01*
X0062415Y0049683D02*
X0069423Y0049683D01*
X0070222Y0048884D02*
X0062415Y0048884D01*
X0062415Y0048086D02*
X0071020Y0048086D01*
X0071819Y0047287D02*
X0062415Y0047287D01*
X0062415Y0046489D02*
X0072618Y0046489D01*
X0073416Y0045690D02*
X0062415Y0045690D01*
X0062415Y0044892D02*
X0074215Y0044892D01*
X0075013Y0044093D02*
X0062415Y0044093D01*
X0062415Y0043295D02*
X0075812Y0043295D01*
X0076610Y0042496D02*
X0062415Y0042496D01*
X0092165Y0018541D02*
X0334915Y0018541D01*
X0334915Y0017743D02*
X0092165Y0017743D01*
X0092165Y0016944D02*
X0334915Y0016944D01*
X0334915Y0016146D02*
X0092165Y0016146D01*
X0092165Y0015347D02*
X0334915Y0015347D01*
X0334915Y0071243D02*
X0303565Y0071243D01*
X0303565Y0072041D02*
X0334915Y0072041D01*
X0334915Y0072840D02*
X0303565Y0072840D01*
X0303565Y0073638D02*
X0334915Y0073638D01*
X0334915Y0074437D02*
X0303565Y0074437D01*
X0303565Y0075235D02*
X0334915Y0075235D01*
X0334915Y0076034D02*
X0303565Y0076034D01*
X0303565Y0076832D02*
X0334915Y0076832D01*
X0334915Y0077631D02*
X0303565Y0077631D01*
X0303565Y0078429D02*
X0334915Y0078429D01*
X0334915Y0079228D02*
X0303565Y0079228D01*
X0303565Y0080026D02*
X0334915Y0080026D01*
X0334915Y0080825D02*
X0303565Y0080825D01*
X0303565Y0081623D02*
X0334915Y0081623D01*
X0334915Y0082422D02*
X0303565Y0082422D01*
X0303565Y0083220D02*
X0334915Y0083220D01*
X0334915Y0084019D02*
X0303565Y0084019D01*
X0303565Y0084818D02*
X0334915Y0084818D01*
X0334915Y0085616D02*
X0303565Y0085616D01*
X0303565Y0086415D02*
X0334915Y0086415D01*
X0334915Y0087213D02*
X0303565Y0087213D01*
X0303565Y0088012D02*
X0334915Y0088012D01*
X0334915Y0088810D02*
X0303565Y0088810D01*
X0303565Y0089609D02*
X0334915Y0089609D01*
X0334915Y0090407D02*
X0303565Y0090407D01*
X0303565Y0091206D02*
X0334915Y0091206D01*
X0334915Y0092004D02*
X0303565Y0092004D01*
X0303565Y0092803D02*
X0334915Y0092803D01*
X0334915Y0093601D02*
X0303565Y0093601D01*
X0303565Y0094400D02*
X0334915Y0094400D01*
X0334915Y0095198D02*
X0303565Y0095198D01*
X0303565Y0095997D02*
X0315918Y0095997D01*
X0315120Y0096795D02*
X0303604Y0096795D01*
X0304284Y0097594D02*
X0314321Y0097594D01*
X0313523Y0098392D02*
X0304565Y0098392D01*
X0304565Y0099191D02*
X0312724Y0099191D01*
X0311926Y0099989D02*
X0304565Y0099989D01*
X0304565Y0100788D02*
X0311127Y0100788D01*
X0310329Y0101586D02*
X0304565Y0101586D01*
X0304565Y0102385D02*
X0309530Y0102385D01*
X0308732Y0103183D02*
X0304565Y0103183D01*
X0304565Y0103982D02*
X0307933Y0103982D01*
X0307165Y0104780D02*
X0304565Y0104780D01*
X0304565Y0105579D02*
X0307165Y0105579D01*
X0307165Y0106377D02*
X0304565Y0106377D01*
X0304565Y0107176D02*
X0307165Y0107176D01*
X0307165Y0107974D02*
X0304565Y0107974D01*
X0304565Y0108773D02*
X0307165Y0108773D01*
X0307165Y0109571D02*
X0304565Y0109571D01*
X0304565Y0110370D02*
X0307165Y0110370D01*
X0307165Y0111168D02*
X0304565Y0111168D01*
X0304565Y0111967D02*
X0307165Y0111967D01*
X0307165Y0112765D02*
X0304565Y0112765D01*
X0304565Y0113564D02*
X0307165Y0113564D01*
X0307165Y0114362D02*
X0304565Y0114362D01*
X0304565Y0115161D02*
X0307165Y0115161D01*
X0307165Y0115959D02*
X0304565Y0115959D01*
X0304565Y0116758D02*
X0307173Y0116758D01*
X0307971Y0117556D02*
X0304565Y0117556D01*
X0304565Y0118355D02*
X0308770Y0118355D01*
X0309568Y0119153D02*
X0304565Y0119153D01*
X0304565Y0119952D02*
X0310367Y0119952D01*
X0311165Y0120751D02*
X0304565Y0120751D01*
X0304565Y0121549D02*
X0311964Y0121549D01*
X0312762Y0122348D02*
X0304565Y0122348D01*
X0304565Y0123146D02*
X0313561Y0123146D01*
X0314359Y0123945D02*
X0304268Y0123945D01*
X0303566Y0124743D02*
X0315158Y0124743D01*
X0315956Y0125542D02*
X0302767Y0125542D01*
X0302565Y0126340D02*
X0334915Y0126340D01*
X0334915Y0127139D02*
X0305806Y0127139D01*
X0306465Y0127937D02*
X0334915Y0127937D01*
X0334915Y0128736D02*
X0306465Y0128736D01*
X0306465Y0129534D02*
X0334915Y0129534D01*
X0334915Y0130333D02*
X0305865Y0130333D01*
X0305865Y0131131D02*
X0334915Y0131131D01*
X0334915Y0131930D02*
X0305865Y0131930D01*
X0305865Y0132728D02*
X0334915Y0132728D01*
X0334915Y0133527D02*
X0305865Y0133527D01*
X0305865Y0134325D02*
X0334915Y0134325D01*
X0334915Y0135124D02*
X0305865Y0135124D01*
X0305865Y0135922D02*
X0334915Y0135922D01*
X0334915Y0136721D02*
X0305865Y0136721D01*
X0305865Y0137519D02*
X0334915Y0137519D01*
X0334915Y0138318D02*
X0305865Y0138318D01*
X0305865Y0139116D02*
X0334915Y0139116D01*
X0334915Y0139915D02*
X0313582Y0139915D01*
X0313117Y0139450D02*
X0314465Y0140797D01*
X0314465Y0142703D01*
X0313865Y0143303D01*
X0313865Y0156197D01*
X0314465Y0156797D01*
X0314465Y0158703D01*
X0313117Y0160050D01*
X0311212Y0160050D01*
X0309865Y0158703D01*
X0309865Y0156797D01*
X0310465Y0156197D01*
X0310465Y0143303D01*
X0309865Y0142703D01*
X0309865Y0140797D01*
X0311212Y0139450D01*
X0313117Y0139450D01*
X0314381Y0140713D02*
X0334915Y0140713D01*
X0334915Y0141512D02*
X0314465Y0141512D01*
X0314465Y0142310D02*
X0334915Y0142310D01*
X0334915Y0143109D02*
X0314059Y0143109D01*
X0313865Y0143907D02*
X0334915Y0143907D01*
X0334915Y0144706D02*
X0313865Y0144706D01*
X0313865Y0145504D02*
X0334915Y0145504D01*
X0334915Y0146303D02*
X0313865Y0146303D01*
X0313865Y0147101D02*
X0334915Y0147101D01*
X0334915Y0147900D02*
X0313865Y0147900D01*
X0313865Y0148698D02*
X0334915Y0148698D01*
X0334915Y0149497D02*
X0313865Y0149497D01*
X0313865Y0150295D02*
X0334915Y0150295D01*
X0334915Y0151094D02*
X0313865Y0151094D01*
X0313865Y0151892D02*
X0334915Y0151892D01*
X0334915Y0152691D02*
X0313865Y0152691D01*
X0313865Y0153489D02*
X0334915Y0153489D01*
X0334915Y0154288D02*
X0313865Y0154288D01*
X0313865Y0155087D02*
X0334915Y0155087D01*
X0334915Y0155885D02*
X0313865Y0155885D01*
X0314351Y0156684D02*
X0334915Y0156684D01*
X0334915Y0157482D02*
X0314465Y0157482D01*
X0314465Y0158281D02*
X0334915Y0158281D01*
X0334915Y0159079D02*
X0314088Y0159079D01*
X0313290Y0159878D02*
X0324785Y0159878D01*
X0324612Y0160050D02*
X0325212Y0159450D01*
X0327117Y0159450D01*
X0328465Y0160797D01*
X0328465Y0162703D01*
X0327117Y0164050D01*
X0325212Y0164050D01*
X0324612Y0163450D01*
X0323269Y0163450D01*
X0323865Y0164046D01*
X0323865Y0167046D01*
X0323869Y0167050D01*
X0324612Y0167050D01*
X0325212Y0166450D01*
X0327117Y0166450D01*
X0328465Y0167797D01*
X0328465Y0169703D01*
X0327117Y0171050D01*
X0325212Y0171050D01*
X0324612Y0170450D01*
X0322461Y0170450D01*
X0321465Y0169454D01*
X0320465Y0168454D01*
X0320465Y0166450D01*
X0313717Y0166450D01*
X0313117Y0167050D01*
X0311212Y0167050D01*
X0309865Y0165703D01*
X0309865Y0163797D01*
X0310212Y0163450D01*
X0305869Y0163450D01*
X0304465Y0164854D01*
X0304465Y0165703D01*
X0303117Y0167050D01*
X0301212Y0167050D01*
X0299865Y0165703D01*
X0299865Y0163797D01*
X0301212Y0162450D01*
X0302061Y0162450D01*
X0303465Y0161046D01*
X0304461Y0160050D01*
X0324612Y0160050D01*
X0327545Y0159878D02*
X0334915Y0159878D01*
X0334915Y0160676D02*
X0328344Y0160676D01*
X0328465Y0161475D02*
X0334915Y0161475D01*
X0334915Y0162273D02*
X0328465Y0162273D01*
X0328096Y0163072D02*
X0334915Y0163072D01*
X0334915Y0163870D02*
X0327297Y0163870D01*
X0325032Y0163870D02*
X0323689Y0163870D01*
X0323865Y0164669D02*
X0334915Y0164669D01*
X0334915Y0165467D02*
X0323865Y0165467D01*
X0323865Y0166266D02*
X0334915Y0166266D01*
X0334915Y0167064D02*
X0327732Y0167064D01*
X0328465Y0167863D02*
X0334915Y0167863D01*
X0334915Y0168661D02*
X0328465Y0168661D01*
X0328465Y0169460D02*
X0334915Y0169460D01*
X0334915Y0170258D02*
X0327909Y0170258D01*
X0322269Y0170258D02*
X0297065Y0170258D01*
X0297065Y0169460D02*
X0321470Y0169460D01*
X0320672Y0168661D02*
X0297065Y0168661D01*
X0297065Y0167863D02*
X0320465Y0167863D01*
X0320465Y0167064D02*
X0297065Y0167064D01*
X0297065Y0166266D02*
X0300428Y0166266D01*
X0299865Y0165467D02*
X0297065Y0165467D01*
X0297065Y0164669D02*
X0299865Y0164669D01*
X0299865Y0163870D02*
X0297065Y0163870D01*
X0297530Y0163072D02*
X0300590Y0163072D01*
X0302238Y0162273D02*
X0298329Y0162273D01*
X0299127Y0161475D02*
X0303036Y0161475D01*
X0303835Y0160676D02*
X0299926Y0160676D01*
X0301300Y0159878D02*
X0311040Y0159878D01*
X0310241Y0159079D02*
X0302212Y0159079D01*
X0302543Y0158281D02*
X0309865Y0158281D01*
X0309865Y0157482D02*
X0302565Y0157482D01*
X0302565Y0156684D02*
X0309979Y0156684D01*
X0310465Y0155885D02*
X0302565Y0155885D01*
X0302565Y0155087D02*
X0310465Y0155087D01*
X0310465Y0154288D02*
X0302565Y0154288D01*
X0302565Y0153489D02*
X0310465Y0153489D01*
X0310465Y0152691D02*
X0302565Y0152691D01*
X0302565Y0151892D02*
X0310465Y0151892D01*
X0310465Y0151094D02*
X0302565Y0151094D01*
X0302565Y0150295D02*
X0310465Y0150295D01*
X0310465Y0149497D02*
X0302565Y0149497D01*
X0302565Y0148698D02*
X0310465Y0148698D01*
X0310465Y0147900D02*
X0302565Y0147900D01*
X0302565Y0147101D02*
X0310465Y0147101D01*
X0310465Y0146303D02*
X0302565Y0146303D01*
X0302565Y0145504D02*
X0310465Y0145504D01*
X0310465Y0144706D02*
X0305962Y0144706D01*
X0306760Y0143907D02*
X0310465Y0143907D01*
X0310271Y0143109D02*
X0306965Y0143109D01*
X0306965Y0142310D02*
X0309865Y0142310D01*
X0309865Y0141512D02*
X0306679Y0141512D01*
X0305881Y0140713D02*
X0309949Y0140713D01*
X0310747Y0139915D02*
X0305865Y0139915D01*
X0302569Y0143907D02*
X0302565Y0143907D01*
X0302565Y0144706D02*
X0303368Y0144706D01*
X0297765Y0144706D02*
X0297525Y0144706D01*
X0297765Y0143907D02*
X0296726Y0143907D01*
X0295928Y0143109D02*
X0297765Y0143109D01*
X0297765Y0142310D02*
X0265291Y0142310D01*
X0265065Y0143109D02*
X0277553Y0143109D01*
X0276865Y0143907D02*
X0265065Y0143907D01*
X0265065Y0144706D02*
X0276865Y0144706D01*
X0276865Y0145504D02*
X0265065Y0145504D01*
X0265065Y0146303D02*
X0277465Y0146303D01*
X0284656Y0141512D02*
X0297765Y0141512D01*
X0297765Y0140713D02*
X0285454Y0140713D01*
X0285465Y0139915D02*
X0297765Y0139915D01*
X0295606Y0139116D02*
X0285465Y0139116D01*
X0287284Y0138318D02*
X0294338Y0138318D01*
X0293865Y0137519D02*
X0288065Y0137519D01*
X0288065Y0136721D02*
X0293765Y0136721D01*
X0293865Y0135922D02*
X0288065Y0135922D01*
X0288065Y0135124D02*
X0294397Y0135124D01*
X0297765Y0134325D02*
X0288065Y0134325D01*
X0288465Y0133527D02*
X0297765Y0133527D01*
X0297765Y0132728D02*
X0288465Y0132728D01*
X0288465Y0131930D02*
X0297765Y0131930D01*
X0295112Y0147101D02*
X0265065Y0147101D01*
X0265065Y0147900D02*
X0295465Y0147900D01*
X0295465Y0148698D02*
X0265065Y0148698D01*
X0265065Y0149497D02*
X0295465Y0149497D01*
X0295465Y0150295D02*
X0265065Y0150295D01*
X0265065Y0151094D02*
X0295465Y0151094D01*
X0295465Y0151892D02*
X0265465Y0151892D01*
X0265465Y0152691D02*
X0295465Y0152691D01*
X0295173Y0153489D02*
X0267157Y0153489D01*
X0267955Y0154288D02*
X0294865Y0154288D01*
X0294865Y0155087D02*
X0268465Y0155087D01*
X0268465Y0155885D02*
X0295047Y0155885D01*
X0295846Y0156684D02*
X0268465Y0156684D01*
X0268065Y0157482D02*
X0297746Y0157482D01*
X0296947Y0158281D02*
X0268382Y0158281D01*
X0269181Y0159079D02*
X0296149Y0159079D01*
X0295350Y0159878D02*
X0269979Y0159878D01*
X0270778Y0160676D02*
X0294552Y0160676D01*
X0293753Y0161475D02*
X0271576Y0161475D01*
X0272375Y0162273D02*
X0293265Y0162273D01*
X0290590Y0163072D02*
X0277739Y0163072D01*
X0278465Y0163870D02*
X0289865Y0163870D01*
X0289865Y0164669D02*
X0278465Y0164669D01*
X0278465Y0165467D02*
X0289865Y0165467D01*
X0290428Y0166266D02*
X0277902Y0166266D01*
X0270993Y0166266D02*
X0266902Y0166266D01*
X0267465Y0165467D02*
X0270195Y0165467D01*
X0269396Y0164669D02*
X0267465Y0164669D01*
X0267465Y0163870D02*
X0268598Y0163870D01*
X0267799Y0163072D02*
X0266865Y0163072D01*
X0266865Y0162273D02*
X0267001Y0162273D01*
X0263465Y0163072D02*
X0261865Y0163072D01*
X0261865Y0163870D02*
X0262865Y0163870D01*
X0262865Y0164669D02*
X0261865Y0164669D01*
X0261865Y0165467D02*
X0262865Y0165467D01*
X0263428Y0166266D02*
X0261865Y0166266D01*
X0261865Y0167064D02*
X0293265Y0167064D01*
X0293265Y0167863D02*
X0261865Y0167863D01*
X0261865Y0168661D02*
X0264001Y0168661D01*
X0266329Y0168661D02*
X0293265Y0168661D01*
X0293265Y0169460D02*
X0267127Y0169460D01*
X0267465Y0170258D02*
X0293265Y0170258D01*
X0293265Y0171057D02*
X0267465Y0171057D01*
X0267312Y0171855D02*
X0293265Y0171855D01*
X0293265Y0172654D02*
X0266514Y0172654D01*
X0266717Y0175049D02*
X0293265Y0175049D01*
X0293265Y0174251D02*
X0260070Y0174251D01*
X0259865Y0173452D02*
X0293265Y0173452D01*
X0293265Y0175848D02*
X0267465Y0175848D01*
X0267465Y0176646D02*
X0293265Y0176646D01*
X0293265Y0177445D02*
X0267465Y0177445D01*
X0266924Y0178243D02*
X0293265Y0178243D01*
X0293265Y0179042D02*
X0266126Y0179042D01*
X0264204Y0179042D02*
X0255126Y0179042D01*
X0255924Y0178243D02*
X0259254Y0178243D01*
X0258455Y0177445D02*
X0256465Y0177445D01*
X0256465Y0176646D02*
X0257657Y0176646D01*
X0256858Y0175848D02*
X0256465Y0175848D01*
X0256465Y0175049D02*
X0255717Y0175049D01*
X0256465Y0174251D02*
X0251070Y0174251D01*
X0250865Y0173452D02*
X0256465Y0173452D01*
X0256465Y0172654D02*
X0255514Y0172654D01*
X0256312Y0171855D02*
X0256465Y0171855D01*
X0256465Y0171057D02*
X0256465Y0171057D01*
X0256465Y0170258D02*
X0256465Y0170258D01*
X0256465Y0169460D02*
X0256127Y0169460D01*
X0256465Y0168661D02*
X0255329Y0168661D01*
X0256465Y0167863D02*
X0252865Y0167863D01*
X0252865Y0168661D02*
X0253001Y0168661D01*
X0252865Y0167064D02*
X0256465Y0167064D01*
X0256465Y0166266D02*
X0255902Y0166266D01*
X0256465Y0165467D02*
X0256465Y0165467D01*
X0256465Y0164669D02*
X0256465Y0164669D01*
X0256465Y0163870D02*
X0256465Y0163870D01*
X0256465Y0163072D02*
X0255865Y0163072D01*
X0255865Y0162273D02*
X0256465Y0162273D01*
X0256465Y0161475D02*
X0255865Y0161475D01*
X0255865Y0160676D02*
X0256465Y0160676D01*
X0256465Y0159878D02*
X0255865Y0159878D01*
X0255865Y0159079D02*
X0256090Y0159079D01*
X0261865Y0161475D02*
X0262485Y0161475D01*
X0261865Y0162273D02*
X0263284Y0162273D01*
X0259865Y0171855D02*
X0259866Y0171855D01*
X0259865Y0172654D02*
X0263816Y0172654D01*
X0263613Y0175049D02*
X0260868Y0175049D01*
X0252613Y0175049D02*
X0251868Y0175049D01*
X0252816Y0172654D02*
X0250865Y0172654D01*
X0250865Y0171855D02*
X0250866Y0171855D01*
X0247465Y0171855D02*
X0188865Y0171855D01*
X0188865Y0171057D02*
X0247465Y0171057D01*
X0247465Y0170258D02*
X0188865Y0170258D01*
X0188865Y0169460D02*
X0247465Y0169460D01*
X0247465Y0168661D02*
X0188865Y0168661D01*
X0188865Y0167863D02*
X0222025Y0167863D01*
X0221226Y0167064D02*
X0188865Y0167064D01*
X0188865Y0166266D02*
X0220865Y0166266D01*
X0220478Y0165467D02*
X0188865Y0165467D01*
X0188865Y0164669D02*
X0220465Y0164669D01*
X0220465Y0163870D02*
X0188865Y0163870D01*
X0188865Y0163072D02*
X0220465Y0163072D01*
X0220465Y0162273D02*
X0188865Y0162273D01*
X0188865Y0161475D02*
X0220465Y0161475D01*
X0220835Y0160676D02*
X0188865Y0160676D01*
X0189441Y0159878D02*
X0221633Y0159878D01*
X0222432Y0159079D02*
X0190240Y0159079D01*
X0191038Y0158281D02*
X0243265Y0158281D01*
X0243265Y0159079D02*
X0240898Y0159079D01*
X0242545Y0159878D02*
X0243265Y0159878D01*
X0243265Y0157482D02*
X0191837Y0157482D01*
X0192635Y0156684D02*
X0243265Y0156684D01*
X0243265Y0155885D02*
X0193434Y0155885D01*
X0191021Y0153489D02*
X0160465Y0153489D01*
X0160465Y0154288D02*
X0190223Y0154288D01*
X0189424Y0155087D02*
X0160081Y0155087D01*
X0159282Y0155885D02*
X0188626Y0155885D01*
X0191820Y0152691D02*
X0160358Y0152691D01*
X0159560Y0151892D02*
X0236618Y0151892D01*
X0239031Y0154288D02*
X0243265Y0154288D01*
X0243265Y0155087D02*
X0238232Y0155087D01*
X0239829Y0153489D02*
X0243265Y0153489D01*
X0243265Y0152691D02*
X0240628Y0152691D01*
X0241426Y0151892D02*
X0243265Y0151892D01*
X0243265Y0151094D02*
X0242225Y0151094D01*
X0243024Y0150295D02*
X0243265Y0150295D01*
X0247065Y0159079D02*
X0247090Y0159079D01*
X0247065Y0159878D02*
X0247465Y0159878D01*
X0247465Y0160676D02*
X0247065Y0160676D01*
X0247065Y0161475D02*
X0247465Y0161475D01*
X0247465Y0162273D02*
X0247065Y0162273D01*
X0247065Y0163072D02*
X0247465Y0163072D01*
X0247465Y0163870D02*
X0247465Y0163870D01*
X0247465Y0164669D02*
X0247465Y0164669D01*
X0247465Y0165467D02*
X0247465Y0165467D01*
X0247465Y0166266D02*
X0246902Y0166266D01*
X0247465Y0167064D02*
X0225103Y0167064D01*
X0225465Y0166266D02*
X0243428Y0166266D01*
X0242865Y0165467D02*
X0225465Y0165467D01*
X0225336Y0164669D02*
X0242865Y0164669D01*
X0242865Y0163870D02*
X0242297Y0163870D01*
X0243096Y0163072D02*
X0243265Y0163072D01*
X0240032Y0163870D02*
X0224538Y0163870D01*
X0223865Y0163072D02*
X0239234Y0163072D01*
X0247465Y0167863D02*
X0224305Y0167863D01*
X0247465Y0172654D02*
X0188865Y0172654D01*
X0188865Y0173452D02*
X0247465Y0173452D01*
X0247465Y0174251D02*
X0188865Y0174251D01*
X0188865Y0175049D02*
X0247465Y0175049D01*
X0247858Y0175848D02*
X0188865Y0175848D01*
X0188865Y0176646D02*
X0248657Y0176646D01*
X0249455Y0177445D02*
X0188865Y0177445D01*
X0188865Y0178243D02*
X0250254Y0178243D01*
X0253204Y0179042D02*
X0188865Y0179042D01*
X0188865Y0179840D02*
X0293265Y0179840D01*
X0293265Y0180639D02*
X0188865Y0180639D01*
X0188865Y0181437D02*
X0293225Y0181437D01*
X0292865Y0182236D02*
X0188865Y0182236D01*
X0188865Y0183034D02*
X0292865Y0183034D01*
X0292995Y0183833D02*
X0188865Y0183833D01*
X0188865Y0184631D02*
X0293265Y0184631D01*
X0293265Y0185430D02*
X0189097Y0185430D01*
X0189465Y0186228D02*
X0293265Y0186228D01*
X0293265Y0187027D02*
X0189465Y0187027D01*
X0189342Y0187825D02*
X0293553Y0187825D01*
X0294352Y0188624D02*
X0188543Y0188624D01*
X0185786Y0188624D02*
X0150465Y0188624D01*
X0150465Y0187825D02*
X0184988Y0187825D01*
X0184865Y0187027D02*
X0150465Y0187027D01*
X0149896Y0186228D02*
X0184865Y0186228D01*
X0185232Y0185430D02*
X0126865Y0185430D01*
X0126865Y0184631D02*
X0185465Y0184631D01*
X0185465Y0183833D02*
X0126865Y0183833D01*
X0126865Y0183034D02*
X0185465Y0183034D01*
X0185465Y0182236D02*
X0126865Y0182236D01*
X0126865Y0181437D02*
X0185465Y0181437D01*
X0185465Y0180639D02*
X0126865Y0180639D01*
X0127327Y0179840D02*
X0185465Y0179840D01*
X0185465Y0179042D02*
X0127465Y0179042D01*
X0127465Y0178243D02*
X0185465Y0178243D01*
X0185465Y0177445D02*
X0127112Y0177445D01*
X0126314Y0176646D02*
X0185465Y0176646D01*
X0185465Y0175848D02*
X0113865Y0175848D01*
X0113865Y0176646D02*
X0124016Y0176646D01*
X0123217Y0177445D02*
X0113865Y0177445D01*
X0113865Y0178243D02*
X0122865Y0178243D01*
X0122865Y0179042D02*
X0113865Y0179042D01*
X0113865Y0179840D02*
X0123002Y0179840D01*
X0123465Y0180639D02*
X0113865Y0180639D01*
X0113865Y0181437D02*
X0123465Y0181437D01*
X0123465Y0182236D02*
X0113865Y0182236D01*
X0113865Y0183034D02*
X0123465Y0183034D01*
X0123465Y0183833D02*
X0113865Y0183833D01*
X0113865Y0184631D02*
X0123465Y0184631D01*
X0123465Y0185430D02*
X0113865Y0185430D01*
X0114896Y0186228D02*
X0123465Y0186228D01*
X0123465Y0187027D02*
X0115465Y0187027D01*
X0115465Y0187825D02*
X0123465Y0187825D01*
X0123465Y0188624D02*
X0115465Y0188624D01*
X0114745Y0189422D02*
X0123465Y0189422D01*
X0113865Y0175049D02*
X0185465Y0175049D01*
X0185465Y0174251D02*
X0113917Y0174251D01*
X0114465Y0173452D02*
X0185465Y0173452D01*
X0185465Y0172654D02*
X0114465Y0172654D01*
X0114465Y0171855D02*
X0185465Y0171855D01*
X0185465Y0171057D02*
X0113724Y0171057D01*
X0137282Y0155885D02*
X0157047Y0155885D01*
X0156770Y0151892D02*
X0137560Y0151892D01*
X0091554Y0134325D02*
X0219487Y0134325D01*
X0218865Y0133527D02*
X0091713Y0133527D01*
X0091713Y0132728D02*
X0218865Y0132728D01*
X0218865Y0131930D02*
X0091713Y0131930D01*
X0091713Y0131131D02*
X0219531Y0131131D01*
X0248596Y0139915D02*
X0085790Y0139915D01*
X0087717Y0139116D02*
X0249394Y0139116D01*
X0250193Y0138318D02*
X0088952Y0138318D01*
X0089750Y0137519D02*
X0254991Y0137519D01*
X0255790Y0136721D02*
X0090549Y0136721D01*
X0090893Y0135922D02*
X0256588Y0135922D01*
X0256865Y0135124D02*
X0091223Y0135124D01*
X0062415Y0124743D02*
X0266465Y0124743D01*
X0266465Y0123945D02*
X0062415Y0123945D01*
X0062415Y0123146D02*
X0266465Y0123146D01*
X0266465Y0122348D02*
X0062415Y0122348D01*
X0062415Y0121549D02*
X0266465Y0121549D01*
X0266465Y0120751D02*
X0062415Y0120751D01*
X0062415Y0119952D02*
X0266465Y0119952D01*
X0266465Y0119153D02*
X0062415Y0119153D01*
X0062415Y0118355D02*
X0266465Y0118355D01*
X0305449Y0163870D02*
X0309865Y0163870D01*
X0309865Y0164669D02*
X0304650Y0164669D01*
X0304465Y0165467D02*
X0309865Y0165467D01*
X0310428Y0166266D02*
X0303902Y0166266D01*
X0297065Y0171057D02*
X0334915Y0171057D01*
X0334915Y0171855D02*
X0297065Y0171855D01*
X0297065Y0172654D02*
X0334915Y0172654D01*
X0334915Y0173452D02*
X0297065Y0173452D01*
X0297065Y0174251D02*
X0334915Y0174251D01*
X0334915Y0175049D02*
X0297065Y0175049D01*
X0297065Y0175848D02*
X0334915Y0175848D01*
X0334915Y0176646D02*
X0297065Y0176646D01*
X0297065Y0177445D02*
X0316470Y0177445D01*
X0315671Y0178243D02*
X0297065Y0178243D01*
X0297065Y0179042D02*
X0314873Y0179042D01*
X0314074Y0179840D02*
X0297065Y0179840D01*
X0297065Y0180639D02*
X0313276Y0180639D01*
X0312477Y0181437D02*
X0297105Y0181437D01*
X0297465Y0182236D02*
X0311679Y0182236D01*
X0310880Y0183034D02*
X0297465Y0183034D01*
X0297335Y0183833D02*
X0310082Y0183833D01*
X0309283Y0184631D02*
X0297065Y0184631D01*
X0297065Y0185430D02*
X0308485Y0185430D01*
X0307686Y0186228D02*
X0297065Y0186228D01*
X0297846Y0187027D02*
X0307165Y0187027D01*
X0307165Y0187825D02*
X0298644Y0187825D01*
X0299443Y0188624D02*
X0307165Y0188624D01*
X0307165Y0189422D02*
X0300241Y0189422D01*
X0301040Y0190221D02*
X0307165Y0190221D01*
X0307165Y0191020D02*
X0301838Y0191020D01*
X0302637Y0191818D02*
X0307165Y0191818D01*
X0307165Y0192617D02*
X0303435Y0192617D01*
X0304234Y0193415D02*
X0307165Y0193415D01*
X0307165Y0194214D02*
X0305033Y0194214D01*
X0305831Y0195012D02*
X0307165Y0195012D01*
X0307165Y0195811D02*
X0306630Y0195811D01*
X0295433Y0189422D02*
X0149745Y0189422D01*
X0137471Y0206191D02*
X0126865Y0206191D01*
X0126865Y0206990D02*
X0136865Y0206990D01*
X0136865Y0207788D02*
X0126865Y0207788D01*
X0126865Y0208587D02*
X0136865Y0208587D01*
X0137547Y0209385D02*
X0126865Y0209385D01*
X0126865Y0211781D02*
X0136881Y0211781D01*
X0136865Y0212579D02*
X0126865Y0212579D01*
X0126865Y0213378D02*
X0136865Y0213378D01*
X0137338Y0214176D02*
X0126995Y0214176D01*
X0128642Y0214975D02*
X0138137Y0214975D01*
X0140193Y0214975D02*
X0167137Y0214975D01*
X0142465Y0230945D02*
X0334915Y0230945D01*
X0334915Y0230147D02*
X0141814Y0230147D01*
X0142465Y0231744D02*
X0334915Y0231744D01*
X0334915Y0232542D02*
X0142465Y0232542D01*
X0141827Y0233341D02*
X0334915Y0233341D01*
X0334915Y0229348D02*
X0092224Y0229348D01*
X0093022Y0228550D02*
X0334915Y0228550D01*
X0334915Y0227751D02*
X0093165Y0227751D01*
X0093165Y0226953D02*
X0334915Y0226953D01*
X0334915Y0226154D02*
X0093165Y0226154D01*
X0093165Y0225355D02*
X0334915Y0225355D01*
X0334915Y0224557D02*
X0092629Y0224557D01*
X0091830Y0223758D02*
X0334915Y0223758D01*
X0334915Y0222960D02*
X0091032Y0222960D01*
X0091425Y0230147D02*
X0123364Y0230147D01*
X0153096Y0253303D02*
X0062415Y0253303D01*
X0062415Y0252505D02*
X0153894Y0252505D01*
X0154693Y0251706D02*
X0062415Y0251706D01*
X0062415Y0250908D02*
X0155491Y0250908D01*
X0156290Y0250109D02*
X0062415Y0250109D01*
X0062415Y0249311D02*
X0157276Y0249311D01*
X0092165Y0262886D02*
X0334915Y0262886D01*
X0334915Y0263684D02*
X0092165Y0263684D01*
X0092165Y0264483D02*
X0334915Y0264483D01*
X0334915Y0265281D02*
X0092165Y0265281D01*
X0092165Y0266080D02*
X0334915Y0266080D01*
X0334915Y0266878D02*
X0092165Y0266878D01*
X0092165Y0267677D02*
X0334915Y0267677D01*
X0334915Y0268475D02*
X0092165Y0268475D01*
X0092165Y0269274D02*
X0334915Y0269274D01*
X0334915Y0270072D02*
X0092165Y0270072D01*
X0092165Y0270871D02*
X0334915Y0270871D01*
X0334915Y0271669D02*
X0092165Y0271669D01*
X0092165Y0272468D02*
X0334915Y0272468D01*
X0334915Y0273266D02*
X0092165Y0273266D01*
X0092165Y0274065D02*
X0334915Y0274065D01*
X0334915Y0274863D02*
X0092165Y0274863D01*
X0092165Y0275662D02*
X0334915Y0275662D01*
X0334915Y0276460D02*
X0092165Y0276460D01*
X0092165Y0277259D02*
X0334915Y0277259D01*
X0334915Y0278057D02*
X0092165Y0278057D01*
X0092165Y0278856D02*
X0334915Y0278856D01*
X0334915Y0279654D02*
X0092165Y0279654D01*
X0092165Y0280453D02*
X0334915Y0280453D01*
X0334915Y0281251D02*
X0092165Y0281251D01*
X0092165Y0282050D02*
X0334915Y0282050D01*
X0334915Y0282848D02*
X0092165Y0282848D01*
X0092165Y0283647D02*
X0334915Y0283647D01*
X0334915Y0284445D02*
X0092165Y0284445D01*
X0092165Y0285244D02*
X0334915Y0285244D01*
X0334915Y0286042D02*
X0092165Y0286042D01*
X0092165Y0286841D02*
X0334915Y0286841D01*
X0242865Y0236535D02*
X0227202Y0236535D01*
X0228001Y0237333D02*
X0242066Y0237333D01*
X0241614Y0238132D02*
X0228465Y0238132D01*
X0228465Y0238930D02*
X0241283Y0238930D01*
X0241265Y0239729D02*
X0228439Y0239729D01*
X0227640Y0240527D02*
X0241265Y0240527D01*
X0318928Y0219766D02*
X0062415Y0219766D01*
D18*
X0064165Y0223750D03*
X0079165Y0207750D03*
X0079165Y0202750D03*
X0084165Y0202750D03*
X0089165Y0202750D03*
X0094165Y0202750D03*
X0099165Y0202750D03*
X0099165Y0207750D03*
X0094165Y0207750D03*
X0089165Y0207750D03*
X0084165Y0207750D03*
X0084165Y0197750D03*
X0089165Y0197750D03*
X0094165Y0197750D03*
X0099165Y0197750D03*
X0099165Y0192750D03*
X0099165Y0187750D03*
X0094165Y0187750D03*
X0094165Y0192750D03*
X0089165Y0192750D03*
X0089165Y0187750D03*
X0084165Y0187750D03*
X0084165Y0192750D03*
X0079165Y0192750D03*
X0079165Y0187750D03*
X0079165Y0197750D03*
X0064165Y0203750D03*
X0064165Y0183750D03*
X0084165Y0173750D03*
X0093165Y0172750D03*
X0097165Y0172750D03*
X0101165Y0172750D03*
X0105165Y0172750D03*
X0101165Y0176750D03*
X0101165Y0180750D03*
X0112165Y0172750D03*
X0125165Y0178750D03*
X0130165Y0170750D03*
X0134165Y0170750D03*
X0138165Y0170750D03*
X0148165Y0168750D03*
X0148165Y0164750D03*
X0148165Y0160750D03*
X0148165Y0156750D03*
X0148165Y0150750D03*
X0148165Y0146750D03*
X0148165Y0142750D03*
X0148165Y0138750D03*
X0148165Y0134750D03*
X0148165Y0130750D03*
X0148165Y0126750D03*
X0148165Y0122750D03*
X0148165Y0118750D03*
X0148165Y0114750D03*
X0148165Y0110750D03*
X0148165Y0106750D03*
X0148165Y0102750D03*
X0148165Y0098750D03*
X0152165Y0098750D03*
X0156165Y0098750D03*
X0160165Y0098750D03*
X0167165Y0098750D03*
X0175165Y0098750D03*
X0183165Y0098750D03*
X0191165Y0098750D03*
X0199165Y0098750D03*
X0205165Y0099750D03*
X0209165Y0099750D03*
X0213165Y0099750D03*
X0216165Y0102750D03*
X0216165Y0106750D03*
X0216165Y0110750D03*
X0216165Y0114750D03*
X0213165Y0116750D03*
X0209165Y0116750D03*
X0196165Y0128750D03*
X0191165Y0128750D03*
X0186165Y0128750D03*
X0181165Y0128750D03*
X0176165Y0128750D03*
X0176165Y0133750D03*
X0181165Y0133750D03*
X0186165Y0133750D03*
X0191165Y0133750D03*
X0196165Y0133750D03*
X0201165Y0133750D03*
X0206165Y0133750D03*
X0211165Y0133750D03*
X0211165Y0138750D03*
X0206165Y0138750D03*
X0201165Y0138750D03*
X0196165Y0138750D03*
X0191165Y0138750D03*
X0186165Y0138750D03*
X0181165Y0138750D03*
X0176165Y0138750D03*
X0176165Y0143750D03*
X0181165Y0143750D03*
X0186165Y0143750D03*
X0191165Y0143750D03*
X0196165Y0143750D03*
X0201165Y0143750D03*
X0206165Y0143750D03*
X0211165Y0143750D03*
X0216165Y0143750D03*
X0216165Y0138750D03*
X0221165Y0138750D03*
X0225165Y0136250D03*
X0221165Y0132750D03*
X0216165Y0133750D03*
X0216165Y0148750D03*
X0211165Y0148750D03*
X0206165Y0148750D03*
X0201165Y0148750D03*
X0196165Y0148750D03*
X0191165Y0148750D03*
X0186165Y0148750D03*
X0186165Y0153750D03*
X0181165Y0153750D03*
X0181165Y0148750D03*
X0176165Y0148750D03*
X0176165Y0153750D03*
X0171165Y0153750D03*
X0171165Y0148750D03*
X0166165Y0148750D03*
X0166165Y0153750D03*
X0161165Y0148750D03*
X0158165Y0153750D03*
X0161165Y0143750D03*
X0166165Y0143750D03*
X0171165Y0143750D03*
X0171165Y0138750D03*
X0171165Y0133750D03*
X0166165Y0133750D03*
X0166165Y0138750D03*
X0161165Y0138750D03*
X0161165Y0133750D03*
X0161165Y0128750D03*
X0166165Y0128750D03*
X0171165Y0128750D03*
X0170165Y0116750D03*
X0174165Y0116750D03*
X0178165Y0116750D03*
X0182165Y0116750D03*
X0166165Y0116750D03*
X0162165Y0116750D03*
X0158165Y0116750D03*
X0154165Y0116750D03*
X0136165Y0123750D03*
X0124165Y0123750D03*
X0136165Y0103750D03*
X0136165Y0087750D03*
X0143165Y0085750D03*
X0145165Y0080750D03*
X0150165Y0080750D03*
X0160165Y0080750D03*
X0175165Y0079750D03*
X0171165Y0063750D03*
X0160165Y0063750D03*
X0157165Y0052750D03*
X0148165Y0046750D03*
X0142165Y0046750D03*
X0157165Y0035750D03*
X0162165Y0037750D03*
X0162165Y0043750D03*
X0171165Y0043750D03*
X0171165Y0037750D03*
X0171165Y0031750D03*
X0181165Y0037750D03*
X0180165Y0043750D03*
X0191165Y0043750D03*
X0191165Y0031750D03*
X0211165Y0031750D03*
X0211165Y0043750D03*
X0231165Y0043750D03*
X0237165Y0048750D03*
X0233165Y0060750D03*
X0230165Y0063750D03*
X0233165Y0073750D03*
X0231165Y0078750D03*
X0232165Y0085750D03*
X0225165Y0090750D03*
X0221165Y0090750D03*
X0211165Y0078750D03*
X0203165Y0073750D03*
X0211165Y0063750D03*
X0240165Y0089750D03*
X0251165Y0095750D03*
X0253165Y0111750D03*
X0259165Y0111750D03*
X0265165Y0111750D03*
X0265165Y0117750D03*
X0265165Y0123750D03*
X0271165Y0125750D03*
X0270165Y0129750D03*
X0265165Y0129750D03*
X0269165Y0133750D03*
X0259165Y0135750D03*
X0253165Y0135750D03*
X0247165Y0135750D03*
X0247165Y0129750D03*
X0253165Y0129750D03*
X0259165Y0129750D03*
X0259165Y0123750D03*
X0253165Y0123750D03*
X0247165Y0123750D03*
X0247165Y0117750D03*
X0253165Y0117750D03*
X0259165Y0117750D03*
X0247165Y0111750D03*
X0241165Y0111750D03*
X0241165Y0117750D03*
X0241165Y0123750D03*
X0241165Y0129750D03*
X0241165Y0135750D03*
X0251165Y0152750D03*
X0254165Y0155750D03*
X0257165Y0152750D03*
X0260165Y0155750D03*
X0263165Y0152750D03*
X0266165Y0155750D03*
X0277165Y0148750D03*
X0280165Y0148750D03*
X0273165Y0145750D03*
X0279165Y0144750D03*
X0283165Y0139750D03*
X0286165Y0132750D03*
X0296165Y0136750D03*
X0304665Y0142750D03*
X0312165Y0141750D03*
X0321165Y0137750D03*
X0333165Y0143750D03*
X0327165Y0154750D03*
X0323165Y0154750D03*
X0317165Y0157750D03*
X0312165Y0157750D03*
X0306165Y0157750D03*
X0300165Y0157750D03*
X0297165Y0154750D03*
X0302165Y0164750D03*
X0312165Y0164750D03*
X0326165Y0161750D03*
X0333165Y0163750D03*
X0326165Y0168750D03*
X0322165Y0175750D03*
X0333165Y0175750D03*
X0300165Y0197750D03*
X0303165Y0200750D03*
X0306165Y0203750D03*
X0309165Y0206750D03*
X0312165Y0209750D03*
X0315165Y0212750D03*
X0315165Y0216750D03*
X0315165Y0220750D03*
X0320165Y0217750D03*
X0314165Y0224750D03*
X0309165Y0227750D03*
X0305165Y0227750D03*
X0305165Y0231750D03*
X0301165Y0229750D03*
X0297165Y0229750D03*
X0293165Y0229750D03*
X0289165Y0229750D03*
X0285165Y0229750D03*
X0281165Y0229750D03*
X0281165Y0233750D03*
X0285165Y0233750D03*
X0285165Y0237750D03*
X0285165Y0241750D03*
X0289165Y0241750D03*
X0293165Y0241750D03*
X0297165Y0241750D03*
X0300165Y0243750D03*
X0300165Y0247750D03*
X0302165Y0251750D03*
X0306165Y0251750D03*
X0310165Y0251750D03*
X0310165Y0255750D03*
X0314165Y0255750D03*
X0318165Y0255750D03*
X0318165Y0259750D03*
X0322165Y0259750D03*
X0326165Y0259750D03*
X0330165Y0259750D03*
X0328165Y0255750D03*
X0333165Y0255750D03*
X0323165Y0255750D03*
X0331165Y0271750D03*
X0331165Y0285750D03*
X0311165Y0285750D03*
X0297165Y0275750D03*
X0291165Y0285750D03*
X0285165Y0275750D03*
X0273165Y0275750D03*
X0271165Y0285750D03*
X0261165Y0275750D03*
X0249165Y0275750D03*
X0251165Y0285750D03*
X0237165Y0275750D03*
X0225165Y0275750D03*
X0231165Y0285750D03*
X0213165Y0275750D03*
X0211165Y0285750D03*
X0201165Y0275750D03*
X0189165Y0275750D03*
X0177165Y0275750D03*
X0171165Y0275750D03*
X0167165Y0278750D03*
X0163165Y0278750D03*
X0171165Y0281750D03*
X0171165Y0285750D03*
X0151165Y0285750D03*
X0131165Y0285750D03*
X0111165Y0285750D03*
X0093165Y0285750D03*
X0093165Y0263750D03*
X0105165Y0263750D03*
X0109165Y0263750D03*
X0113165Y0263750D03*
X0117165Y0263750D03*
X0142165Y0264750D03*
X0142165Y0268750D03*
X0167165Y0260750D03*
X0171165Y0257750D03*
X0167165Y0254750D03*
X0171165Y0251750D03*
X0177165Y0251750D03*
X0189165Y0251750D03*
X0201165Y0251750D03*
X0213165Y0251750D03*
X0225165Y0251750D03*
X0237165Y0251750D03*
X0249165Y0251750D03*
X0261165Y0251750D03*
X0273165Y0251750D03*
X0285165Y0251750D03*
X0297165Y0251750D03*
X0281165Y0241750D03*
X0281165Y0237750D03*
X0263165Y0236750D03*
X0263165Y0240750D03*
X0263165Y0232750D03*
X0263165Y0228750D03*
X0263165Y0224750D03*
X0263165Y0220750D03*
X0265165Y0216750D03*
X0269165Y0216750D03*
X0273165Y0216750D03*
X0277165Y0216750D03*
X0281165Y0216750D03*
X0285165Y0216750D03*
X0289165Y0216750D03*
X0293165Y0216750D03*
X0297165Y0216750D03*
X0301165Y0216750D03*
X0305165Y0216750D03*
X0307165Y0219750D03*
X0321165Y0231750D03*
X0325165Y0231750D03*
X0329165Y0231750D03*
X0333165Y0231750D03*
X0333165Y0227750D03*
X0333165Y0235750D03*
X0328165Y0235750D03*
X0323165Y0235750D03*
X0318165Y0234750D03*
X0315165Y0237750D03*
X0273165Y0263750D03*
X0261165Y0263750D03*
X0249165Y0263750D03*
X0237165Y0263750D03*
X0225165Y0263750D03*
X0213165Y0263750D03*
X0201165Y0263750D03*
X0191165Y0285750D03*
X0171165Y0269750D03*
X0171165Y0263750D03*
X0160165Y0240750D03*
X0167165Y0236750D03*
X0173165Y0236750D03*
X0177165Y0236750D03*
X0181165Y0236750D03*
X0185165Y0236750D03*
X0189165Y0236750D03*
X0193165Y0236750D03*
X0193165Y0232750D03*
X0193165Y0228750D03*
X0193165Y0224750D03*
X0193165Y0220750D03*
X0193165Y0216750D03*
X0193165Y0212750D03*
X0193165Y0208750D03*
X0193165Y0204750D03*
X0197165Y0204750D03*
X0201165Y0204750D03*
X0205165Y0204750D03*
X0209165Y0204750D03*
X0213165Y0204750D03*
X0217165Y0204750D03*
X0221165Y0204750D03*
X0225165Y0204750D03*
X0228165Y0201750D03*
X0231165Y0198750D03*
X0235165Y0194750D03*
X0238165Y0191750D03*
X0242165Y0191750D03*
X0246165Y0191750D03*
X0250165Y0191750D03*
X0254165Y0191750D03*
X0258165Y0191750D03*
X0262165Y0191750D03*
X0266165Y0191750D03*
X0270165Y0191750D03*
X0274165Y0191750D03*
X0278165Y0191750D03*
X0282165Y0191750D03*
X0286165Y0191750D03*
X0290165Y0191750D03*
X0294165Y0191750D03*
X0297165Y0194750D03*
X0295165Y0182750D03*
X0287165Y0177750D03*
X0276165Y0172750D03*
X0265165Y0170750D03*
X0265165Y0164750D03*
X0276165Y0164750D03*
X0287165Y0164750D03*
X0292165Y0164750D03*
X0265165Y0176750D03*
X0254165Y0176750D03*
X0254165Y0170750D03*
X0254165Y0164750D03*
X0245165Y0164750D03*
X0241165Y0161750D03*
X0248165Y0155750D03*
X0223165Y0165750D03*
X0217165Y0166750D03*
X0217165Y0170750D03*
X0217165Y0174750D03*
X0217165Y0178750D03*
X0217165Y0182750D03*
X0217165Y0186750D03*
X0217165Y0190750D03*
X0205165Y0184750D03*
X0201165Y0184750D03*
X0197165Y0184750D03*
X0193165Y0184750D03*
X0193165Y0188750D03*
X0193165Y0192750D03*
X0193165Y0196750D03*
X0193165Y0200750D03*
X0187165Y0186750D03*
X0201165Y0180750D03*
X0205165Y0180750D03*
X0205165Y0176750D03*
X0201165Y0176750D03*
X0217165Y0162750D03*
X0217165Y0158750D03*
X0213165Y0158750D03*
X0209165Y0158750D03*
X0205165Y0158750D03*
X0201165Y0158750D03*
X0174165Y0175750D03*
X0170165Y0175750D03*
X0166165Y0175750D03*
X0162165Y0175750D03*
X0158165Y0175750D03*
X0154165Y0175750D03*
X0150165Y0175750D03*
X0148165Y0172750D03*
X0148165Y0187750D03*
X0139165Y0187750D03*
X0136165Y0197750D03*
X0132165Y0202750D03*
X0139165Y0207750D03*
X0139165Y0212750D03*
X0133165Y0212750D03*
X0135165Y0217750D03*
X0127165Y0216750D03*
X0122165Y0217750D03*
X0122165Y0220750D03*
X0135165Y0227750D03*
X0140165Y0231750D03*
X0136165Y0234750D03*
X0136165Y0238750D03*
X0146165Y0231750D03*
X0146165Y0227750D03*
X0146165Y0223750D03*
X0146165Y0219750D03*
X0154165Y0231750D03*
X0168165Y0212750D03*
X0164165Y0202750D03*
X0152165Y0197750D03*
X0113165Y0187750D03*
X0084165Y0164750D03*
X0064165Y0163750D03*
X0064165Y0143750D03*
X0064165Y0123750D03*
X0064165Y0103750D03*
X0064165Y0083750D03*
X0064165Y0063750D03*
X0071165Y0052750D03*
X0064165Y0043750D03*
X0090165Y0057750D03*
X0099165Y0065750D03*
X0103165Y0065750D03*
X0107165Y0065750D03*
X0111165Y0065750D03*
X0107165Y0069750D03*
X0107165Y0073750D03*
X0119165Y0070750D03*
X0119165Y0087750D03*
X0090165Y0066750D03*
X0117228Y0052813D03*
X0111165Y0033750D03*
X0093165Y0033750D03*
X0093165Y0016750D03*
X0111165Y0016750D03*
X0131165Y0016750D03*
X0136165Y0031750D03*
X0151165Y0031750D03*
X0151165Y0016750D03*
X0171165Y0016750D03*
X0191165Y0016750D03*
X0211165Y0016750D03*
X0231165Y0016750D03*
X0241165Y0028750D03*
X0238165Y0031750D03*
X0231165Y0031750D03*
X0252165Y0034750D03*
X0252165Y0043750D03*
X0252165Y0051750D03*
X0263165Y0055750D03*
X0266165Y0060750D03*
X0271165Y0054750D03*
X0267165Y0048750D03*
X0281165Y0043750D03*
X0286165Y0033750D03*
X0271165Y0033750D03*
X0271165Y0016750D03*
X0251165Y0016750D03*
X0291165Y0016750D03*
X0311165Y0016750D03*
X0324165Y0027750D03*
X0329165Y0027750D03*
X0333165Y0033750D03*
X0333165Y0043750D03*
X0310165Y0045750D03*
X0308165Y0033750D03*
X0331165Y0016750D03*
X0282165Y0054750D03*
X0282165Y0063750D03*
X0289165Y0065750D03*
X0292165Y0068750D03*
X0306165Y0058750D03*
X0333165Y0063750D03*
X0333165Y0079750D03*
X0328165Y0079750D03*
X0328165Y0090750D03*
X0333165Y0090750D03*
X0333165Y0094750D03*
X0317165Y0094750D03*
X0307165Y0096750D03*
X0300165Y0096750D03*
X0293165Y0096750D03*
X0287165Y0095750D03*
X0283165Y0095750D03*
X0282165Y0091750D03*
X0279165Y0088750D03*
X0273165Y0089750D03*
X0291165Y0083750D03*
X0311165Y0083750D03*
X0269165Y0073750D03*
X0254165Y0077750D03*
X0250165Y0077750D03*
X0252165Y0067750D03*
X0226165Y0111250D03*
X0286165Y0118250D03*
X0298165Y0116250D03*
X0298165Y0120250D03*
X0304165Y0128750D03*
X0310165Y0121750D03*
X0333165Y0126750D03*
X0246165Y0184750D03*
X0242165Y0184750D03*
X0241165Y0216750D03*
X0245165Y0216750D03*
X0249165Y0216750D03*
X0253165Y0216750D03*
X0257165Y0216750D03*
X0261165Y0216750D03*
X0237165Y0216750D03*
X0237165Y0220750D03*
X0233165Y0216750D03*
X0229165Y0216750D03*
X0225165Y0216750D03*
X0221165Y0216750D03*
X0217165Y0216750D03*
X0213165Y0216750D03*
X0209165Y0216750D03*
X0205165Y0216750D03*
X0215165Y0220750D03*
X0215165Y0224750D03*
X0215165Y0228750D03*
X0215165Y0232750D03*
X0215165Y0236750D03*
X0219165Y0236750D03*
X0226165Y0238750D03*
X0237165Y0236750D03*
X0237165Y0232750D03*
X0237165Y0228750D03*
X0237165Y0224750D03*
X0311165Y0271750D03*
X0323165Y0207750D03*
X0333165Y0207750D03*
X0136165Y0153750D03*
X0136165Y0143750D03*
X0124165Y0143750D03*
X0098165Y0234750D03*
X0089165Y0233750D03*
X0089165Y0237750D03*
X0089165Y0241750D03*
X0089165Y0245750D03*
X0089165Y0249750D03*
X0064165Y0243750D03*
X0064165Y0259750D03*
D19*
X0105665Y0217250D03*
X0105665Y0212250D03*
X0110665Y0212250D03*
X0110665Y0217250D03*
D20*
X0125165Y0214750D02*
X0127165Y0216750D01*
X0125165Y0214750D02*
X0125165Y0178750D01*
X0112165Y0172750D02*
X0112165Y0186750D01*
X0113165Y0187750D01*
X0136165Y0197750D02*
X0152165Y0197750D01*
X0148165Y0187750D02*
X0139165Y0187750D01*
X0139165Y0207750D02*
X0159165Y0207750D01*
X0164165Y0202750D01*
X0168165Y0212750D02*
X0139165Y0212750D01*
X0140165Y0231750D02*
X0124165Y0231750D01*
X0121165Y0234750D01*
X0098165Y0234750D01*
X0160165Y0240750D02*
X0224165Y0240750D01*
X0226165Y0238750D01*
X0187165Y0186750D02*
X0187165Y0159750D01*
X0193165Y0153750D01*
X0237165Y0153750D01*
X0251165Y0139750D01*
X0255165Y0139750D01*
X0259165Y0135750D01*
X0262165Y0132750D02*
X0221165Y0132750D01*
X0251165Y0152750D02*
X0251165Y0169750D01*
X0252165Y0170750D01*
X0254165Y0170750D01*
X0258165Y0174750D02*
X0260165Y0176750D01*
X0265165Y0176750D01*
X0265165Y0170750D02*
X0261165Y0170750D01*
X0260165Y0169750D01*
X0260165Y0155750D01*
X0258165Y0158750D02*
X0258165Y0174750D01*
X0254165Y0176750D02*
X0251165Y0176750D01*
X0249165Y0174750D01*
X0249165Y0158750D01*
X0248165Y0157750D01*
X0248165Y0155750D01*
X0254165Y0155750D02*
X0254165Y0164750D01*
X0258165Y0158750D02*
X0257165Y0157750D01*
X0257165Y0152750D01*
X0263165Y0152750D02*
X0263165Y0159750D01*
X0265165Y0161750D01*
X0265165Y0164750D01*
X0241165Y0161750D02*
X0240165Y0160750D01*
X0223165Y0160750D01*
X0222165Y0161750D01*
X0222165Y0164750D01*
X0223165Y0165750D01*
X0262165Y0132750D02*
X0263165Y0133750D01*
X0269165Y0133750D01*
X0270165Y0129750D02*
X0268165Y0127750D01*
X0268165Y0099750D01*
X0279165Y0088750D01*
X0279165Y0091750D02*
X0282165Y0091750D01*
X0279165Y0091750D02*
X0270165Y0100750D01*
X0270165Y0124750D01*
X0271165Y0125750D01*
X0279165Y0144750D02*
X0295165Y0144750D01*
X0297165Y0146750D01*
X0297165Y0154750D01*
X0305165Y0161750D02*
X0326165Y0161750D01*
X0322165Y0164750D02*
X0322165Y0167750D01*
X0323165Y0168750D01*
X0326165Y0168750D01*
X0322165Y0164750D02*
X0312165Y0164750D01*
X0305165Y0161750D02*
X0302165Y0164750D01*
X0312165Y0157750D02*
X0312165Y0141750D01*
X0304665Y0142250D02*
X0304165Y0141750D01*
X0304165Y0128750D01*
X0304665Y0142250D02*
X0304665Y0142750D01*
X0295165Y0186750D02*
X0320165Y0211750D01*
X0320165Y0217750D01*
X0158165Y0153750D02*
X0136165Y0153750D01*
X0175165Y0079750D02*
X0175165Y0065750D01*
X0180165Y0060750D01*
X0185165Y0060750D01*
X0190165Y0055750D01*
X0263165Y0055750D01*
X0266165Y0060750D02*
X0233165Y0060750D01*
X0237165Y0048750D02*
X0267165Y0048750D01*
X0271165Y0054750D02*
X0281165Y0043750D01*
X0289165Y0029750D02*
X0289165Y0065750D01*
X0292165Y0068750D02*
X0292165Y0027750D01*
X0242165Y0027750D01*
X0241165Y0028750D01*
X0242165Y0031750D02*
X0244165Y0029750D01*
X0289165Y0029750D01*
X0242165Y0031750D02*
X0238165Y0031750D01*
X0190165Y0075750D02*
X0185165Y0070750D01*
X0190165Y0075750D02*
X0201165Y0075750D01*
X0203165Y0073750D01*
X0233165Y0073750D02*
X0269165Y0073750D01*
X0273165Y0089750D02*
X0240165Y0089750D01*
X0157165Y0052750D02*
X0157165Y0035750D01*
D21*
X0179165Y0085750D03*
D22*
X0143165Y0085750D01*
X0117165Y0059750D01*
X0117165Y0057750D01*
X0117228Y0052813D01*
X0113165Y0044750D02*
X0135165Y0022750D01*
X0294165Y0022750D01*
X0300165Y0028750D01*
X0300165Y0096750D01*
X0241165Y0111750D02*
X0232165Y0102750D01*
X0232165Y0085750D01*
X0113165Y0044750D02*
X0079165Y0044750D01*
X0071165Y0052750D01*
D23*
X0245165Y0148750D02*
X0245165Y0164750D01*
X0263165Y0152750D02*
X0263165Y0141750D01*
X0265165Y0139750D01*
X0283165Y0139750D01*
X0286165Y0136750D02*
X0264165Y0136750D01*
X0259165Y0141750D01*
X0252165Y0141750D01*
X0245165Y0148750D01*
X0266165Y0155750D02*
X0266165Y0158750D01*
X0272165Y0164750D01*
X0276165Y0164750D01*
X0295165Y0162750D02*
X0295165Y0182750D01*
X0295165Y0186750D01*
X0295165Y0162750D02*
X0300165Y0157750D01*
X0286165Y0136750D02*
X0286165Y0132750D01*
D24*
X0245165Y0239750D02*
X0245165Y0244750D01*
X0189165Y0244750D01*
X0159165Y0252750D02*
X0154165Y0257750D01*
X0092165Y0257750D01*
D25*
X0092165Y0257750D03*
X0159165Y0252750D03*
X0189165Y0244750D03*
X0245165Y0239750D03*
D26*
X0300165Y0157750D02*
X0300165Y0136750D01*
X0300165Y0124750D01*
X0302165Y0122750D01*
X0302165Y0098750D01*
X0300165Y0096750D01*
X0300165Y0136750D02*
X0296165Y0136750D01*
M02*
