%
M48
M72
T01C0.0100
T02C0.0138
T03C0.0157
T04C0.0197
T05C0.0360
T06C0.0400
T07C0.0900
T08C0.1181
T09C0.1200
%
T01
X6416Y4375
X7116Y5275
X6416Y6375
X6416Y8375
X9016Y6675
X9916Y6575
X10316Y6575
X10716Y6575
X11116Y6575
X10716Y6975
X10716Y7375
X11916Y7075
X14516Y8075
X15016Y8075
X14316Y8575
X13616Y8775
X14816Y9875
X14816Y10275
X15216Y9875
X15616Y9875
X16016Y9875
X16716Y9875
X17516Y9875
X18316Y9875
X19116Y9875
X19916Y9875
X20516Y9975
X20916Y9975
X21316Y9975
X21616Y10275
X21616Y10675
X21616Y11075
X21616Y11475
X21316Y11675
X20916Y11675
X19616Y12875
X19116Y12875
X18616Y12875
X18116Y12875
X17616Y12875
X17116Y12875
X16616Y12875
X16116Y12875
X16116Y13375
X16116Y13875
X16616Y13875
X16616Y13375
X17116Y13375
X17116Y13875
X17116Y14375
X16616Y14375
X16116Y14375
X16116Y14875
X16616Y14875
X16616Y15375
X17116Y15375
X17116Y14875
X17616Y14875
X17616Y15375
X18116Y15375
X18116Y14875
X18616Y14875
X18616Y15375
X19116Y14875
X19616Y14875
X20116Y14875
X20616Y14875
X21116Y14875
X21116Y14375
X20616Y14375
X20116Y14375
X19616Y14375
X19116Y14375
X18616Y14375
X18116Y14375
X17616Y14375
X17616Y13875
X17616Y13375
X18116Y13375
X18116Y13875
X18616Y13875
X18616Y13375
X19116Y13375
X19116Y13875
X19616Y13875
X19616Y13375
X20116Y13375
X20116Y13875
X20616Y13875
X20616Y13375
X21116Y13375
X21116Y13875
X21616Y13875
X21616Y13375
X22116Y13275
X22516Y13625
X22116Y13875
X21616Y14375
X21616Y14875
X21716Y15875
X21316Y15875
X20916Y15875
X20516Y15875
X20116Y15875
X21716Y16275
X22316Y16575
X21716Y16675
X21716Y17075
X21716Y17475
X21716Y17875
X21716Y18275
X21716Y18675
X21716Y19075
X20516Y18475
X20116Y18475
X19716Y18475
X19316Y18475
X19316Y18875
X19316Y19275
X19316Y19675
X19316Y20075
X19316Y20475
X19716Y20475
X20116Y20475
X20516Y20475
X20916Y20475
X21316Y20475
X21716Y20475
X22116Y20475
X22516Y20475
X22816Y20175
X23116Y19875
X23516Y19475
X23816Y19175
X24216Y19175
X24616Y19175
X25016Y19175
X25416Y19175
X25816Y19175
X26216Y19175
X26616Y19175
X27016Y19175
X27416Y19175
X27816Y19175
X28216Y19175
X28616Y19175
X29016Y19175
X29416Y19175
X29716Y19475
X30016Y19775
X30316Y20075
X30616Y20375
X30916Y20675
X31216Y20975
X31516Y21275
X31516Y21675
X31516Y22075
X32016Y21775
X31416Y22475
X30916Y22775
X30516Y22775
X30516Y23175
X30116Y22975
X29716Y22975
X29316Y22975
X28916Y22975
X28516Y22975
X28116Y22975
X28116Y23375
X28116Y23775
X28116Y24175
X28516Y24175
X28516Y23775
X28516Y23375
X28916Y24175
X29316Y24175
X29716Y24175
X30016Y24375
X30016Y24775
X30216Y25175
X30616Y25175
X31016Y25175
X31016Y25575
X31416Y25575
X31816Y25575
X31816Y25975
X32216Y25975
X32616Y25975
X33016Y25975
X32816Y25575
X32316Y25575
X33316Y25575
X33116Y27175
X33116Y28575
X31116Y28575
X29716Y27575
X29116Y28575
X28516Y27575
X27316Y27575
X27116Y28575
X26116Y27575
X24916Y27575
X25116Y28575
X23716Y27575
X22516Y27575
X23116Y28575
X21316Y27575
X21116Y28575
X20116Y27575
X18916Y27575
X17716Y27575
X17116Y27575
X16716Y27875
X16316Y27875
X17116Y28175
X17116Y28575
X15116Y28575
X13116Y28575
X11116Y28575
X9316Y28575
X9316Y26375
X10516Y26375
X10916Y26375
X11316Y26375
X11716Y26375
X14216Y26475
X14216Y26875
X16716Y26075
X17116Y25775
X16716Y25475
X17116Y25175
X17716Y25175
X18916Y25175
X20116Y25175
X21316Y25175
X22516Y25175
X23716Y25175
X24916Y25175
X26116Y25175
X27316Y25175
X28516Y25175
X29716Y25175
X31516Y23775
X31816Y23475
X32116Y23175
X32516Y23175
X32916Y23175
X33316Y23175
X33316Y22775
X33316Y23575
X32816Y23575
X32316Y23575
X30716Y21975
X30516Y21675
X30116Y21675
X29716Y21675
X29316Y21675
X28916Y21675
X28516Y21675
X28116Y21675
X27716Y21675
X27316Y21675
X26916Y21675
X26516Y21675
X26116Y21675
X25716Y21675
X25316Y21675
X24916Y21675
X24516Y21675
X24116Y21675
X23716Y21675
X23316Y21675
X22916Y21675
X22516Y21675
X22116Y21675
X21716Y21675
X21316Y21675
X20916Y21675
X20516Y21675
X21516Y22075
X21516Y22475
X21516Y22875
X21516Y23275
X21516Y23675
X21916Y23675
X22616Y23875
X23716Y23675
X23716Y23275
X23716Y22875
X23716Y22475
X23716Y22075
X26316Y22075
X26316Y22475
X26316Y22875
X26316Y23275
X26316Y23675
X26316Y24075
X26116Y26375
X24916Y26375
X23716Y26375
X22516Y26375
X21316Y26375
X20116Y26375
X19116Y28575
X17116Y26975
X17116Y26375
X16016Y24075
X16716Y23675
X17316Y23675
X17716Y23675
X18116Y23675
X18516Y23675
X18916Y23675
X19316Y23675
X19316Y23275
X19316Y22875
X19316Y22475
X19316Y22075
X19316Y21675
X19316Y21275
X19316Y20875
X16816Y21275
X16416Y20275
X15216Y19775
X14816Y18775
X13916Y18775
X13616Y19775
X13216Y20275
X13916Y20775
X13916Y21275
X13316Y21275
X13516Y21775
X12716Y21675
X12216Y21775
X12216Y22075
X13516Y22775
X14016Y23175
X13616Y23475
X13616Y23875
X14616Y23175
X14616Y22775
X14616Y22375
X14616Y21975
X15416Y23175
X9816Y23475
X8916Y23375
X8916Y23775
X8916Y24175
X8916Y24575
X8916Y24975
X6416Y24375
X6416Y25975
X6416Y22375
X7916Y20775
X7916Y20275
X7916Y19775
X7916Y19275
X7916Y18775
X8416Y18775
X8416Y19275
X8916Y19275
X8916Y18775
X9416Y18775
X9416Y19275
X9916Y19275
X9916Y18775
X10116Y18075
X10116Y17675
X10116Y17275
X9716Y17275
X9316Y17275
X8416Y17375
X8416Y16475
X10516Y17275
X11216Y17275
X12516Y17875
X13016Y17075
X13416Y17075
X13816Y17075
X14816Y16875
X14816Y16475
X14816Y16075
X14816Y15675
X14816Y15075
X14816Y14675
X14816Y14275
X14816Y13875
X14816Y13475
X14816Y13075
X14816Y12675
X14816Y12275
X14816Y11875
X14816Y11475
X14816Y11075
X14816Y10675
X15416Y11675
X15816Y11675
X16216Y11675
X16616Y11675
X17016Y11675
X17416Y11675
X17816Y11675
X18216Y11675
X22116Y9075
X22516Y9075
X23216Y8575
X23116Y7875
X23316Y7375
X23016Y6375
X23316Y6075
X23716Y4875
X23116Y4375
X23116Y3175
X23816Y3175
X24116Y2875
X25216Y3475
X25216Y4375
X25216Y5175
X26316Y5575
X26616Y6075
X27116Y5475
X26716Y4875
X28116Y4375
X28616Y3375
X27116Y3375
X27116Y1675
X25116Y1675
X23116Y1675
X21116Y1675
X19116Y1675
X19116Y3175
X18116Y3775
X18016Y4375
X17116Y4375
X17116Y3775
X17116Y3175
X16216Y3775
X15716Y3575
X15116Y3175
X13616Y3175
X13116Y1675
X11116Y1675
X9316Y1675
X9316Y3375
X11116Y3375
X11723Y5281
X14216Y4675
X14816Y4675
X15716Y5275
X16216Y4375
X16016Y6375
X17116Y6375
X17516Y7975
X16016Y8075
X13616Y10375
X11916Y8775
X9016Y5775
X15116Y1675
X17116Y1675
X19116Y4375
X21116Y4375
X21116Y3175
X21116Y6375
X20316Y7375
X21116Y7875
X24016Y8975
X25116Y9575
X25316Y11175
X24716Y11175
X24116Y11175
X24116Y11775
X24116Y12375
X24116Y12975
X24116Y13575
X24716Y13575
X25316Y13575
X25916Y13575
X25916Y12975
X25316Y12975
X24716Y12975
X24716Y12375
X25316Y12375
X25916Y12375
X25916Y11775
X25316Y11775
X24716Y11775
X25916Y11175
X26516Y11175
X26516Y11775
X26516Y12375
X27116Y12575
X27016Y12975
X26516Y12975
X26916Y13375
X27916Y14475
X27316Y14575
X27716Y14875
X28016Y14875
X28316Y13975
X28616Y13275
X29616Y13675
X30466Y14275
X31216Y14175
X32116Y13775
X33316Y14375
X32716Y15475
X32316Y15475
X31716Y15775
X31216Y15775
X30616Y15775
X30016Y15775
X29716Y15475
X29216Y16475
X28716Y16475
X27616Y16475
X26516Y16475
X26516Y17075
X26516Y17675
X27616Y17275
X28716Y17775
X29516Y18275
X30216Y16475
X31216Y16475
X32616Y16175
X33316Y16375
X32616Y16875
X32216Y17575
X33316Y17575
X33316Y20775
X32316Y20775
X25416Y17675
X25416Y17075
X25416Y16475
X24516Y16475
X24116Y16175
X24816Y15575
X25116Y15275
X25416Y15575
X25716Y15275
X26016Y15575
X26316Y15275
X26616Y15575
X30416Y12875
X31016Y12175
X29816Y12025
X29816Y11625
X28616Y11825
X28716Y9575
X28316Y9575
X28216Y9175
X27916Y8875
X27316Y8975
X29116Y8375
X29316Y9675
X30016Y9675
X30716Y9675
X31716Y9475
X32816Y9075
X33316Y9075
X33316Y9475
X33316Y7975
X32816Y7975
X31116Y8375
X29216Y6875
X28916Y6575
X28216Y6375
X28216Y5475
X30616Y5875
X31016Y4575
X30816Y3375
X32416Y2775
X32916Y2775
X33316Y3375
X33316Y4375
X33316Y6375
X26916Y7375
X25416Y7775
X25016Y7775
X25216Y6775
X22616Y11125
X15816Y15375
X13616Y15375
X13616Y14375
X12416Y14375
X12416Y12375
X13616Y12375
X6416Y12375
X6416Y10375
X6416Y14375
X6416Y16375
X6416Y18375
X8416Y19775
X8916Y19775
X9416Y19775
X9916Y19775
X9916Y20275
X9416Y20275
X8916Y20275
X8416Y20275
X8416Y20775
X8916Y20775
X9416Y20775
X9916Y20775
X11316Y18775
X14816Y17275
X15016Y17575
X15416Y17575
X15816Y17575
X16216Y17575
X16616Y17575
X17016Y17575
X17416Y17575
X18716Y18675
X20116Y18075
X20116Y17675
X20516Y17675
X20516Y18075
X24216Y18475
X24616Y18475
X33316Y12675
X33116Y1675
X31116Y1675
X29116Y1675
X6416Y20375
X27316Y26375
X31116Y27175
T02
X17916Y8575
T03
X11066Y21225
X11066Y21725
X10566Y21725
X10566Y21225
T04
X15916Y25275
X18916Y24475
X24516Y23975
X9216Y25775
T05
X9491Y11367
X10271Y11367
X10271Y10383
X9491Y10383
T06
X18516Y7075
X19516Y7075
X19516Y6075
X18516Y6075
X18516Y5075
X19516Y5075
X8916Y22675
X10216Y27475
T07
X8421Y13245
X8421Y8505
T08
X18480Y26375
X28953Y26375
T09
X32366Y19188
X32366Y11063
X7679Y2625
X7679Y27625
M30
