%
M48
M72
T01C0.0100
T02C0.0138
T03C0.0157
T04C0.0360
T05C0.0400
T06C0.0900
T07C0.1181
T08C0.1200
%
T01
X6416Y4375
X7016Y4975
X8416Y4375
X9316Y3375
X11116Y3375
X11723Y4981
X11016Y6275
X10616Y6275
X10216Y6275
X9816Y6275
X10616Y6675
X10616Y7075
X8916Y6375
X8916Y5475
X6416Y6375
X6416Y8375
X8416Y8375
X10416Y8575
X11916Y8775
X13616Y8775
X14316Y8575
X14716Y8075
X16016Y8075
X17516Y7975
X17116Y6375
X16016Y6375
X15716Y5275
X14816Y4675
X14216Y4675
X15716Y3575
X16216Y3775
X16216Y4375
X17116Y4375
X17116Y3775
X17116Y3175
X18116Y3775
X18016Y4375
X19116Y4375
X19116Y3175
X21116Y3175
X21116Y4375
X23116Y4375
X23716Y3975
X23716Y3075
X24116Y2775
X23116Y3175
X23116Y1675
X21116Y1675
X19116Y1675
X17116Y1675
X15116Y1675
X15116Y3175
X13616Y3175
X13116Y1675
X11116Y1675
X9316Y1675
X13616Y6575
X14816Y9875
X14816Y10275
X15216Y9875
X15616Y9875
X16016Y9875
X16716Y9875
X17516Y9875
X18316Y9875
X19116Y9875
X19916Y9875
X20916Y9975
X21316Y9975
X21616Y10275
X21616Y10675
X21616Y11075
X21616Y11475
X21316Y11675
X20916Y11675
X19616Y12875
X19116Y12875
X18616Y12875
X18116Y12875
X17616Y12875
X17116Y12875
X16616Y12875
X16116Y12875
X16116Y13375
X16116Y13875
X16616Y13875
X16616Y13375
X17116Y13375
X17116Y13875
X17116Y14375
X16616Y14375
X16116Y14375
X16116Y14875
X15816Y15275
X15816Y15775
X15316Y15775
X14816Y16475
X14816Y16875
X14816Y17275
X15016Y17575
X15416Y17575
X15816Y17575
X16216Y17575
X16616Y17575
X17016Y17575
X17416Y17575
X18716Y16375
X18116Y15875
X17616Y15875
X17616Y15375
X17616Y14875
X18116Y14875
X18116Y15375
X18616Y15375
X18616Y14875
X19116Y14875
X19616Y14875
X20116Y14875
X20616Y14875
X21116Y14875
X21116Y14375
X20616Y14375
X20116Y14375
X19616Y14375
X19116Y14375
X18616Y14375
X18116Y14375
X17616Y14375
X17616Y13875
X17616Y13375
X18116Y13375
X18116Y13875
X18616Y13875
X18616Y13375
X19116Y13375
X19116Y13875
X19616Y13875
X19616Y13375
X20116Y13375
X20116Y13875
X20616Y13875
X20616Y13375
X21116Y13375
X21116Y13875
X21616Y13875
X21616Y13375
X22116Y13375
X22116Y13875
X22616Y13625
X21616Y14375
X21616Y14875
X21716Y15875
X21316Y15875
X20916Y15875
X20516Y15875
X20116Y15875
X19516Y16375
X19716Y17675
X20116Y17675
X20516Y17675
X20516Y18075
X20516Y18475
X20116Y18475
X19716Y18475
X19316Y18475
X19216Y18875
X19216Y19275
X19216Y19675
X19216Y20075
X19216Y20475
X19616Y20475
X20016Y20475
X20416Y20475
X20816Y20475
X21216Y20475
X21616Y20475
X22016Y20475
X22416Y20475
X22816Y20475
X23216Y20475
X23816Y20475
X23816Y20075
X23816Y19675
X24216Y19575
X24216Y19175
X24516Y18975
X24916Y18975
X25316Y18975
X25616Y19175
X25616Y19575
X26016Y19675
X26416Y19675
X26816Y19675
X27216Y19675
X27216Y19275
X27616Y19275
X28016Y19275
X28416Y19275
X28816Y19275
X29216Y19275
X29216Y19575
X29416Y19875
X29816Y19875
X30216Y19875
X30316Y20275
X30316Y20675
X30716Y20675
X31116Y20675
X31416Y20975
X31716Y21275
X32016Y21575
X32116Y21975
X32116Y22375
X32516Y21975
X33316Y22375
X32116Y22775
X31716Y22875
X31316Y22875
X30916Y22875
X30516Y22875
X30116Y22875
X29716Y22875
X29316Y22875
X28916Y22975
X28516Y22975
X28116Y22975
X28116Y23375
X28116Y23775
X28116Y24175
X29016Y24175
X29016Y23775
X29316Y23375
X29716Y23375
X30516Y23275
X30916Y23275
X32116Y24075
X32216Y24575
X31816Y24575
X31816Y24975
X32716Y24575
X33216Y24575
X33316Y24075
X30516Y24575
X30116Y24575
X29716Y24575
X29316Y24575
X29716Y25175
X30616Y24975
X30616Y25375
X30616Y25775
X30616Y26175
X30616Y26575
X31016Y26575
X31416Y26575
X31816Y26575
X32216Y26575
X32716Y26575
X33216Y26575
X33316Y27175
X33116Y28575
X31116Y28575
X29716Y27575
X29116Y28575
X28516Y27575
X27316Y27575
X27116Y28575
X26116Y27575
X24916Y27575
X25116Y28575
X23716Y27575
X22516Y27575
X23116Y28575
X21316Y27575
X21116Y28575
X20116Y27575
X18916Y27575
X17716Y27575
X17116Y27575
X16716Y27875
X16316Y27875
X17116Y28175
X17116Y28575
X15116Y28575
X13116Y28575
X11116Y28575
X9316Y28575
X11616Y26675
X11116Y26375
X12116Y26375
X13116Y26375
X13716Y26675
X14216Y26475
X14216Y26875
X14316Y25775
X13316Y25175
X12916Y25175
X14116Y24375
X14616Y23175
X14616Y22775
X14616Y22375
X14616Y21975
X13916Y21575
X13316Y21375
X13316Y21775
X13416Y22275
X13816Y22775
X12716Y22275
X12316Y22075
X12316Y21675
X11716Y21075
X13216Y20275
X13916Y20775
X13616Y19775
X13916Y18775
X14716Y19175
X14916Y19775
X16516Y20775
X19216Y20875
X19216Y21275
X19216Y21675
X19216Y22075
X19216Y22475
X19216Y22875
X19216Y23275
X19216Y23675
X18816Y23675
X18416Y23675
X18016Y23675
X17616Y23675
X17216Y23675
X16716Y23675
X16016Y24075
X17116Y25175
X16716Y25475
X17116Y25775
X16716Y26075
X17116Y26375
X17116Y26975
X19116Y28575
X20116Y26375
X21316Y26375
X22516Y26375
X23716Y26375
X24916Y26375
X26116Y26375
X27316Y26375
X27316Y25175
X28516Y25175
X26116Y25175
X24916Y25175
X23716Y25175
X22516Y25175
X21316Y25175
X20116Y25175
X18916Y25175
X17716Y25175
X18916Y24475
X21316Y23675
X21716Y23675
X22116Y23675
X22716Y23975
X23616Y23675
X23616Y23275
X23616Y22875
X23616Y22475
X23616Y22075
X23716Y21675
X23316Y21675
X22916Y21675
X22516Y21675
X22116Y21675
X21716Y21675
X21316Y21675
X20916Y21675
X20516Y21675
X21316Y22075
X21316Y22475
X21316Y22875
X21316Y23275
X24116Y21675
X24516Y21675
X24916Y21675
X25316Y21675
X25716Y21675
X26116Y21675
X26116Y22075
X26516Y21675
X26916Y21675
X27316Y21675
X27716Y21675
X28116Y21675
X28516Y21675
X28916Y21675
X29316Y21775
X29716Y21775
X30116Y21775
X30516Y21775
X30916Y21775
X31216Y21975
X32316Y20775
X33316Y20775
X33316Y17575
X32216Y17575
X32516Y16775
X33316Y16375
X32516Y15875
X31116Y15775
X31216Y16475
X30216Y16475
X30116Y15775
X29616Y15475
X29216Y16475
X28716Y16475
X27816Y16675
X27216Y16475
X27216Y17075
X26316Y17075
X26316Y16475
X25416Y16475
X25416Y17075
X25416Y17675
X26316Y17675
X24616Y18475
X24216Y18475
X22316Y16975
X21716Y17075
X21716Y16675
X21716Y16275
X22616Y16575
X23016Y16575
X24316Y16175
X24816Y15575
X25116Y15275
X25416Y15575
X25716Y15275
X26016Y15575
X26316Y15275
X26616Y15575
X27316Y14875
X27916Y14775
X27916Y14375
X27316Y14475
X27116Y13575
X26516Y13575
X25916Y13575
X25316Y13575
X24716Y13575
X24116Y13575
X24116Y12975
X24116Y12375
X24116Y11775
X24116Y11175
X24716Y11175
X25316Y11175
X25916Y11175
X25916Y11775
X25316Y11775
X24716Y11775
X24716Y12375
X25316Y12375
X25916Y12375
X25916Y12975
X25316Y12975
X24716Y12975
X26516Y12975
X27116Y12975
X27116Y12375
X26516Y12375
X26516Y11775
X27116Y11775
X26516Y11175
X28616Y11925
X29816Y11725
X29816Y12125
X30716Y12775
X31416Y12875
X32116Y12875
X32116Y13575
X32816Y12875
X33316Y12675
X31116Y12175
X30716Y13675
X33316Y14375
X29816Y10875
X30916Y10075
X31716Y9475
X33316Y9475
X33316Y8075
X32816Y8075
X31116Y8375
X29116Y8375
X28016Y8375
X27316Y8975
X28316Y9575
X28716Y9575
X25116Y9575
X24016Y8975
X23216Y8575
X23116Y7875
X22516Y9075
X22116Y9075
X21116Y9375
X21116Y7875
X20316Y6575
X23316Y6575
X23316Y6075
X25216Y7175
X25016Y7775
X25416Y7775
X26916Y6575
X26616Y6075
X26316Y5575
X26916Y4675
X26816Y3975
X25216Y3475
X25216Y4775
X28016Y6375
X29116Y6375
X29316Y5575
X28916Y5175
X30016Y5575
X31116Y6375
X33316Y6375
X33316Y4375
X32416Y3575
X31116Y3575
X31116Y1675
X32516Y1775
X33016Y1775
X29116Y1675
X28316Y3275
X27116Y1675
X25116Y1675
X13616Y10475
X14816Y10675
X14816Y11075
X14816Y11475
X14816Y11875
X14816Y12275
X14816Y12675
X14816Y13075
X14816Y13475
X14816Y13875
X14816Y14275
X14816Y14675
X13716Y14675
X13116Y14675
X12516Y14675
X12516Y15275
X12516Y15875
X12516Y16475
X13016Y17075
X13416Y17075
X13816Y17075
X11216Y17375
X11316Y18775
X9916Y18775
X9416Y18775
X8916Y18775
X8416Y18775
X8416Y19275
X8916Y19275
X9416Y19275
X9916Y19275
X9916Y19775
X9416Y19775
X8916Y19775
X8416Y19775
X7916Y19775
X7916Y19275
X7916Y18775
X6416Y18375
X6416Y16375
X9116Y16375
X8816Y14375
X6416Y14375
X6416Y12375
X8416Y10875
X9316Y10775
X9716Y10775
X10116Y10775
X10116Y11175
X10516Y10775
X10116Y11575
X11716Y11575
X12416Y11575
X11916Y10475
X8416Y9975
X6416Y10375
X15416Y11675
X15816Y11675
X16216Y11675
X16616Y11675
X17016Y11675
X17416Y11675
X17816Y11675
X18216Y11675
X22616Y11125
X17116Y14875
X16616Y14875
X16616Y15375
X17116Y15375
X21716Y17475
X21716Y17875
X21716Y18275
X21716Y18675
X21716Y19075
X26116Y22475
X26116Y22875
X26116Y23275
X26116Y23675
X26116Y24075
X24316Y23975
X29016Y18575
X28716Y17875
X28216Y18075
X9916Y20275
X9416Y20275
X8916Y20275
X8416Y20275
X8416Y20775
X8916Y20775
X9416Y20775
X9916Y20775
X7916Y20775
X7916Y20275
X6416Y20375
X6416Y22375
X8916Y23375
X8916Y23775
X8916Y24175
X8916Y24575
X8916Y24975
X9216Y25775
X9316Y26375
X6416Y25975
X6416Y24375
T02
X9816Y23475
X17916Y8575
X32816Y13575
T03
X11066Y21225
X11066Y21725
X10566Y21725
X10566Y21225
T04
X10271Y15567
X9491Y15567
X9491Y14583
X10271Y14583
T05
X18516Y7075
X19516Y7075
X19516Y6075
X18516Y6075
X18516Y5075
X19516Y5075
X8916Y22675
X10216Y27475
T06
X8421Y17445
X8421Y12705
T07
X18480Y26375
X28953Y26375
T08
X32366Y19188
X32366Y11063
X7679Y2625
X7679Y27625
M30
