G75*
%MOIN*%
%OFA0B0*%
%FSLAX25Y25*%
%IPPOS*%
%LPD*%
%AMOC8*
5,1,8,0,0,1.08239X$1,22.5*
%
%ADD10C,0.21000*%
%ADD11R,0.16000X0.06000*%
%ADD12C,0.06600*%
%ADD13C,0.13000*%
%ADD14OC8,0.06000*%
%ADD15R,1.25984X0.27559*%
%ADD16C,0.19685*%
%ADD17R,0.03937X0.03937*%
%ADD18C,0.00800*%
%ADD19C,0.02600*%
%ADD20C,0.03175*%
%ADD21C,0.00600*%
%ADD22C,0.02978*%
%ADD23C,0.04000*%
%ADD24C,0.01000*%
%ADD25C,0.05000*%
%ADD26C,0.02000*%
D10*
X0076790Y0026250D03*
X0323665Y0110625D03*
X0323665Y0191875D03*
X0076790Y0276250D03*
D11*
X0327165Y0265750D03*
X0327165Y0245750D03*
D12*
X0102713Y0155671D03*
X0094913Y0155671D03*
X0094913Y0145829D03*
X0102713Y0145829D03*
D13*
X0084213Y0127050D03*
X0084213Y0174450D03*
D14*
X0089165Y0226750D03*
X0102165Y0274750D03*
X0185165Y0070750D03*
X0195165Y0070750D03*
X0195165Y0060750D03*
X0185165Y0060750D03*
X0185165Y0050750D03*
X0195165Y0050750D03*
D15*
X0237165Y0263750D03*
D16*
X0289527Y0263750D03*
X0184803Y0263750D03*
D17*
X0098165Y0234750D03*
X0328165Y0135750D03*
D18*
X0062415Y0041750D02*
X0062415Y0260750D01*
X0089649Y0260750D01*
X0088859Y0259959D01*
X0088265Y0258526D01*
X0088265Y0256974D01*
X0088859Y0255541D01*
X0089956Y0254444D01*
X0091389Y0253850D01*
X0143941Y0253850D01*
X0145374Y0254444D01*
X0146471Y0255541D01*
X0147065Y0256974D01*
X0147065Y0258526D01*
X0146471Y0259959D01*
X0145374Y0261056D01*
X0143941Y0261650D01*
X0092165Y0261650D01*
X0092165Y0287500D01*
X0334915Y0287500D01*
X0334915Y0206750D01*
X0319569Y0206750D01*
X0325869Y0213050D01*
X0326865Y0214046D01*
X0326865Y0218197D01*
X0327465Y0218797D01*
X0327465Y0220703D01*
X0326117Y0222050D01*
X0324212Y0222050D01*
X0322865Y0220703D01*
X0322865Y0218797D01*
X0323465Y0218197D01*
X0323465Y0215454D01*
X0295461Y0187450D01*
X0291717Y0187450D01*
X0291117Y0188050D01*
X0289212Y0188050D01*
X0287865Y0186703D01*
X0287865Y0184797D01*
X0289212Y0183450D01*
X0291117Y0183450D01*
X0291717Y0184050D01*
X0296869Y0184050D01*
X0307165Y0194346D01*
X0307165Y0186750D01*
X0317165Y0176750D01*
X0334915Y0176750D01*
X0334915Y0125750D01*
X0316165Y0125750D01*
X0309065Y0118650D01*
X0309065Y0120963D01*
X0314552Y0126450D01*
X0315117Y0126450D01*
X0316465Y0127797D01*
X0316465Y0129703D01*
X0316317Y0129850D01*
X0319012Y0129850D01*
X0318865Y0129703D01*
X0318865Y0127797D01*
X0320212Y0126450D01*
X0322117Y0126450D01*
X0323465Y0127797D01*
X0323465Y0129703D01*
X0323065Y0130103D01*
X0323065Y0131537D01*
X0321952Y0132650D01*
X0321152Y0133450D01*
X0322117Y0133450D01*
X0323465Y0134797D01*
X0323465Y0136703D01*
X0322117Y0138050D01*
X0321269Y0138050D01*
X0320869Y0138450D01*
X0308717Y0138450D01*
X0308117Y0139050D01*
X0306212Y0139050D01*
X0304865Y0137703D01*
X0304865Y0135797D01*
X0306212Y0134450D01*
X0308117Y0134450D01*
X0308717Y0135050D01*
X0318865Y0135050D01*
X0318865Y0134797D01*
X0320012Y0133650D01*
X0310378Y0133650D01*
X0309265Y0132537D01*
X0307518Y0130791D01*
X0303565Y0134744D01*
X0303565Y0158227D01*
X0303465Y0158469D01*
X0303465Y0158703D01*
X0303299Y0158868D01*
X0303199Y0159109D01*
X0302524Y0159785D01*
X0302283Y0159885D01*
X0302117Y0160050D01*
X0301884Y0160050D01*
X0301642Y0160150D01*
X0300687Y0160150D01*
X0300446Y0160050D01*
X0300212Y0160050D01*
X0300047Y0159885D01*
X0299805Y0159785D01*
X0299671Y0159650D01*
X0287952Y0159650D01*
X0280465Y0167137D01*
X0280465Y0167703D01*
X0279117Y0169050D01*
X0277212Y0169050D01*
X0275865Y0167703D01*
X0275865Y0165797D01*
X0277212Y0164450D01*
X0277778Y0164450D01*
X0286378Y0155850D01*
X0298765Y0155850D01*
X0298765Y0133273D01*
X0299130Y0132391D01*
X0305805Y0125715D01*
X0306047Y0125615D01*
X0306212Y0125450D01*
X0306446Y0125450D01*
X0306687Y0125350D01*
X0307642Y0125350D01*
X0307884Y0125450D01*
X0308117Y0125450D01*
X0308283Y0125615D01*
X0308386Y0125658D01*
X0305265Y0122537D01*
X0305265Y0110650D01*
X0299517Y0110650D01*
X0299117Y0111050D01*
X0297212Y0111050D01*
X0295865Y0109703D01*
X0295865Y0107797D01*
X0297212Y0106450D01*
X0299117Y0106450D01*
X0299517Y0106850D01*
X0307165Y0106850D01*
X0307165Y0104750D01*
X0316165Y0095750D01*
X0334915Y0095750D01*
X0334915Y0015000D01*
X0092165Y0015000D01*
X0092165Y0039942D01*
X0092282Y0039824D01*
X0093239Y0038868D01*
X0094488Y0038350D01*
X0114756Y0038350D01*
X0132282Y0020824D01*
X0133239Y0019868D01*
X0134488Y0019350D01*
X0294841Y0019350D01*
X0296091Y0019868D01*
X0302091Y0025868D01*
X0303047Y0026824D01*
X0303565Y0028074D01*
X0303565Y0056426D01*
X0303047Y0057676D01*
X0302091Y0058632D01*
X0300841Y0059150D01*
X0299488Y0059150D01*
X0298239Y0058632D01*
X0297282Y0057676D01*
X0296765Y0056426D01*
X0296765Y0030158D01*
X0294865Y0028258D01*
X0294865Y0054197D01*
X0295465Y0054797D01*
X0295465Y0056703D01*
X0294117Y0058050D01*
X0292212Y0058050D01*
X0290865Y0056703D01*
X0290865Y0054797D01*
X0291465Y0054197D01*
X0291465Y0029450D01*
X0290865Y0029450D01*
X0290865Y0050197D01*
X0291465Y0050797D01*
X0291465Y0052703D01*
X0290117Y0054050D01*
X0288212Y0054050D01*
X0286865Y0052703D01*
X0286865Y0050797D01*
X0287465Y0050197D01*
X0287465Y0031450D01*
X0285117Y0031450D01*
X0285465Y0031797D01*
X0285465Y0033703D01*
X0284117Y0035050D01*
X0283269Y0035050D01*
X0271465Y0046854D01*
X0271465Y0047703D01*
X0270117Y0049050D01*
X0268212Y0049050D01*
X0266865Y0047703D01*
X0266865Y0045797D01*
X0268212Y0044450D01*
X0269061Y0044450D01*
X0280865Y0032646D01*
X0280865Y0032450D01*
X0238717Y0032450D01*
X0238117Y0033050D01*
X0236212Y0033050D01*
X0234865Y0031703D01*
X0234865Y0029797D01*
X0236212Y0028450D01*
X0238117Y0028450D01*
X0238717Y0029050D01*
X0239212Y0029050D01*
X0238865Y0028703D01*
X0238865Y0026797D01*
X0239512Y0026150D01*
X0136573Y0026150D01*
X0118091Y0044632D01*
X0116841Y0045150D01*
X0096573Y0045150D01*
X0089091Y0052632D01*
X0087841Y0053150D01*
X0069488Y0053150D01*
X0068239Y0052632D01*
X0067282Y0051676D01*
X0066765Y0050426D01*
X0066765Y0049074D01*
X0067282Y0047824D01*
X0068239Y0046868D01*
X0069488Y0046350D01*
X0085756Y0046350D01*
X0090356Y0041750D01*
X0062415Y0041750D01*
X0062415Y0042496D02*
X0089610Y0042496D01*
X0088812Y0043295D02*
X0062415Y0043295D01*
X0062415Y0044093D02*
X0088013Y0044093D01*
X0087215Y0044892D02*
X0062415Y0044892D01*
X0062415Y0045690D02*
X0086416Y0045690D01*
X0091242Y0050482D02*
X0113823Y0050482D01*
X0113818Y0051280D02*
X0090443Y0051280D01*
X0089645Y0052079D02*
X0113813Y0052079D01*
X0113808Y0052877D02*
X0088500Y0052877D01*
X0092040Y0049683D02*
X0113829Y0049683D01*
X0113832Y0049115D02*
X0114358Y0047869D01*
X0115320Y0046918D01*
X0116573Y0046409D01*
X0117926Y0046417D01*
X0119172Y0046943D01*
X0120122Y0047905D01*
X0120632Y0049158D01*
X0120574Y0058351D01*
X0144573Y0082350D01*
X0179841Y0082350D01*
X0181091Y0082868D01*
X0182047Y0083824D01*
X0182565Y0085074D01*
X0182565Y0086426D01*
X0182047Y0087676D01*
X0181091Y0088632D01*
X0179841Y0089150D01*
X0142488Y0089150D01*
X0141239Y0088632D01*
X0140282Y0087676D01*
X0115231Y0062624D01*
X0115221Y0062620D01*
X0114753Y0062146D01*
X0114282Y0061676D01*
X0114278Y0061666D01*
X0114270Y0061658D01*
X0114019Y0061041D01*
X0113765Y0060426D01*
X0113765Y0060415D01*
X0113761Y0060405D01*
X0113765Y0059739D01*
X0113765Y0059074D01*
X0113769Y0059063D01*
X0113832Y0049115D01*
X0113929Y0048884D02*
X0092839Y0048884D01*
X0093637Y0048086D02*
X0114266Y0048086D01*
X0114946Y0047287D02*
X0094436Y0047287D01*
X0095234Y0046489D02*
X0116376Y0046489D01*
X0118095Y0046489D02*
X0155465Y0046489D01*
X0155465Y0047287D02*
X0119512Y0047287D01*
X0120196Y0048086D02*
X0155465Y0048086D01*
X0155465Y0048884D02*
X0120521Y0048884D01*
X0120629Y0049683D02*
X0155465Y0049683D01*
X0155465Y0050482D02*
X0120624Y0050482D01*
X0120619Y0051280D02*
X0155382Y0051280D01*
X0155465Y0051197D02*
X0155465Y0037303D01*
X0154865Y0036703D01*
X0154865Y0034797D01*
X0156212Y0033450D01*
X0158117Y0033450D01*
X0159465Y0034797D01*
X0159465Y0036703D01*
X0158865Y0037303D01*
X0158865Y0051197D01*
X0159465Y0051797D01*
X0159465Y0053703D01*
X0158117Y0055050D01*
X0156212Y0055050D01*
X0154865Y0053703D01*
X0154865Y0051797D01*
X0155465Y0051197D01*
X0154865Y0052079D02*
X0120613Y0052079D01*
X0120608Y0052877D02*
X0154865Y0052877D01*
X0154865Y0053676D02*
X0120603Y0053676D01*
X0120598Y0054474D02*
X0155636Y0054474D01*
X0158693Y0054474D02*
X0183232Y0054474D01*
X0183508Y0054750D02*
X0181165Y0052407D01*
X0181165Y0049093D01*
X0183508Y0046750D01*
X0186822Y0046750D01*
X0189165Y0049093D01*
X0189165Y0052407D01*
X0186822Y0054750D01*
X0183508Y0054750D01*
X0182434Y0053676D02*
X0159465Y0053676D01*
X0159465Y0052877D02*
X0181635Y0052877D01*
X0181165Y0052079D02*
X0159465Y0052079D01*
X0158948Y0051280D02*
X0181165Y0051280D01*
X0181165Y0050482D02*
X0158865Y0050482D01*
X0158865Y0049683D02*
X0181165Y0049683D01*
X0181373Y0048884D02*
X0158865Y0048884D01*
X0158865Y0048086D02*
X0182172Y0048086D01*
X0182970Y0047287D02*
X0158865Y0047287D01*
X0158865Y0046489D02*
X0266865Y0046489D01*
X0266865Y0047287D02*
X0187359Y0047287D01*
X0188158Y0048086D02*
X0267248Y0048086D01*
X0268047Y0048884D02*
X0188956Y0048884D01*
X0189165Y0049683D02*
X0287465Y0049683D01*
X0287465Y0048884D02*
X0270283Y0048884D01*
X0271081Y0048086D02*
X0287465Y0048086D01*
X0287465Y0047287D02*
X0271465Y0047287D01*
X0271830Y0046489D02*
X0287465Y0046489D01*
X0287465Y0045690D02*
X0272628Y0045690D01*
X0273427Y0044892D02*
X0287465Y0044892D01*
X0287465Y0044093D02*
X0274226Y0044093D01*
X0275024Y0043295D02*
X0287465Y0043295D01*
X0287465Y0042496D02*
X0275823Y0042496D01*
X0276621Y0041698D02*
X0287465Y0041698D01*
X0287465Y0040899D02*
X0277420Y0040899D01*
X0278218Y0040101D02*
X0287465Y0040101D01*
X0287465Y0039302D02*
X0279017Y0039302D01*
X0279815Y0038504D02*
X0287465Y0038504D01*
X0287465Y0037705D02*
X0280614Y0037705D01*
X0281412Y0036907D02*
X0287465Y0036907D01*
X0287465Y0036108D02*
X0282211Y0036108D01*
X0283009Y0035310D02*
X0287465Y0035310D01*
X0287465Y0034511D02*
X0284656Y0034511D01*
X0285455Y0033713D02*
X0287465Y0033713D01*
X0287465Y0032914D02*
X0285465Y0032914D01*
X0285465Y0032116D02*
X0287465Y0032116D01*
X0290865Y0032116D02*
X0291465Y0032116D01*
X0291465Y0032914D02*
X0290865Y0032914D01*
X0290865Y0033713D02*
X0291465Y0033713D01*
X0291465Y0034511D02*
X0290865Y0034511D01*
X0290865Y0035310D02*
X0291465Y0035310D01*
X0291465Y0036108D02*
X0290865Y0036108D01*
X0290865Y0036907D02*
X0291465Y0036907D01*
X0291465Y0037705D02*
X0290865Y0037705D01*
X0290865Y0038504D02*
X0291465Y0038504D01*
X0291465Y0039302D02*
X0290865Y0039302D01*
X0290865Y0040101D02*
X0291465Y0040101D01*
X0291465Y0040899D02*
X0290865Y0040899D01*
X0290865Y0041698D02*
X0291465Y0041698D01*
X0291465Y0042496D02*
X0290865Y0042496D01*
X0290865Y0043295D02*
X0291465Y0043295D01*
X0291465Y0044093D02*
X0290865Y0044093D01*
X0290865Y0044892D02*
X0291465Y0044892D01*
X0291465Y0045690D02*
X0290865Y0045690D01*
X0290865Y0046489D02*
X0291465Y0046489D01*
X0291465Y0047287D02*
X0290865Y0047287D01*
X0290865Y0048086D02*
X0291465Y0048086D01*
X0291465Y0048884D02*
X0290865Y0048884D01*
X0290865Y0049683D02*
X0291465Y0049683D01*
X0291465Y0050482D02*
X0291149Y0050482D01*
X0291465Y0051280D02*
X0291465Y0051280D01*
X0291465Y0052079D02*
X0291465Y0052079D01*
X0291465Y0052877D02*
X0291290Y0052877D01*
X0291465Y0053676D02*
X0290492Y0053676D01*
X0291188Y0054474D02*
X0265142Y0054474D01*
X0265465Y0054797D02*
X0265465Y0056703D01*
X0264117Y0058050D01*
X0262212Y0058050D01*
X0261612Y0057450D01*
X0197522Y0057450D01*
X0199165Y0059093D01*
X0199165Y0062407D01*
X0197522Y0064050D01*
X0201612Y0064050D01*
X0202212Y0063450D01*
X0204117Y0063450D01*
X0205465Y0064797D01*
X0205465Y0066703D01*
X0204117Y0068050D01*
X0202212Y0068050D01*
X0201612Y0067450D01*
X0197522Y0067450D01*
X0199165Y0069093D01*
X0199165Y0072407D01*
X0196822Y0074750D01*
X0193508Y0074750D01*
X0191165Y0072407D01*
X0191165Y0069093D01*
X0192808Y0067450D01*
X0190869Y0067450D01*
X0189165Y0069154D01*
X0189165Y0072407D01*
X0186822Y0074750D01*
X0183508Y0074750D01*
X0181165Y0072407D01*
X0181165Y0069093D01*
X0183508Y0066750D01*
X0186761Y0066750D01*
X0188465Y0065046D01*
X0189461Y0064050D01*
X0192808Y0064050D01*
X0191165Y0062407D01*
X0191165Y0059093D01*
X0192808Y0057450D01*
X0190869Y0057450D01*
X0189165Y0059154D01*
X0189165Y0062407D01*
X0186822Y0064750D01*
X0183508Y0064750D01*
X0181208Y0062450D01*
X0180869Y0062450D01*
X0176865Y0066454D01*
X0176865Y0078197D01*
X0177465Y0078797D01*
X0177465Y0080703D01*
X0176117Y0082050D01*
X0174212Y0082050D01*
X0172865Y0080703D01*
X0172865Y0078797D01*
X0173465Y0078197D01*
X0173465Y0065046D01*
X0174461Y0064050D01*
X0179461Y0059050D01*
X0181208Y0059050D01*
X0183508Y0056750D01*
X0186761Y0056750D01*
X0188465Y0055046D01*
X0189461Y0054050D01*
X0261612Y0054050D01*
X0262212Y0053450D01*
X0264117Y0053450D01*
X0265465Y0054797D01*
X0265465Y0055273D02*
X0290865Y0055273D01*
X0290865Y0056071D02*
X0265465Y0056071D01*
X0265298Y0056870D02*
X0291032Y0056870D01*
X0291830Y0057668D02*
X0264499Y0057668D01*
X0265212Y0058450D02*
X0267117Y0058450D01*
X0268465Y0059797D01*
X0268465Y0061703D01*
X0267117Y0063050D01*
X0265212Y0063050D01*
X0264612Y0062450D01*
X0234717Y0062450D01*
X0234117Y0063050D01*
X0232212Y0063050D01*
X0230865Y0061703D01*
X0230865Y0059797D01*
X0232212Y0058450D01*
X0234117Y0058450D01*
X0234717Y0059050D01*
X0264612Y0059050D01*
X0265212Y0058450D01*
X0265195Y0058467D02*
X0234134Y0058467D01*
X0232195Y0058467D02*
X0198538Y0058467D01*
X0199165Y0059265D02*
X0231397Y0059265D01*
X0230865Y0060064D02*
X0199165Y0060064D01*
X0199165Y0060862D02*
X0230865Y0060862D01*
X0230865Y0061661D02*
X0199165Y0061661D01*
X0199112Y0062459D02*
X0231621Y0062459D01*
X0232212Y0063450D02*
X0234117Y0063450D01*
X0234717Y0064050D01*
X0267612Y0064050D01*
X0268212Y0063450D01*
X0270117Y0063450D01*
X0271465Y0064797D01*
X0271465Y0066703D01*
X0270117Y0068050D01*
X0268212Y0068050D01*
X0267612Y0067450D01*
X0234717Y0067450D01*
X0234117Y0068050D01*
X0232212Y0068050D01*
X0230865Y0066703D01*
X0230865Y0064797D01*
X0232212Y0063450D01*
X0231606Y0064056D02*
X0204724Y0064056D01*
X0205465Y0064855D02*
X0230865Y0064855D01*
X0230865Y0065653D02*
X0205465Y0065653D01*
X0205465Y0066452D02*
X0230865Y0066452D01*
X0231412Y0067250D02*
X0204917Y0067250D01*
X0204119Y0068049D02*
X0232211Y0068049D01*
X0234119Y0068049D02*
X0268211Y0068049D01*
X0270119Y0068049D02*
X0334915Y0068049D01*
X0334915Y0068847D02*
X0198919Y0068847D01*
X0199165Y0069646D02*
X0334915Y0069646D01*
X0334915Y0070444D02*
X0199165Y0070444D01*
X0199165Y0071243D02*
X0334915Y0071243D01*
X0334915Y0072041D02*
X0199165Y0072041D01*
X0198732Y0072840D02*
X0334915Y0072840D01*
X0334915Y0073638D02*
X0197933Y0073638D01*
X0197135Y0074437D02*
X0334915Y0074437D01*
X0334915Y0075235D02*
X0176865Y0075235D01*
X0176865Y0074437D02*
X0183195Y0074437D01*
X0182396Y0073638D02*
X0176865Y0073638D01*
X0176865Y0072840D02*
X0181598Y0072840D01*
X0181165Y0072041D02*
X0176865Y0072041D01*
X0176865Y0071243D02*
X0181165Y0071243D01*
X0181165Y0070444D02*
X0176865Y0070444D01*
X0176865Y0069646D02*
X0181165Y0069646D01*
X0181411Y0068847D02*
X0176865Y0068847D01*
X0176865Y0068049D02*
X0182209Y0068049D01*
X0183008Y0067250D02*
X0176865Y0067250D01*
X0176867Y0066452D02*
X0187059Y0066452D01*
X0187857Y0065653D02*
X0177666Y0065653D01*
X0178464Y0064855D02*
X0188656Y0064855D01*
X0189454Y0064056D02*
X0187515Y0064056D01*
X0188314Y0063258D02*
X0192016Y0063258D01*
X0191217Y0062459D02*
X0189112Y0062459D01*
X0189165Y0061661D02*
X0191165Y0061661D01*
X0191165Y0060862D02*
X0189165Y0060862D01*
X0189165Y0060064D02*
X0191165Y0060064D01*
X0191165Y0059265D02*
X0189165Y0059265D01*
X0189852Y0058467D02*
X0191791Y0058467D01*
X0192590Y0057668D02*
X0190651Y0057668D01*
X0188238Y0055273D02*
X0120593Y0055273D01*
X0120588Y0056071D02*
X0187440Y0056071D01*
X0187098Y0054474D02*
X0189037Y0054474D01*
X0187896Y0053676D02*
X0261987Y0053676D01*
X0264343Y0053676D02*
X0287838Y0053676D01*
X0287039Y0052877D02*
X0188695Y0052877D01*
X0189165Y0052079D02*
X0286865Y0052079D01*
X0286865Y0051280D02*
X0189165Y0051280D01*
X0189165Y0050482D02*
X0287181Y0050482D01*
X0294865Y0050482D02*
X0296765Y0050482D01*
X0296765Y0051280D02*
X0294865Y0051280D01*
X0294865Y0052079D02*
X0296765Y0052079D01*
X0296765Y0052877D02*
X0294865Y0052877D01*
X0294865Y0053676D02*
X0296765Y0053676D01*
X0296765Y0054474D02*
X0295142Y0054474D01*
X0295465Y0055273D02*
X0296765Y0055273D01*
X0296765Y0056071D02*
X0295465Y0056071D01*
X0295298Y0056870D02*
X0296948Y0056870D01*
X0297279Y0057668D02*
X0294499Y0057668D01*
X0298073Y0058467D02*
X0267134Y0058467D01*
X0267933Y0059265D02*
X0334915Y0059265D01*
X0334915Y0058467D02*
X0302256Y0058467D01*
X0303050Y0057668D02*
X0334915Y0057668D01*
X0334915Y0056870D02*
X0303381Y0056870D01*
X0303565Y0056071D02*
X0334915Y0056071D01*
X0334915Y0055273D02*
X0303565Y0055273D01*
X0303565Y0054474D02*
X0334915Y0054474D01*
X0334915Y0053676D02*
X0303565Y0053676D01*
X0303565Y0052877D02*
X0334915Y0052877D01*
X0334915Y0052079D02*
X0303565Y0052079D01*
X0303565Y0051280D02*
X0334915Y0051280D01*
X0334915Y0050482D02*
X0303565Y0050482D01*
X0303565Y0049683D02*
X0334915Y0049683D01*
X0334915Y0048884D02*
X0303565Y0048884D01*
X0303565Y0048086D02*
X0334915Y0048086D01*
X0334915Y0047287D02*
X0303565Y0047287D01*
X0303565Y0046489D02*
X0334915Y0046489D01*
X0334915Y0045690D02*
X0303565Y0045690D01*
X0303565Y0044892D02*
X0334915Y0044892D01*
X0334915Y0044093D02*
X0303565Y0044093D01*
X0303565Y0043295D02*
X0334915Y0043295D01*
X0334915Y0042496D02*
X0303565Y0042496D01*
X0303565Y0041698D02*
X0334915Y0041698D01*
X0334915Y0040899D02*
X0303565Y0040899D01*
X0303565Y0040101D02*
X0334915Y0040101D01*
X0334915Y0039302D02*
X0303565Y0039302D01*
X0303565Y0038504D02*
X0334915Y0038504D01*
X0334915Y0037705D02*
X0303565Y0037705D01*
X0303565Y0036907D02*
X0334915Y0036907D01*
X0334915Y0036108D02*
X0303565Y0036108D01*
X0303565Y0035310D02*
X0334915Y0035310D01*
X0334915Y0034511D02*
X0303565Y0034511D01*
X0303565Y0033713D02*
X0334915Y0033713D01*
X0334915Y0032914D02*
X0303565Y0032914D01*
X0303565Y0032116D02*
X0334915Y0032116D01*
X0334915Y0031317D02*
X0303565Y0031317D01*
X0303565Y0030519D02*
X0334915Y0030519D01*
X0334915Y0029720D02*
X0303565Y0029720D01*
X0303565Y0028922D02*
X0334915Y0028922D01*
X0334915Y0028123D02*
X0303565Y0028123D01*
X0303255Y0027325D02*
X0334915Y0027325D01*
X0334915Y0026526D02*
X0302749Y0026526D01*
X0302091Y0025868D02*
X0302091Y0025868D01*
X0301951Y0025728D02*
X0334915Y0025728D01*
X0334915Y0024929D02*
X0301152Y0024929D01*
X0300354Y0024131D02*
X0334915Y0024131D01*
X0334915Y0023332D02*
X0299555Y0023332D01*
X0298757Y0022534D02*
X0334915Y0022534D01*
X0334915Y0021735D02*
X0297958Y0021735D01*
X0297160Y0020937D02*
X0334915Y0020937D01*
X0334915Y0020138D02*
X0296361Y0020138D01*
X0295528Y0028922D02*
X0294865Y0028922D01*
X0294865Y0029720D02*
X0296327Y0029720D01*
X0296765Y0030519D02*
X0294865Y0030519D01*
X0294865Y0031317D02*
X0296765Y0031317D01*
X0296765Y0032116D02*
X0294865Y0032116D01*
X0294865Y0032914D02*
X0296765Y0032914D01*
X0296765Y0033713D02*
X0294865Y0033713D01*
X0294865Y0034511D02*
X0296765Y0034511D01*
X0296765Y0035310D02*
X0294865Y0035310D01*
X0294865Y0036108D02*
X0296765Y0036108D01*
X0296765Y0036907D02*
X0294865Y0036907D01*
X0294865Y0037705D02*
X0296765Y0037705D01*
X0296765Y0038504D02*
X0294865Y0038504D01*
X0294865Y0039302D02*
X0296765Y0039302D01*
X0296765Y0040101D02*
X0294865Y0040101D01*
X0294865Y0040899D02*
X0296765Y0040899D01*
X0296765Y0041698D02*
X0294865Y0041698D01*
X0294865Y0042496D02*
X0296765Y0042496D01*
X0296765Y0043295D02*
X0294865Y0043295D01*
X0294865Y0044093D02*
X0296765Y0044093D01*
X0296765Y0044892D02*
X0294865Y0044892D01*
X0294865Y0045690D02*
X0296765Y0045690D01*
X0296765Y0046489D02*
X0294865Y0046489D01*
X0294865Y0047287D02*
X0296765Y0047287D01*
X0296765Y0048086D02*
X0294865Y0048086D01*
X0294865Y0048884D02*
X0296765Y0048884D01*
X0296765Y0049683D02*
X0294865Y0049683D01*
X0276604Y0036907D02*
X0159261Y0036907D01*
X0159465Y0036108D02*
X0277402Y0036108D01*
X0278201Y0035310D02*
X0159465Y0035310D01*
X0159179Y0034511D02*
X0278999Y0034511D01*
X0279798Y0033713D02*
X0158380Y0033713D01*
X0155949Y0033713D02*
X0129010Y0033713D01*
X0128212Y0034511D02*
X0155151Y0034511D01*
X0154865Y0035310D02*
X0127413Y0035310D01*
X0126615Y0036108D02*
X0154865Y0036108D01*
X0155069Y0036907D02*
X0125816Y0036907D01*
X0125018Y0037705D02*
X0155465Y0037705D01*
X0155465Y0038504D02*
X0124219Y0038504D01*
X0123421Y0039302D02*
X0155465Y0039302D01*
X0155465Y0040101D02*
X0122622Y0040101D01*
X0121824Y0040899D02*
X0155465Y0040899D01*
X0155465Y0041698D02*
X0121025Y0041698D01*
X0120227Y0042496D02*
X0155465Y0042496D01*
X0155465Y0043295D02*
X0119428Y0043295D01*
X0118630Y0044093D02*
X0155465Y0044093D01*
X0155465Y0044892D02*
X0117464Y0044892D01*
X0115401Y0037705D02*
X0092165Y0037705D01*
X0092165Y0036907D02*
X0116200Y0036907D01*
X0116998Y0036108D02*
X0092165Y0036108D01*
X0092165Y0035310D02*
X0117797Y0035310D01*
X0118595Y0034511D02*
X0092165Y0034511D01*
X0092165Y0033713D02*
X0119394Y0033713D01*
X0120192Y0032914D02*
X0092165Y0032914D01*
X0092165Y0032116D02*
X0120991Y0032116D01*
X0121789Y0031317D02*
X0092165Y0031317D01*
X0092165Y0030519D02*
X0122588Y0030519D01*
X0123386Y0029720D02*
X0092165Y0029720D01*
X0092165Y0028922D02*
X0124185Y0028922D01*
X0124983Y0028123D02*
X0092165Y0028123D01*
X0092165Y0027325D02*
X0125782Y0027325D01*
X0126580Y0026526D02*
X0092165Y0026526D01*
X0092165Y0025728D02*
X0127379Y0025728D01*
X0128177Y0024929D02*
X0092165Y0024929D01*
X0092165Y0024131D02*
X0128976Y0024131D01*
X0129774Y0023332D02*
X0092165Y0023332D01*
X0092165Y0022534D02*
X0130573Y0022534D01*
X0131371Y0021735D02*
X0092165Y0021735D01*
X0092165Y0020937D02*
X0132170Y0020937D01*
X0132968Y0020138D02*
X0092165Y0020138D01*
X0092165Y0019340D02*
X0334915Y0019340D01*
X0334915Y0018541D02*
X0092165Y0018541D01*
X0092165Y0017743D02*
X0334915Y0017743D01*
X0334915Y0016944D02*
X0092165Y0016944D01*
X0092165Y0016146D02*
X0334915Y0016146D01*
X0334915Y0015347D02*
X0092165Y0015347D01*
X0092165Y0038504D02*
X0094117Y0038504D01*
X0092804Y0039302D02*
X0092165Y0039302D01*
X0096033Y0045690D02*
X0155465Y0045690D01*
X0158865Y0045690D02*
X0266972Y0045690D01*
X0267770Y0044892D02*
X0158865Y0044892D01*
X0158865Y0044093D02*
X0269417Y0044093D01*
X0270216Y0043295D02*
X0158865Y0043295D01*
X0158865Y0042496D02*
X0271014Y0042496D01*
X0271813Y0041698D02*
X0269470Y0041698D01*
X0269117Y0042050D02*
X0267212Y0042050D01*
X0266612Y0041450D01*
X0238717Y0041450D01*
X0238117Y0042050D01*
X0236212Y0042050D01*
X0234865Y0040703D01*
X0234865Y0038797D01*
X0236212Y0037450D01*
X0238117Y0037450D01*
X0238717Y0038050D01*
X0266612Y0038050D01*
X0267212Y0037450D01*
X0269117Y0037450D01*
X0270465Y0038797D01*
X0270465Y0040703D01*
X0269117Y0042050D01*
X0270268Y0040899D02*
X0272611Y0040899D01*
X0273410Y0040101D02*
X0270465Y0040101D01*
X0270465Y0039302D02*
X0274208Y0039302D01*
X0275007Y0038504D02*
X0270171Y0038504D01*
X0269373Y0037705D02*
X0275805Y0037705D01*
X0280596Y0032914D02*
X0238253Y0032914D01*
X0236076Y0032914D02*
X0129809Y0032914D01*
X0130607Y0032116D02*
X0235278Y0032116D01*
X0234865Y0031317D02*
X0131406Y0031317D01*
X0132204Y0030519D02*
X0234865Y0030519D01*
X0234942Y0029720D02*
X0133003Y0029720D01*
X0133801Y0028922D02*
X0235740Y0028922D01*
X0238589Y0028922D02*
X0239084Y0028922D01*
X0238865Y0028123D02*
X0134600Y0028123D01*
X0135398Y0027325D02*
X0238865Y0027325D01*
X0239136Y0026526D02*
X0136197Y0026526D01*
X0158865Y0037705D02*
X0235957Y0037705D01*
X0235158Y0038504D02*
X0158865Y0038504D01*
X0158865Y0039302D02*
X0234865Y0039302D01*
X0234865Y0040101D02*
X0158865Y0040101D01*
X0158865Y0040899D02*
X0235062Y0040899D01*
X0235860Y0041698D02*
X0158865Y0041698D01*
X0183388Y0056870D02*
X0120583Y0056870D01*
X0120578Y0057668D02*
X0182590Y0057668D01*
X0181791Y0058467D02*
X0120690Y0058467D01*
X0121488Y0059265D02*
X0179245Y0059265D01*
X0178447Y0060064D02*
X0122287Y0060064D01*
X0123085Y0060862D02*
X0177648Y0060862D01*
X0176850Y0061661D02*
X0123884Y0061661D01*
X0124682Y0062459D02*
X0176051Y0062459D01*
X0175253Y0063258D02*
X0125481Y0063258D01*
X0126279Y0064056D02*
X0174454Y0064056D01*
X0173656Y0064855D02*
X0127078Y0064855D01*
X0127876Y0065653D02*
X0173465Y0065653D01*
X0173465Y0066452D02*
X0128675Y0066452D01*
X0129473Y0067250D02*
X0173465Y0067250D01*
X0173465Y0068049D02*
X0130272Y0068049D01*
X0131070Y0068847D02*
X0173465Y0068847D01*
X0173465Y0069646D02*
X0131869Y0069646D01*
X0132667Y0070444D02*
X0173465Y0070444D01*
X0173465Y0071243D02*
X0133466Y0071243D01*
X0134264Y0072041D02*
X0173465Y0072041D01*
X0173465Y0072840D02*
X0135063Y0072840D01*
X0135861Y0073638D02*
X0173465Y0073638D01*
X0173465Y0074437D02*
X0136660Y0074437D01*
X0137458Y0075235D02*
X0173465Y0075235D01*
X0173465Y0076034D02*
X0138257Y0076034D01*
X0139055Y0076832D02*
X0173465Y0076832D01*
X0173465Y0077631D02*
X0139854Y0077631D01*
X0140653Y0078429D02*
X0173233Y0078429D01*
X0172865Y0079228D02*
X0141451Y0079228D01*
X0142250Y0080026D02*
X0172865Y0080026D01*
X0172987Y0080825D02*
X0143048Y0080825D01*
X0143847Y0081623D02*
X0173786Y0081623D01*
X0176544Y0081623D02*
X0334915Y0081623D01*
X0334915Y0080825D02*
X0177343Y0080825D01*
X0177465Y0080026D02*
X0334915Y0080026D01*
X0334915Y0079228D02*
X0177465Y0079228D01*
X0177097Y0078429D02*
X0334915Y0078429D01*
X0334915Y0077631D02*
X0176865Y0077631D01*
X0176865Y0076832D02*
X0334915Y0076832D01*
X0334915Y0076034D02*
X0176865Y0076034D01*
X0180015Y0082422D02*
X0231315Y0082422D01*
X0231488Y0082350D02*
X0232841Y0082350D01*
X0234091Y0082868D01*
X0235047Y0083824D01*
X0235565Y0085074D01*
X0235565Y0101342D01*
X0244047Y0109824D01*
X0244565Y0111074D01*
X0244565Y0112426D01*
X0244047Y0113676D01*
X0243091Y0114632D01*
X0241841Y0115150D01*
X0240488Y0115150D01*
X0239239Y0114632D01*
X0229282Y0104676D01*
X0228765Y0103426D01*
X0228765Y0102074D01*
X0228765Y0085074D01*
X0229282Y0083824D01*
X0230239Y0082868D01*
X0231488Y0082350D01*
X0233015Y0082422D02*
X0334915Y0082422D01*
X0334915Y0083220D02*
X0234444Y0083220D01*
X0235128Y0084019D02*
X0334915Y0084019D01*
X0334915Y0084818D02*
X0235459Y0084818D01*
X0235565Y0085616D02*
X0334915Y0085616D01*
X0334915Y0086415D02*
X0235565Y0086415D01*
X0235565Y0087213D02*
X0334915Y0087213D01*
X0334915Y0088012D02*
X0274679Y0088012D01*
X0274117Y0087450D02*
X0275465Y0088797D01*
X0275465Y0090703D01*
X0274117Y0092050D01*
X0272212Y0092050D01*
X0271612Y0091450D01*
X0241717Y0091450D01*
X0241117Y0092050D01*
X0239212Y0092050D01*
X0237865Y0090703D01*
X0237865Y0088797D01*
X0239212Y0087450D01*
X0241117Y0087450D01*
X0241717Y0088050D01*
X0271612Y0088050D01*
X0272212Y0087450D01*
X0274117Y0087450D01*
X0275465Y0088810D02*
X0334915Y0088810D01*
X0334915Y0089609D02*
X0275465Y0089609D01*
X0275465Y0090407D02*
X0334915Y0090407D01*
X0334915Y0091206D02*
X0274962Y0091206D01*
X0274163Y0092004D02*
X0334915Y0092004D01*
X0334915Y0092803D02*
X0235565Y0092803D01*
X0235565Y0093601D02*
X0334915Y0093601D01*
X0334915Y0094400D02*
X0235565Y0094400D01*
X0235565Y0095198D02*
X0334915Y0095198D01*
X0315918Y0095997D02*
X0235565Y0095997D01*
X0235565Y0096795D02*
X0315120Y0096795D01*
X0314321Y0097594D02*
X0235565Y0097594D01*
X0235565Y0098392D02*
X0313523Y0098392D01*
X0312724Y0099191D02*
X0235565Y0099191D01*
X0235565Y0099989D02*
X0311926Y0099989D01*
X0311127Y0100788D02*
X0235565Y0100788D01*
X0235809Y0101586D02*
X0310329Y0101586D01*
X0309530Y0102385D02*
X0236608Y0102385D01*
X0237406Y0103183D02*
X0308732Y0103183D01*
X0307933Y0103982D02*
X0238205Y0103982D01*
X0239003Y0104780D02*
X0307165Y0104780D01*
X0307165Y0105579D02*
X0239802Y0105579D01*
X0240600Y0106377D02*
X0307165Y0106377D01*
X0305265Y0111168D02*
X0244565Y0111168D01*
X0244565Y0111967D02*
X0305265Y0111967D01*
X0305265Y0112765D02*
X0244424Y0112765D01*
X0244094Y0113564D02*
X0305265Y0113564D01*
X0305265Y0114362D02*
X0243361Y0114362D01*
X0244273Y0110370D02*
X0296532Y0110370D01*
X0295865Y0109571D02*
X0243794Y0109571D01*
X0242996Y0108773D02*
X0295865Y0108773D01*
X0295865Y0107974D02*
X0242197Y0107974D01*
X0241399Y0107176D02*
X0296486Y0107176D01*
X0305265Y0115161D02*
X0126465Y0115161D01*
X0126465Y0114797D02*
X0126465Y0116703D01*
X0125117Y0118050D01*
X0123212Y0118050D01*
X0122612Y0117450D01*
X0118717Y0117450D01*
X0118117Y0118050D01*
X0116212Y0118050D01*
X0114865Y0116703D01*
X0114865Y0114797D01*
X0116212Y0113450D01*
X0118117Y0113450D01*
X0118717Y0114050D01*
X0122612Y0114050D01*
X0123212Y0113450D01*
X0125117Y0113450D01*
X0126465Y0114797D01*
X0126030Y0114362D02*
X0238969Y0114362D01*
X0238170Y0113564D02*
X0125231Y0113564D01*
X0123098Y0113564D02*
X0118231Y0113564D01*
X0116098Y0113564D02*
X0062415Y0113564D01*
X0062415Y0114362D02*
X0115300Y0114362D01*
X0114865Y0115161D02*
X0062415Y0115161D01*
X0062415Y0115959D02*
X0114865Y0115959D01*
X0114920Y0116758D02*
X0062415Y0116758D01*
X0062415Y0117556D02*
X0115719Y0117556D01*
X0118611Y0117556D02*
X0122719Y0117556D01*
X0125611Y0117556D02*
X0305265Y0117556D01*
X0305265Y0116758D02*
X0126410Y0116758D01*
X0126465Y0115959D02*
X0305265Y0115959D01*
X0305265Y0118355D02*
X0062415Y0118355D01*
X0062415Y0119153D02*
X0305265Y0119153D01*
X0305265Y0119952D02*
X0086675Y0119952D01*
X0085705Y0119550D02*
X0088461Y0120692D01*
X0090571Y0122802D01*
X0091713Y0125558D01*
X0091713Y0128542D01*
X0090571Y0131298D01*
X0088461Y0133408D01*
X0085705Y0134550D01*
X0082721Y0134550D01*
X0079964Y0133408D01*
X0077855Y0131298D01*
X0076713Y0128542D01*
X0076713Y0125558D01*
X0077855Y0122802D01*
X0079964Y0120692D01*
X0082721Y0119550D01*
X0085705Y0119550D01*
X0088520Y0120751D02*
X0305265Y0120751D01*
X0305265Y0121549D02*
X0089318Y0121549D01*
X0090117Y0122348D02*
X0305265Y0122348D01*
X0305874Y0123146D02*
X0090714Y0123146D01*
X0091044Y0123945D02*
X0306672Y0123945D01*
X0307471Y0124743D02*
X0091375Y0124743D01*
X0091706Y0125542D02*
X0306121Y0125542D01*
X0305181Y0126340D02*
X0091713Y0126340D01*
X0091713Y0127139D02*
X0304382Y0127139D01*
X0303584Y0127937D02*
X0091713Y0127937D01*
X0091633Y0128736D02*
X0302785Y0128736D01*
X0301987Y0129534D02*
X0091302Y0129534D01*
X0090971Y0130333D02*
X0301188Y0130333D01*
X0300390Y0131131D02*
X0090640Y0131131D01*
X0089940Y0131930D02*
X0299591Y0131930D01*
X0298990Y0132728D02*
X0089141Y0132728D01*
X0088175Y0133527D02*
X0298765Y0133527D01*
X0298765Y0134325D02*
X0086247Y0134325D01*
X0082178Y0134325D02*
X0062415Y0134325D01*
X0062415Y0133527D02*
X0080251Y0133527D01*
X0079284Y0132728D02*
X0062415Y0132728D01*
X0062415Y0131930D02*
X0078486Y0131930D01*
X0077785Y0131131D02*
X0062415Y0131131D01*
X0062415Y0130333D02*
X0077455Y0130333D01*
X0077124Y0129534D02*
X0062415Y0129534D01*
X0062415Y0128736D02*
X0076793Y0128736D01*
X0076713Y0127937D02*
X0062415Y0127937D01*
X0062415Y0127139D02*
X0076713Y0127139D01*
X0076713Y0126340D02*
X0062415Y0126340D01*
X0062415Y0125542D02*
X0076720Y0125542D01*
X0077050Y0124743D02*
X0062415Y0124743D01*
X0062415Y0123945D02*
X0077381Y0123945D01*
X0077712Y0123146D02*
X0062415Y0123146D01*
X0062415Y0122348D02*
X0078309Y0122348D01*
X0079107Y0121549D02*
X0062415Y0121549D01*
X0062415Y0120751D02*
X0079906Y0120751D01*
X0081750Y0119952D02*
X0062415Y0119952D01*
X0062415Y0112765D02*
X0237372Y0112765D01*
X0236573Y0111967D02*
X0062415Y0111967D01*
X0062415Y0111168D02*
X0235775Y0111168D01*
X0234976Y0110370D02*
X0062415Y0110370D01*
X0062415Y0109571D02*
X0234178Y0109571D01*
X0233379Y0108773D02*
X0062415Y0108773D01*
X0062415Y0107974D02*
X0232581Y0107974D01*
X0231782Y0107176D02*
X0062415Y0107176D01*
X0062415Y0106377D02*
X0230984Y0106377D01*
X0230185Y0105579D02*
X0062415Y0105579D01*
X0062415Y0104780D02*
X0229387Y0104780D01*
X0228995Y0103982D02*
X0062415Y0103982D01*
X0062415Y0103183D02*
X0228765Y0103183D01*
X0228765Y0102385D02*
X0062415Y0102385D01*
X0062415Y0101586D02*
X0228765Y0101586D01*
X0228765Y0100788D02*
X0062415Y0100788D01*
X0062415Y0099989D02*
X0228765Y0099989D01*
X0228765Y0099191D02*
X0062415Y0099191D01*
X0062415Y0098392D02*
X0228765Y0098392D01*
X0228765Y0097594D02*
X0062415Y0097594D01*
X0062415Y0096795D02*
X0228765Y0096795D01*
X0228765Y0095997D02*
X0062415Y0095997D01*
X0062415Y0095198D02*
X0228765Y0095198D01*
X0228765Y0094400D02*
X0062415Y0094400D01*
X0062415Y0093601D02*
X0228765Y0093601D01*
X0228765Y0092803D02*
X0062415Y0092803D01*
X0062415Y0092004D02*
X0228765Y0092004D01*
X0228765Y0091206D02*
X0062415Y0091206D01*
X0062415Y0090407D02*
X0228765Y0090407D01*
X0228765Y0089609D02*
X0062415Y0089609D01*
X0062415Y0088810D02*
X0141668Y0088810D01*
X0140618Y0088012D02*
X0062415Y0088012D01*
X0062415Y0087213D02*
X0139820Y0087213D01*
X0139021Y0086415D02*
X0062415Y0086415D01*
X0062415Y0085616D02*
X0138223Y0085616D01*
X0137424Y0084818D02*
X0062415Y0084818D01*
X0062415Y0084019D02*
X0136625Y0084019D01*
X0135827Y0083220D02*
X0062415Y0083220D01*
X0062415Y0082422D02*
X0135028Y0082422D01*
X0134230Y0081623D02*
X0062415Y0081623D01*
X0062415Y0080825D02*
X0133431Y0080825D01*
X0132633Y0080026D02*
X0062415Y0080026D01*
X0062415Y0079228D02*
X0131834Y0079228D01*
X0131036Y0078429D02*
X0062415Y0078429D01*
X0062415Y0077631D02*
X0130237Y0077631D01*
X0129439Y0076832D02*
X0062415Y0076832D01*
X0062415Y0076034D02*
X0128640Y0076034D01*
X0127842Y0075235D02*
X0062415Y0075235D01*
X0062415Y0074437D02*
X0127043Y0074437D01*
X0126245Y0073638D02*
X0062415Y0073638D01*
X0062415Y0072840D02*
X0125446Y0072840D01*
X0124648Y0072041D02*
X0062415Y0072041D01*
X0062415Y0071243D02*
X0123849Y0071243D01*
X0123051Y0070444D02*
X0062415Y0070444D01*
X0062415Y0069646D02*
X0122252Y0069646D01*
X0121454Y0068847D02*
X0062415Y0068847D01*
X0062415Y0068049D02*
X0120655Y0068049D01*
X0119857Y0067250D02*
X0062415Y0067250D01*
X0062415Y0066452D02*
X0119058Y0066452D01*
X0118260Y0065653D02*
X0062415Y0065653D01*
X0062415Y0064855D02*
X0117461Y0064855D01*
X0116663Y0064056D02*
X0062415Y0064056D01*
X0062415Y0063258D02*
X0115864Y0063258D01*
X0115062Y0062459D02*
X0062415Y0062459D01*
X0062415Y0061661D02*
X0114273Y0061661D01*
X0113945Y0060862D02*
X0062415Y0060862D01*
X0062415Y0060064D02*
X0113763Y0060064D01*
X0113765Y0059265D02*
X0062415Y0059265D01*
X0062415Y0058467D02*
X0113773Y0058467D01*
X0113778Y0057668D02*
X0062415Y0057668D01*
X0062415Y0056870D02*
X0113783Y0056870D01*
X0113788Y0056071D02*
X0062415Y0056071D01*
X0062415Y0055273D02*
X0113793Y0055273D01*
X0113798Y0054474D02*
X0062415Y0054474D01*
X0062415Y0053676D02*
X0113803Y0053676D01*
X0068830Y0052877D02*
X0062415Y0052877D01*
X0062415Y0052079D02*
X0067685Y0052079D01*
X0067118Y0051280D02*
X0062415Y0051280D01*
X0062415Y0050482D02*
X0066788Y0050482D01*
X0066765Y0049683D02*
X0062415Y0049683D01*
X0062415Y0048884D02*
X0066843Y0048884D01*
X0067174Y0048086D02*
X0062415Y0048086D01*
X0062415Y0047287D02*
X0067819Y0047287D01*
X0069153Y0046489D02*
X0062415Y0046489D01*
X0179263Y0064056D02*
X0182814Y0064056D01*
X0182016Y0063258D02*
X0180061Y0063258D01*
X0180860Y0062459D02*
X0181217Y0062459D01*
X0189472Y0068847D02*
X0191411Y0068847D01*
X0191165Y0069646D02*
X0189165Y0069646D01*
X0189165Y0070444D02*
X0191165Y0070444D01*
X0191165Y0071243D02*
X0189165Y0071243D01*
X0189165Y0072041D02*
X0191165Y0072041D01*
X0191598Y0072840D02*
X0188732Y0072840D01*
X0187933Y0073638D02*
X0192396Y0073638D01*
X0193195Y0074437D02*
X0187135Y0074437D01*
X0190270Y0068049D02*
X0192209Y0068049D01*
X0198120Y0068049D02*
X0202211Y0068049D01*
X0198314Y0063258D02*
X0334915Y0063258D01*
X0334915Y0064056D02*
X0270724Y0064056D01*
X0271465Y0064855D02*
X0334915Y0064855D01*
X0334915Y0065653D02*
X0271465Y0065653D01*
X0271465Y0066452D02*
X0334915Y0066452D01*
X0334915Y0067250D02*
X0270917Y0067250D01*
X0267708Y0062459D02*
X0334915Y0062459D01*
X0334915Y0061661D02*
X0268465Y0061661D01*
X0268465Y0060862D02*
X0334915Y0060862D01*
X0334915Y0060064D02*
X0268465Y0060064D01*
X0264621Y0062459D02*
X0234708Y0062459D01*
X0261830Y0057668D02*
X0197740Y0057668D01*
X0181444Y0083220D02*
X0229886Y0083220D01*
X0229202Y0084019D02*
X0182128Y0084019D01*
X0182459Y0084818D02*
X0228871Y0084818D01*
X0228765Y0085616D02*
X0182565Y0085616D01*
X0182565Y0086415D02*
X0228765Y0086415D01*
X0228765Y0087213D02*
X0182239Y0087213D01*
X0181712Y0088012D02*
X0228765Y0088012D01*
X0228765Y0088810D02*
X0180662Y0088810D01*
X0235565Y0088810D02*
X0237865Y0088810D01*
X0237865Y0089609D02*
X0235565Y0089609D01*
X0235565Y0090407D02*
X0237865Y0090407D01*
X0238368Y0091206D02*
X0235565Y0091206D01*
X0235565Y0092004D02*
X0239166Y0092004D01*
X0241163Y0092004D02*
X0272166Y0092004D01*
X0271651Y0088012D02*
X0241679Y0088012D01*
X0238651Y0088012D02*
X0235565Y0088012D01*
X0298765Y0135124D02*
X0062415Y0135124D01*
X0062415Y0135922D02*
X0298765Y0135922D01*
X0298765Y0136721D02*
X0062415Y0136721D01*
X0062415Y0137519D02*
X0298765Y0137519D01*
X0298765Y0138318D02*
X0062415Y0138318D01*
X0062415Y0139116D02*
X0298765Y0139116D01*
X0298765Y0139915D02*
X0062415Y0139915D01*
X0062415Y0140713D02*
X0298765Y0140713D01*
X0298765Y0141512D02*
X0062415Y0141512D01*
X0062415Y0142310D02*
X0100150Y0142310D01*
X0100277Y0142183D02*
X0101858Y0141529D01*
X0103568Y0141529D01*
X0105149Y0142183D01*
X0106358Y0143393D01*
X0107013Y0144973D01*
X0107013Y0146684D01*
X0106358Y0148264D01*
X0105149Y0149474D01*
X0103568Y0150129D01*
X0101858Y0150129D01*
X0100277Y0149474D01*
X0099067Y0148264D01*
X0098413Y0146684D01*
X0098413Y0144973D01*
X0099067Y0143393D01*
X0100277Y0142183D01*
X0099352Y0143109D02*
X0062415Y0143109D01*
X0062415Y0143907D02*
X0098854Y0143907D01*
X0098524Y0144706D02*
X0062415Y0144706D01*
X0062415Y0145504D02*
X0098413Y0145504D01*
X0098413Y0146303D02*
X0062415Y0146303D01*
X0062415Y0147101D02*
X0098586Y0147101D01*
X0098916Y0147900D02*
X0062415Y0147900D01*
X0062415Y0148698D02*
X0099501Y0148698D01*
X0100332Y0149497D02*
X0062415Y0149497D01*
X0062415Y0150295D02*
X0123465Y0150295D01*
X0123465Y0150454D02*
X0123465Y0148303D01*
X0122865Y0147703D01*
X0122865Y0145797D01*
X0124212Y0144450D01*
X0126117Y0144450D01*
X0127465Y0145797D01*
X0127465Y0147703D01*
X0126865Y0148303D01*
X0126865Y0149046D01*
X0126869Y0149050D01*
X0128869Y0149050D01*
X0129465Y0149646D01*
X0129465Y0148303D01*
X0128865Y0147703D01*
X0128865Y0145797D01*
X0130212Y0144450D01*
X0132117Y0144450D01*
X0133465Y0145797D01*
X0133465Y0147703D01*
X0132865Y0148303D01*
X0132865Y0149046D01*
X0132869Y0149050D01*
X0135465Y0149050D01*
X0135465Y0148303D01*
X0134865Y0147703D01*
X0134865Y0145797D01*
X0136212Y0144450D01*
X0138117Y0144450D01*
X0139465Y0145797D01*
X0139465Y0147703D01*
X0138865Y0148303D01*
X0138865Y0149046D01*
X0139869Y0150050D01*
X0157869Y0150050D01*
X0158269Y0150450D01*
X0159117Y0150450D01*
X0160465Y0151797D01*
X0160465Y0153703D01*
X0159117Y0155050D01*
X0157869Y0155050D01*
X0158269Y0155450D01*
X0159117Y0155450D01*
X0160465Y0156797D01*
X0160465Y0158703D01*
X0160117Y0159050D01*
X0175758Y0159050D01*
X0175958Y0159250D01*
X0185069Y0159250D01*
X0186065Y0160246D01*
X0187269Y0161450D01*
X0188117Y0161450D01*
X0189465Y0162797D01*
X0189465Y0164703D01*
X0189117Y0165050D01*
X0191461Y0165050D01*
X0192865Y0163646D01*
X0192865Y0162797D01*
X0194212Y0161450D01*
X0196117Y0161450D01*
X0197465Y0162797D01*
X0197465Y0164703D01*
X0196117Y0166050D01*
X0195269Y0166050D01*
X0193865Y0167454D01*
X0192869Y0168450D01*
X0184461Y0168450D01*
X0183465Y0167454D01*
X0180461Y0164450D01*
X0149461Y0164450D01*
X0146461Y0161450D01*
X0134461Y0161450D01*
X0133461Y0160450D01*
X0126717Y0160450D01*
X0126117Y0161050D01*
X0124212Y0161050D01*
X0122865Y0159703D01*
X0122865Y0157797D01*
X0124212Y0156450D01*
X0126117Y0156450D01*
X0126717Y0157050D01*
X0133061Y0157050D01*
X0132461Y0156450D01*
X0125461Y0156450D01*
X0124461Y0155450D01*
X0123465Y0154454D01*
X0123465Y0154303D01*
X0122865Y0153703D01*
X0122865Y0151797D01*
X0123836Y0150826D01*
X0123465Y0150454D01*
X0123568Y0151094D02*
X0062415Y0151094D01*
X0062415Y0151892D02*
X0092799Y0151892D01*
X0092477Y0152026D02*
X0094058Y0151371D01*
X0095768Y0151371D01*
X0097349Y0152026D01*
X0098558Y0153235D01*
X0098813Y0153850D01*
X0099067Y0153235D01*
X0100277Y0152026D01*
X0101858Y0151371D01*
X0103568Y0151371D01*
X0105149Y0152026D01*
X0106358Y0153235D01*
X0107013Y0154816D01*
X0107013Y0156527D01*
X0106358Y0158107D01*
X0105149Y0159317D01*
X0103568Y0159971D01*
X0101858Y0159971D01*
X0100277Y0159317D01*
X0099067Y0158107D01*
X0098813Y0157492D01*
X0098558Y0158107D01*
X0097349Y0159317D01*
X0095768Y0159971D01*
X0094058Y0159971D01*
X0092477Y0159317D01*
X0091267Y0158107D01*
X0090613Y0156527D01*
X0090613Y0154816D01*
X0091267Y0153235D01*
X0092477Y0152026D01*
X0091812Y0152691D02*
X0062415Y0152691D01*
X0062415Y0153489D02*
X0091162Y0153489D01*
X0090832Y0154288D02*
X0062415Y0154288D01*
X0062415Y0155087D02*
X0090613Y0155087D01*
X0090613Y0155885D02*
X0062415Y0155885D01*
X0062415Y0156684D02*
X0090678Y0156684D01*
X0091009Y0157482D02*
X0062415Y0157482D01*
X0062415Y0158281D02*
X0091441Y0158281D01*
X0092240Y0159079D02*
X0062415Y0159079D01*
X0062415Y0159878D02*
X0093831Y0159878D01*
X0095994Y0159878D02*
X0101631Y0159878D01*
X0100040Y0159079D02*
X0097586Y0159079D01*
X0098385Y0158281D02*
X0099241Y0158281D01*
X0103794Y0159878D02*
X0123040Y0159878D01*
X0122865Y0159079D02*
X0105386Y0159079D01*
X0106185Y0158281D02*
X0122865Y0158281D01*
X0123180Y0157482D02*
X0106617Y0157482D01*
X0106948Y0156684D02*
X0123979Y0156684D01*
X0124896Y0155885D02*
X0107013Y0155885D01*
X0107013Y0155087D02*
X0124097Y0155087D01*
X0123450Y0154288D02*
X0106794Y0154288D01*
X0106463Y0153489D02*
X0122865Y0153489D01*
X0122865Y0152691D02*
X0105814Y0152691D01*
X0104826Y0151892D02*
X0122865Y0151892D01*
X0123465Y0149497D02*
X0105093Y0149497D01*
X0105924Y0148698D02*
X0123465Y0148698D01*
X0123062Y0147900D02*
X0106509Y0147900D01*
X0106840Y0147101D02*
X0122865Y0147101D01*
X0122865Y0146303D02*
X0107013Y0146303D01*
X0107013Y0145504D02*
X0123158Y0145504D01*
X0123956Y0144706D02*
X0106902Y0144706D01*
X0106571Y0143907D02*
X0298765Y0143907D01*
X0298765Y0143109D02*
X0106074Y0143109D01*
X0105276Y0142310D02*
X0298765Y0142310D01*
X0298765Y0144706D02*
X0138373Y0144706D01*
X0139172Y0145504D02*
X0298765Y0145504D01*
X0298765Y0146303D02*
X0139465Y0146303D01*
X0139465Y0147101D02*
X0298765Y0147101D01*
X0298765Y0147900D02*
X0139268Y0147900D01*
X0138865Y0148698D02*
X0298765Y0148698D01*
X0298765Y0149497D02*
X0139316Y0149497D01*
X0135465Y0148698D02*
X0132865Y0148698D01*
X0133268Y0147900D02*
X0135062Y0147900D01*
X0134865Y0147101D02*
X0133465Y0147101D01*
X0133465Y0146303D02*
X0134865Y0146303D01*
X0135158Y0145504D02*
X0133172Y0145504D01*
X0132373Y0144706D02*
X0135956Y0144706D01*
X0129956Y0144706D02*
X0126373Y0144706D01*
X0127172Y0145504D02*
X0129158Y0145504D01*
X0128865Y0146303D02*
X0127465Y0146303D01*
X0127465Y0147101D02*
X0128865Y0147101D01*
X0129062Y0147900D02*
X0127268Y0147900D01*
X0126865Y0148698D02*
X0129465Y0148698D01*
X0129465Y0149497D02*
X0129316Y0149497D01*
X0126351Y0156684D02*
X0132694Y0156684D01*
X0133687Y0160676D02*
X0126491Y0160676D01*
X0123838Y0160676D02*
X0062415Y0160676D01*
X0062415Y0161475D02*
X0146485Y0161475D01*
X0147284Y0162273D02*
X0062415Y0162273D01*
X0062415Y0163072D02*
X0148082Y0163072D01*
X0148881Y0163870D02*
X0062415Y0163870D01*
X0062415Y0164669D02*
X0180679Y0164669D01*
X0181478Y0165467D02*
X0062415Y0165467D01*
X0062415Y0166266D02*
X0182276Y0166266D01*
X0183075Y0167064D02*
X0085980Y0167064D01*
X0085705Y0166950D02*
X0088461Y0168092D01*
X0090571Y0170202D01*
X0091713Y0172958D01*
X0091713Y0175942D01*
X0090571Y0178698D01*
X0088461Y0180808D01*
X0085705Y0181950D01*
X0082721Y0181950D01*
X0079964Y0180808D01*
X0077855Y0178698D01*
X0076713Y0175942D01*
X0076713Y0172958D01*
X0077855Y0170202D01*
X0079964Y0168092D01*
X0082721Y0166950D01*
X0085705Y0166950D01*
X0087908Y0167863D02*
X0183873Y0167863D01*
X0189465Y0164669D02*
X0191842Y0164669D01*
X0192641Y0163870D02*
X0189465Y0163870D01*
X0189465Y0163072D02*
X0192865Y0163072D01*
X0193389Y0162273D02*
X0188941Y0162273D01*
X0188142Y0161475D02*
X0194188Y0161475D01*
X0196142Y0161475D02*
X0220465Y0161475D01*
X0220465Y0161046D02*
X0221465Y0160046D01*
X0222461Y0159050D01*
X0242869Y0159050D01*
X0243269Y0159450D01*
X0244117Y0159450D01*
X0245465Y0160797D01*
X0245465Y0162703D01*
X0244117Y0164050D01*
X0242212Y0164050D01*
X0240865Y0162703D01*
X0240865Y0162450D01*
X0223869Y0162450D01*
X0223865Y0162454D01*
X0223865Y0167450D01*
X0224117Y0167450D01*
X0225465Y0168797D01*
X0225465Y0170703D01*
X0224117Y0172050D01*
X0222212Y0172050D01*
X0220865Y0170703D01*
X0220865Y0169854D01*
X0220465Y0169454D01*
X0220465Y0161046D01*
X0220835Y0160676D02*
X0186495Y0160676D01*
X0185697Y0159878D02*
X0221633Y0159878D01*
X0222432Y0159079D02*
X0175787Y0159079D01*
X0160465Y0158281D02*
X0246465Y0158281D01*
X0246465Y0158454D02*
X0246465Y0157303D01*
X0245865Y0156703D01*
X0245865Y0154797D01*
X0247212Y0153450D01*
X0248865Y0153450D01*
X0248865Y0151797D01*
X0250212Y0150450D01*
X0252117Y0150450D01*
X0253465Y0151797D01*
X0253465Y0153450D01*
X0254865Y0153450D01*
X0254865Y0151797D01*
X0256212Y0150450D01*
X0258117Y0150450D01*
X0259465Y0151797D01*
X0259465Y0153450D01*
X0260865Y0153450D01*
X0260865Y0151797D01*
X0262212Y0150450D01*
X0264117Y0150450D01*
X0265465Y0151797D01*
X0265465Y0153450D01*
X0267117Y0153450D01*
X0268465Y0154797D01*
X0268465Y0156703D01*
X0268090Y0157077D01*
X0272696Y0162450D01*
X0273117Y0162450D01*
X0274465Y0163797D01*
X0274465Y0165703D01*
X0273117Y0167050D01*
X0271212Y0167050D01*
X0269865Y0165703D01*
X0269865Y0164986D01*
X0264865Y0159153D01*
X0264865Y0163197D01*
X0265465Y0163797D01*
X0265465Y0165703D01*
X0264117Y0167050D01*
X0262212Y0167050D01*
X0261865Y0166703D01*
X0261865Y0168797D01*
X0262212Y0168450D01*
X0264117Y0168450D01*
X0265465Y0169797D01*
X0265465Y0171703D01*
X0264117Y0173050D01*
X0262212Y0173050D01*
X0261612Y0172450D01*
X0260461Y0172450D01*
X0259865Y0171854D01*
X0259865Y0174046D01*
X0260869Y0175050D01*
X0261612Y0175050D01*
X0262212Y0174450D01*
X0264117Y0174450D01*
X0265465Y0175797D01*
X0265465Y0177703D01*
X0264117Y0179050D01*
X0262212Y0179050D01*
X0261612Y0178450D01*
X0259461Y0178450D01*
X0258465Y0177454D01*
X0256465Y0175454D01*
X0256465Y0159454D01*
X0255865Y0158854D01*
X0255865Y0163197D01*
X0256465Y0163797D01*
X0256465Y0165703D01*
X0255117Y0167050D01*
X0253212Y0167050D01*
X0252865Y0166703D01*
X0252865Y0168797D01*
X0253212Y0168450D01*
X0255117Y0168450D01*
X0256465Y0169797D01*
X0256465Y0171703D01*
X0255117Y0173050D01*
X0253212Y0173050D01*
X0252612Y0172450D01*
X0251461Y0172450D01*
X0250865Y0171854D01*
X0250865Y0174046D01*
X0251869Y0175050D01*
X0252612Y0175050D01*
X0253212Y0174450D01*
X0255117Y0174450D01*
X0256465Y0175797D01*
X0256465Y0177703D01*
X0255117Y0179050D01*
X0253212Y0179050D01*
X0252612Y0178450D01*
X0250461Y0178450D01*
X0249465Y0177454D01*
X0247465Y0175454D01*
X0247465Y0159454D01*
X0246465Y0158454D01*
X0247090Y0159079D02*
X0242898Y0159079D01*
X0244545Y0159878D02*
X0247465Y0159878D01*
X0247465Y0160676D02*
X0245344Y0160676D01*
X0245465Y0161475D02*
X0247465Y0161475D01*
X0247465Y0162273D02*
X0245465Y0162273D01*
X0245096Y0163072D02*
X0247465Y0163072D01*
X0247465Y0163870D02*
X0244297Y0163870D01*
X0242032Y0163870D02*
X0223865Y0163870D01*
X0223865Y0163072D02*
X0241234Y0163072D01*
X0246465Y0157482D02*
X0160465Y0157482D01*
X0160351Y0156684D02*
X0245865Y0156684D01*
X0245865Y0155885D02*
X0159552Y0155885D01*
X0159879Y0154288D02*
X0246374Y0154288D01*
X0245865Y0155087D02*
X0157905Y0155087D01*
X0160465Y0153489D02*
X0247173Y0153489D01*
X0248865Y0152691D02*
X0160465Y0152691D01*
X0160465Y0151892D02*
X0248865Y0151892D01*
X0249568Y0151094D02*
X0159761Y0151094D01*
X0158114Y0150295D02*
X0298765Y0150295D01*
X0298765Y0151094D02*
X0264761Y0151094D01*
X0265465Y0151892D02*
X0298765Y0151892D01*
X0298765Y0152691D02*
X0265465Y0152691D01*
X0267157Y0153489D02*
X0298765Y0153489D01*
X0298765Y0154288D02*
X0267955Y0154288D01*
X0268465Y0155087D02*
X0298765Y0155087D01*
X0303565Y0155087D02*
X0334915Y0155087D01*
X0334915Y0155885D02*
X0303565Y0155885D01*
X0303565Y0156684D02*
X0323979Y0156684D01*
X0324212Y0156450D02*
X0326117Y0156450D01*
X0327465Y0157797D01*
X0327465Y0159703D01*
X0326117Y0161050D01*
X0325269Y0161050D01*
X0323069Y0163250D01*
X0325269Y0165450D01*
X0326117Y0165450D01*
X0327465Y0166797D01*
X0327465Y0168703D01*
X0326117Y0170050D01*
X0324212Y0170050D01*
X0322865Y0168703D01*
X0322865Y0167854D01*
X0321461Y0166450D01*
X0313717Y0166450D01*
X0313117Y0167050D01*
X0311212Y0167050D01*
X0309865Y0165703D01*
X0309865Y0163797D01*
X0310212Y0163450D01*
X0305869Y0163450D01*
X0304465Y0164854D01*
X0304465Y0165703D01*
X0303117Y0167050D01*
X0301212Y0167050D01*
X0299865Y0165703D01*
X0299865Y0163797D01*
X0301212Y0162450D01*
X0302061Y0162450D01*
X0303465Y0161046D01*
X0304461Y0160050D01*
X0321461Y0160050D01*
X0322865Y0158646D01*
X0322865Y0157797D01*
X0324212Y0156450D01*
X0323180Y0157482D02*
X0303565Y0157482D01*
X0303543Y0158281D02*
X0322865Y0158281D01*
X0322432Y0159079D02*
X0303212Y0159079D01*
X0302300Y0159878D02*
X0321633Y0159878D01*
X0324046Y0162273D02*
X0334915Y0162273D01*
X0334915Y0161475D02*
X0324844Y0161475D01*
X0326491Y0160676D02*
X0334915Y0160676D01*
X0334915Y0159878D02*
X0327290Y0159878D01*
X0327465Y0159079D02*
X0334915Y0159079D01*
X0334915Y0158281D02*
X0327465Y0158281D01*
X0327150Y0157482D02*
X0334915Y0157482D01*
X0334915Y0156684D02*
X0326351Y0156684D01*
X0323247Y0163072D02*
X0334915Y0163072D01*
X0334915Y0163870D02*
X0323689Y0163870D01*
X0324488Y0164669D02*
X0334915Y0164669D01*
X0334915Y0165467D02*
X0326135Y0165467D01*
X0326933Y0166266D02*
X0334915Y0166266D01*
X0334915Y0167064D02*
X0327465Y0167064D01*
X0327465Y0167863D02*
X0334915Y0167863D01*
X0334915Y0168661D02*
X0327465Y0168661D01*
X0326708Y0169460D02*
X0334915Y0169460D01*
X0334915Y0170258D02*
X0293865Y0170258D01*
X0293865Y0170454D02*
X0290865Y0173454D01*
X0289869Y0174450D01*
X0284869Y0174450D01*
X0283865Y0175454D01*
X0283865Y0179197D01*
X0284465Y0179797D01*
X0284465Y0181703D01*
X0283117Y0183050D01*
X0281212Y0183050D01*
X0279865Y0181703D01*
X0279865Y0179797D01*
X0280465Y0179197D01*
X0280465Y0174046D01*
X0281461Y0173050D01*
X0283461Y0171050D01*
X0288461Y0171050D01*
X0290465Y0169046D01*
X0290465Y0166303D01*
X0289865Y0165703D01*
X0289865Y0163797D01*
X0291212Y0162450D01*
X0293117Y0162450D01*
X0294465Y0163797D01*
X0294465Y0165703D01*
X0293865Y0166303D01*
X0293865Y0170454D01*
X0293262Y0171057D02*
X0334915Y0171057D01*
X0334915Y0171855D02*
X0292464Y0171855D01*
X0291665Y0172654D02*
X0334915Y0172654D01*
X0334915Y0173452D02*
X0290867Y0173452D01*
X0290068Y0174251D02*
X0334915Y0174251D01*
X0334915Y0175049D02*
X0284270Y0175049D01*
X0283865Y0175848D02*
X0334915Y0175848D01*
X0334915Y0176646D02*
X0283865Y0176646D01*
X0283865Y0177445D02*
X0316470Y0177445D01*
X0315671Y0178243D02*
X0283865Y0178243D01*
X0283865Y0179042D02*
X0314873Y0179042D01*
X0314074Y0179840D02*
X0284465Y0179840D01*
X0284465Y0180639D02*
X0313276Y0180639D01*
X0312477Y0181437D02*
X0284465Y0181437D01*
X0283932Y0182236D02*
X0311679Y0182236D01*
X0310880Y0183034D02*
X0283133Y0183034D01*
X0281197Y0183034D02*
X0113865Y0183034D01*
X0113865Y0182236D02*
X0280398Y0182236D01*
X0279865Y0181437D02*
X0113865Y0181437D01*
X0113865Y0180639D02*
X0279865Y0180639D01*
X0279865Y0179840D02*
X0113865Y0179840D01*
X0113865Y0179042D02*
X0253204Y0179042D01*
X0255126Y0179042D02*
X0262204Y0179042D01*
X0264126Y0179042D02*
X0280465Y0179042D01*
X0280465Y0178243D02*
X0264924Y0178243D01*
X0265465Y0177445D02*
X0280465Y0177445D01*
X0280465Y0176646D02*
X0265465Y0176646D01*
X0265465Y0175848D02*
X0280465Y0175848D01*
X0280465Y0175049D02*
X0264717Y0175049D01*
X0264514Y0172654D02*
X0281857Y0172654D01*
X0281058Y0173452D02*
X0259865Y0173452D01*
X0259865Y0172654D02*
X0261816Y0172654D01*
X0259866Y0171855D02*
X0259865Y0171855D01*
X0260070Y0174251D02*
X0280465Y0174251D01*
X0282655Y0171855D02*
X0265312Y0171855D01*
X0265465Y0171057D02*
X0283454Y0171057D01*
X0280305Y0167863D02*
X0290465Y0167863D01*
X0290465Y0168661D02*
X0279506Y0168661D01*
X0280538Y0167064D02*
X0290465Y0167064D01*
X0290428Y0166266D02*
X0281336Y0166266D01*
X0282135Y0165467D02*
X0289865Y0165467D01*
X0289865Y0164669D02*
X0282933Y0164669D01*
X0283732Y0163870D02*
X0289865Y0163870D01*
X0290590Y0163072D02*
X0284530Y0163072D01*
X0285329Y0162273D02*
X0302238Y0162273D01*
X0303036Y0161475D02*
X0286127Y0161475D01*
X0286926Y0160676D02*
X0303835Y0160676D01*
X0305449Y0163870D02*
X0309865Y0163870D01*
X0309865Y0164669D02*
X0304650Y0164669D01*
X0304465Y0165467D02*
X0309865Y0165467D01*
X0310428Y0166266D02*
X0303902Y0166266D01*
X0300428Y0166266D02*
X0293902Y0166266D01*
X0293865Y0167064D02*
X0322075Y0167064D01*
X0322865Y0167863D02*
X0293865Y0167863D01*
X0293865Y0168661D02*
X0322865Y0168661D01*
X0323622Y0169460D02*
X0293865Y0169460D01*
X0290051Y0169460D02*
X0265127Y0169460D01*
X0265465Y0170258D02*
X0289252Y0170258D01*
X0294465Y0165467D02*
X0299865Y0165467D01*
X0299865Y0164669D02*
X0294465Y0164669D01*
X0294465Y0163870D02*
X0299865Y0163870D01*
X0300590Y0163072D02*
X0293739Y0163072D01*
X0287724Y0159878D02*
X0300030Y0159878D01*
X0303565Y0154288D02*
X0334915Y0154288D01*
X0334915Y0153489D02*
X0303565Y0153489D01*
X0303565Y0152691D02*
X0334915Y0152691D01*
X0334915Y0151892D02*
X0303565Y0151892D01*
X0303565Y0151094D02*
X0334915Y0151094D01*
X0334915Y0150295D02*
X0303565Y0150295D01*
X0303565Y0149497D02*
X0334915Y0149497D01*
X0334915Y0148698D02*
X0303565Y0148698D01*
X0303565Y0147900D02*
X0334915Y0147900D01*
X0334915Y0147101D02*
X0303565Y0147101D01*
X0303565Y0146303D02*
X0334915Y0146303D01*
X0334915Y0145504D02*
X0303565Y0145504D01*
X0303565Y0144706D02*
X0334915Y0144706D01*
X0334915Y0143907D02*
X0303565Y0143907D01*
X0303565Y0143109D02*
X0334915Y0143109D01*
X0334915Y0142310D02*
X0303565Y0142310D01*
X0303565Y0141512D02*
X0334915Y0141512D01*
X0334915Y0140713D02*
X0303565Y0140713D01*
X0303565Y0139915D02*
X0334915Y0139915D01*
X0334915Y0139116D02*
X0303565Y0139116D01*
X0303565Y0138318D02*
X0305480Y0138318D01*
X0304865Y0137519D02*
X0303565Y0137519D01*
X0303565Y0136721D02*
X0304865Y0136721D01*
X0304865Y0135922D02*
X0303565Y0135922D01*
X0303565Y0135124D02*
X0305538Y0135124D01*
X0303984Y0134325D02*
X0319337Y0134325D01*
X0322194Y0133527D02*
X0325196Y0133527D01*
X0325196Y0133367D02*
X0325782Y0132781D01*
X0330548Y0132781D01*
X0331133Y0133367D01*
X0331133Y0138133D01*
X0330548Y0138718D01*
X0325782Y0138718D01*
X0325196Y0138133D01*
X0325196Y0133367D01*
X0325196Y0134325D02*
X0322993Y0134325D01*
X0323465Y0135124D02*
X0325196Y0135124D01*
X0325196Y0135922D02*
X0323465Y0135922D01*
X0323447Y0136721D02*
X0325196Y0136721D01*
X0325196Y0137519D02*
X0322648Y0137519D01*
X0321001Y0138318D02*
X0325381Y0138318D01*
X0330948Y0138318D02*
X0334915Y0138318D01*
X0334915Y0137519D02*
X0331133Y0137519D01*
X0331133Y0136721D02*
X0334915Y0136721D01*
X0334915Y0135922D02*
X0331133Y0135922D01*
X0331133Y0135124D02*
X0334915Y0135124D01*
X0334915Y0134325D02*
X0331133Y0134325D01*
X0331133Y0133527D02*
X0334915Y0133527D01*
X0334915Y0132728D02*
X0321874Y0132728D01*
X0322672Y0131930D02*
X0334915Y0131930D01*
X0334915Y0131131D02*
X0323065Y0131131D01*
X0323065Y0130333D02*
X0334915Y0130333D01*
X0334915Y0129534D02*
X0323465Y0129534D01*
X0323465Y0128736D02*
X0334915Y0128736D01*
X0334915Y0127937D02*
X0323465Y0127937D01*
X0322806Y0127139D02*
X0334915Y0127139D01*
X0334915Y0126340D02*
X0314442Y0126340D01*
X0313643Y0125542D02*
X0315956Y0125542D01*
X0315158Y0124743D02*
X0312845Y0124743D01*
X0312046Y0123945D02*
X0314359Y0123945D01*
X0313561Y0123146D02*
X0311248Y0123146D01*
X0310449Y0122348D02*
X0312762Y0122348D01*
X0311964Y0121549D02*
X0309651Y0121549D01*
X0309065Y0120751D02*
X0311165Y0120751D01*
X0310367Y0119952D02*
X0309065Y0119952D01*
X0309065Y0119153D02*
X0309568Y0119153D01*
X0308269Y0125542D02*
X0308209Y0125542D01*
X0307859Y0131131D02*
X0307178Y0131131D01*
X0306379Y0131930D02*
X0308657Y0131930D01*
X0309456Y0132728D02*
X0305581Y0132728D01*
X0304782Y0133527D02*
X0310255Y0133527D01*
X0316465Y0129534D02*
X0318865Y0129534D01*
X0318865Y0128736D02*
X0316465Y0128736D01*
X0316465Y0127937D02*
X0318865Y0127937D01*
X0319523Y0127139D02*
X0315806Y0127139D01*
X0286343Y0155885D02*
X0268465Y0155885D01*
X0268465Y0156684D02*
X0285544Y0156684D01*
X0284746Y0157482D02*
X0268438Y0157482D01*
X0269122Y0158281D02*
X0283947Y0158281D01*
X0283149Y0159079D02*
X0269806Y0159079D01*
X0270491Y0159878D02*
X0282350Y0159878D01*
X0281552Y0160676D02*
X0271175Y0160676D01*
X0271860Y0161475D02*
X0280753Y0161475D01*
X0279955Y0162273D02*
X0272544Y0162273D01*
X0273739Y0163072D02*
X0279156Y0163072D01*
X0278358Y0163870D02*
X0274465Y0163870D01*
X0274465Y0164669D02*
X0276993Y0164669D01*
X0276195Y0165467D02*
X0274465Y0165467D01*
X0273902Y0166266D02*
X0275865Y0166266D01*
X0275865Y0167064D02*
X0261865Y0167064D01*
X0261865Y0167863D02*
X0276025Y0167863D01*
X0276823Y0168661D02*
X0264329Y0168661D01*
X0262001Y0168661D02*
X0261865Y0168661D01*
X0264902Y0166266D02*
X0270428Y0166266D01*
X0269865Y0165467D02*
X0265465Y0165467D01*
X0265465Y0164669D02*
X0269593Y0164669D01*
X0268908Y0163870D02*
X0265465Y0163870D01*
X0264865Y0163072D02*
X0268224Y0163072D01*
X0267539Y0162273D02*
X0264865Y0162273D01*
X0264865Y0161475D02*
X0266855Y0161475D01*
X0266170Y0160676D02*
X0264865Y0160676D01*
X0264865Y0159878D02*
X0265486Y0159878D01*
X0260865Y0152691D02*
X0259465Y0152691D01*
X0259465Y0151892D02*
X0260865Y0151892D01*
X0261568Y0151094D02*
X0258761Y0151094D01*
X0255568Y0151094D02*
X0252761Y0151094D01*
X0253465Y0151892D02*
X0254865Y0151892D01*
X0254865Y0152691D02*
X0253465Y0152691D01*
X0255865Y0159079D02*
X0256090Y0159079D01*
X0255865Y0159878D02*
X0256465Y0159878D01*
X0256465Y0160676D02*
X0255865Y0160676D01*
X0255865Y0161475D02*
X0256465Y0161475D01*
X0256465Y0162273D02*
X0255865Y0162273D01*
X0255865Y0163072D02*
X0256465Y0163072D01*
X0256465Y0163870D02*
X0256465Y0163870D01*
X0256465Y0164669D02*
X0256465Y0164669D01*
X0256465Y0165467D02*
X0256465Y0165467D01*
X0256465Y0166266D02*
X0255902Y0166266D01*
X0256465Y0167064D02*
X0252865Y0167064D01*
X0252865Y0167863D02*
X0256465Y0167863D01*
X0256465Y0168661D02*
X0255329Y0168661D01*
X0256127Y0169460D02*
X0256465Y0169460D01*
X0256465Y0170258D02*
X0256465Y0170258D01*
X0256465Y0171057D02*
X0256465Y0171057D01*
X0256465Y0171855D02*
X0256312Y0171855D01*
X0256465Y0172654D02*
X0255514Y0172654D01*
X0256465Y0173452D02*
X0250865Y0173452D01*
X0250865Y0172654D02*
X0252816Y0172654D01*
X0250866Y0171855D02*
X0250865Y0171855D01*
X0251070Y0174251D02*
X0256465Y0174251D01*
X0256465Y0175049D02*
X0255717Y0175049D01*
X0256465Y0175848D02*
X0256858Y0175848D01*
X0256465Y0176646D02*
X0257657Y0176646D01*
X0258455Y0177445D02*
X0256465Y0177445D01*
X0255924Y0178243D02*
X0259254Y0178243D01*
X0260868Y0175049D02*
X0261613Y0175049D01*
X0252613Y0175049D02*
X0251868Y0175049D01*
X0249465Y0177454D02*
X0249465Y0177454D01*
X0249455Y0177445D02*
X0113865Y0177445D01*
X0113865Y0178243D02*
X0250254Y0178243D01*
X0248657Y0176646D02*
X0113865Y0176646D01*
X0113865Y0175848D02*
X0247858Y0175848D01*
X0247465Y0175049D02*
X0114118Y0175049D01*
X0113865Y0175303D02*
X0113865Y0185450D01*
X0114117Y0185450D01*
X0115465Y0186797D01*
X0115465Y0188703D01*
X0114117Y0190050D01*
X0112212Y0190050D01*
X0110865Y0188703D01*
X0110865Y0187854D01*
X0110465Y0187454D01*
X0110465Y0175303D01*
X0109865Y0174703D01*
X0109865Y0172797D01*
X0111212Y0171450D01*
X0113117Y0171450D01*
X0114465Y0172797D01*
X0114465Y0174703D01*
X0113865Y0175303D01*
X0114465Y0174251D02*
X0247465Y0174251D01*
X0247465Y0173452D02*
X0114465Y0173452D01*
X0114321Y0172654D02*
X0247465Y0172654D01*
X0247465Y0171855D02*
X0224312Y0171855D01*
X0225111Y0171057D02*
X0247465Y0171057D01*
X0247465Y0170258D02*
X0225465Y0170258D01*
X0225465Y0169460D02*
X0247465Y0169460D01*
X0247465Y0168661D02*
X0225329Y0168661D01*
X0224530Y0167863D02*
X0247465Y0167863D01*
X0247465Y0167064D02*
X0223865Y0167064D01*
X0223865Y0166266D02*
X0247465Y0166266D01*
X0247465Y0165467D02*
X0223865Y0165467D01*
X0223865Y0164669D02*
X0247465Y0164669D01*
X0252865Y0168661D02*
X0253001Y0168661D01*
X0222017Y0171855D02*
X0113523Y0171855D01*
X0110807Y0171855D02*
X0091256Y0171855D01*
X0090925Y0171057D02*
X0221219Y0171057D01*
X0220865Y0170258D02*
X0090594Y0170258D01*
X0089829Y0169460D02*
X0220470Y0169460D01*
X0220465Y0168661D02*
X0089031Y0168661D01*
X0091587Y0172654D02*
X0110008Y0172654D01*
X0109865Y0173452D02*
X0091713Y0173452D01*
X0091713Y0174251D02*
X0109865Y0174251D01*
X0110211Y0175049D02*
X0091713Y0175049D01*
X0091713Y0175848D02*
X0110465Y0175848D01*
X0110465Y0176646D02*
X0091421Y0176646D01*
X0091090Y0177445D02*
X0110465Y0177445D01*
X0110465Y0178243D02*
X0090760Y0178243D01*
X0090228Y0179042D02*
X0110465Y0179042D01*
X0110465Y0179840D02*
X0089429Y0179840D01*
X0088631Y0180639D02*
X0110465Y0180639D01*
X0110465Y0181437D02*
X0086942Y0181437D01*
X0081483Y0181437D02*
X0062415Y0181437D01*
X0062415Y0180639D02*
X0079795Y0180639D01*
X0078997Y0179840D02*
X0062415Y0179840D01*
X0062415Y0179042D02*
X0078198Y0179042D01*
X0077666Y0178243D02*
X0062415Y0178243D01*
X0062415Y0177445D02*
X0077335Y0177445D01*
X0077005Y0176646D02*
X0062415Y0176646D01*
X0062415Y0175848D02*
X0076713Y0175848D01*
X0076713Y0175049D02*
X0062415Y0175049D01*
X0062415Y0174251D02*
X0076713Y0174251D01*
X0076713Y0173452D02*
X0062415Y0173452D01*
X0062415Y0172654D02*
X0076839Y0172654D01*
X0077170Y0171855D02*
X0062415Y0171855D01*
X0062415Y0171057D02*
X0077500Y0171057D01*
X0077831Y0170258D02*
X0062415Y0170258D01*
X0062415Y0169460D02*
X0078597Y0169460D01*
X0079395Y0168661D02*
X0062415Y0168661D01*
X0062415Y0167863D02*
X0080518Y0167863D01*
X0082445Y0167064D02*
X0062415Y0167064D01*
X0062415Y0182236D02*
X0110465Y0182236D01*
X0110465Y0183034D02*
X0062415Y0183034D01*
X0062415Y0183833D02*
X0110465Y0183833D01*
X0110465Y0184631D02*
X0062415Y0184631D01*
X0062415Y0185430D02*
X0110465Y0185430D01*
X0110465Y0186228D02*
X0062415Y0186228D01*
X0062415Y0187027D02*
X0110465Y0187027D01*
X0110836Y0187825D02*
X0062415Y0187825D01*
X0062415Y0188624D02*
X0110865Y0188624D01*
X0111585Y0189422D02*
X0062415Y0189422D01*
X0062415Y0190221D02*
X0137465Y0190221D01*
X0137465Y0189422D02*
X0114745Y0189422D01*
X0115465Y0188624D02*
X0136865Y0188624D01*
X0136865Y0188703D02*
X0136865Y0186797D01*
X0138212Y0185450D01*
X0140117Y0185450D01*
X0141465Y0186797D01*
X0141465Y0188703D01*
X0140865Y0189303D01*
X0140865Y0190050D01*
X0145612Y0190050D01*
X0146212Y0189450D01*
X0148117Y0189450D01*
X0149465Y0190797D01*
X0149465Y0192703D01*
X0148117Y0194050D01*
X0146212Y0194050D01*
X0145612Y0193450D01*
X0138461Y0193450D01*
X0137465Y0192454D01*
X0137465Y0189303D01*
X0136865Y0188703D01*
X0136865Y0187825D02*
X0115465Y0187825D01*
X0115465Y0187027D02*
X0136865Y0187027D01*
X0137434Y0186228D02*
X0114896Y0186228D01*
X0113865Y0185430D02*
X0287865Y0185430D01*
X0287865Y0186228D02*
X0140896Y0186228D01*
X0141465Y0187027D02*
X0288189Y0187027D01*
X0288988Y0187825D02*
X0141465Y0187825D01*
X0141465Y0188624D02*
X0296635Y0188624D01*
X0297433Y0189422D02*
X0140865Y0189422D01*
X0137465Y0191020D02*
X0062415Y0191020D01*
X0062415Y0191818D02*
X0137465Y0191818D01*
X0137627Y0192617D02*
X0062415Y0192617D01*
X0062415Y0193415D02*
X0138426Y0193415D01*
X0137117Y0195450D02*
X0135212Y0195450D01*
X0133865Y0196797D01*
X0133865Y0198703D01*
X0135212Y0200050D01*
X0137117Y0200050D01*
X0137717Y0199450D01*
X0147612Y0199450D01*
X0148212Y0200050D01*
X0150117Y0200050D01*
X0151465Y0198703D01*
X0151465Y0196797D01*
X0150117Y0195450D01*
X0148212Y0195450D01*
X0147612Y0196050D01*
X0137717Y0196050D01*
X0137117Y0195450D01*
X0137478Y0195811D02*
X0147852Y0195811D01*
X0148752Y0193415D02*
X0301426Y0193415D01*
X0302224Y0194214D02*
X0062415Y0194214D01*
X0062415Y0195012D02*
X0303023Y0195012D01*
X0303821Y0195811D02*
X0150478Y0195811D01*
X0151277Y0196609D02*
X0304620Y0196609D01*
X0305418Y0197408D02*
X0151465Y0197408D01*
X0151465Y0198206D02*
X0306217Y0198206D01*
X0307015Y0199005D02*
X0151163Y0199005D01*
X0150364Y0199803D02*
X0307814Y0199803D01*
X0308612Y0200602D02*
X0062415Y0200602D01*
X0062415Y0201400D02*
X0309411Y0201400D01*
X0310209Y0202199D02*
X0062415Y0202199D01*
X0062415Y0202997D02*
X0311008Y0202997D01*
X0311806Y0203796D02*
X0062415Y0203796D01*
X0062415Y0204594D02*
X0312605Y0204594D01*
X0313403Y0205393D02*
X0062415Y0205393D01*
X0062415Y0206191D02*
X0137471Y0206191D01*
X0136865Y0206797D02*
X0138212Y0205450D01*
X0140117Y0205450D01*
X0140717Y0206050D01*
X0163612Y0206050D01*
X0164212Y0205450D01*
X0166117Y0205450D01*
X0167465Y0206797D01*
X0167465Y0208703D01*
X0166117Y0210050D01*
X0164212Y0210050D01*
X0163612Y0209450D01*
X0140717Y0209450D01*
X0140117Y0210050D01*
X0138212Y0210050D01*
X0136865Y0208703D01*
X0136865Y0206797D01*
X0136865Y0206990D02*
X0062415Y0206990D01*
X0062415Y0207788D02*
X0136865Y0207788D01*
X0136865Y0208587D02*
X0062415Y0208587D01*
X0062415Y0209385D02*
X0137547Y0209385D01*
X0137364Y0199803D02*
X0147965Y0199803D01*
X0149465Y0192617D02*
X0300627Y0192617D01*
X0299829Y0191818D02*
X0149465Y0191818D01*
X0149465Y0191020D02*
X0299030Y0191020D01*
X0298232Y0190221D02*
X0148888Y0190221D01*
X0134852Y0195811D02*
X0062415Y0195811D01*
X0062415Y0196609D02*
X0134053Y0196609D01*
X0133865Y0197408D02*
X0062415Y0197408D01*
X0062415Y0198206D02*
X0133865Y0198206D01*
X0134167Y0199005D02*
X0062415Y0199005D01*
X0062415Y0199803D02*
X0134965Y0199803D01*
X0113865Y0184631D02*
X0288031Y0184631D01*
X0288829Y0183833D02*
X0113865Y0183833D01*
X0098962Y0153489D02*
X0098663Y0153489D01*
X0098014Y0152691D02*
X0099612Y0152691D01*
X0100599Y0151892D02*
X0097026Y0151892D01*
X0166859Y0206191D02*
X0314202Y0206191D01*
X0315000Y0206990D02*
X0167465Y0206990D01*
X0167465Y0207788D02*
X0315799Y0207788D01*
X0316597Y0208587D02*
X0167465Y0208587D01*
X0166782Y0209385D02*
X0317396Y0209385D01*
X0318194Y0210184D02*
X0062415Y0210184D01*
X0062415Y0210982D02*
X0318993Y0210982D01*
X0319791Y0211781D02*
X0062415Y0211781D01*
X0062415Y0212579D02*
X0320590Y0212579D01*
X0321388Y0213378D02*
X0062415Y0213378D01*
X0062415Y0214176D02*
X0322187Y0214176D01*
X0322985Y0214975D02*
X0062415Y0214975D01*
X0062415Y0215773D02*
X0323465Y0215773D01*
X0323465Y0216572D02*
X0062415Y0216572D01*
X0062415Y0217370D02*
X0323465Y0217370D01*
X0323465Y0218169D02*
X0062415Y0218169D01*
X0062415Y0218967D02*
X0322865Y0218967D01*
X0322865Y0219766D02*
X0062415Y0219766D01*
X0062415Y0220564D02*
X0126098Y0220564D01*
X0126212Y0220450D02*
X0128117Y0220450D01*
X0128717Y0221050D01*
X0132612Y0221050D01*
X0133212Y0220450D01*
X0135117Y0220450D01*
X0136465Y0221797D01*
X0136465Y0223703D01*
X0135117Y0225050D01*
X0133212Y0225050D01*
X0132612Y0224450D01*
X0128717Y0224450D01*
X0128117Y0225050D01*
X0126212Y0225050D01*
X0124865Y0223703D01*
X0124865Y0221797D01*
X0126212Y0220450D01*
X0125299Y0221363D02*
X0062415Y0221363D01*
X0062415Y0222161D02*
X0124865Y0222161D01*
X0124865Y0222960D02*
X0091032Y0222960D01*
X0090822Y0222750D02*
X0093165Y0225093D01*
X0093165Y0228407D01*
X0090822Y0230750D01*
X0087508Y0230750D01*
X0085165Y0228407D01*
X0085165Y0225093D01*
X0087508Y0222750D01*
X0090822Y0222750D01*
X0091830Y0223758D02*
X0124921Y0223758D01*
X0125719Y0224557D02*
X0092629Y0224557D01*
X0093165Y0225355D02*
X0334915Y0225355D01*
X0334915Y0224557D02*
X0135610Y0224557D01*
X0136409Y0223758D02*
X0334915Y0223758D01*
X0334915Y0222960D02*
X0136465Y0222960D01*
X0136465Y0222161D02*
X0334915Y0222161D01*
X0334915Y0221363D02*
X0326805Y0221363D01*
X0327465Y0220564D02*
X0334915Y0220564D01*
X0334915Y0219766D02*
X0327465Y0219766D01*
X0327465Y0218967D02*
X0334915Y0218967D01*
X0334915Y0218169D02*
X0326865Y0218169D01*
X0326865Y0217370D02*
X0334915Y0217370D01*
X0334915Y0216572D02*
X0326865Y0216572D01*
X0326865Y0215773D02*
X0334915Y0215773D01*
X0334915Y0214975D02*
X0326865Y0214975D01*
X0326865Y0214176D02*
X0334915Y0214176D01*
X0334915Y0213378D02*
X0326197Y0213378D01*
X0325398Y0212579D02*
X0334915Y0212579D01*
X0334915Y0211781D02*
X0324600Y0211781D01*
X0323801Y0210982D02*
X0334915Y0210982D01*
X0334915Y0210184D02*
X0323003Y0210184D01*
X0322204Y0209385D02*
X0334915Y0209385D01*
X0334915Y0208587D02*
X0321406Y0208587D01*
X0320607Y0207788D02*
X0334915Y0207788D01*
X0334915Y0206990D02*
X0319809Y0206990D01*
X0322865Y0220564D02*
X0135232Y0220564D01*
X0136030Y0221363D02*
X0323525Y0221363D01*
X0334915Y0226154D02*
X0093165Y0226154D01*
X0093165Y0226953D02*
X0334915Y0226953D01*
X0334915Y0227751D02*
X0093165Y0227751D01*
X0093022Y0228550D02*
X0334915Y0228550D01*
X0334915Y0229348D02*
X0092224Y0229348D01*
X0091425Y0230147D02*
X0334915Y0230147D01*
X0334915Y0230945D02*
X0062415Y0230945D01*
X0062415Y0230147D02*
X0086905Y0230147D01*
X0086106Y0229348D02*
X0062415Y0229348D01*
X0062415Y0228550D02*
X0085308Y0228550D01*
X0085165Y0227751D02*
X0062415Y0227751D01*
X0062415Y0226953D02*
X0085165Y0226953D01*
X0085165Y0226154D02*
X0062415Y0226154D01*
X0062415Y0225355D02*
X0085165Y0225355D01*
X0085701Y0224557D02*
X0062415Y0224557D01*
X0062415Y0223758D02*
X0086499Y0223758D01*
X0087298Y0222960D02*
X0062415Y0222960D01*
X0062415Y0231744D02*
X0334915Y0231744D01*
X0334915Y0232542D02*
X0101133Y0232542D01*
X0101133Y0232367D02*
X0101133Y0237133D01*
X0100548Y0237718D01*
X0095782Y0237718D01*
X0095196Y0237133D01*
X0095196Y0232367D01*
X0095782Y0231781D01*
X0100548Y0231781D01*
X0101133Y0232367D01*
X0101133Y0233341D02*
X0334915Y0233341D01*
X0334915Y0234139D02*
X0101133Y0234139D01*
X0101133Y0234938D02*
X0334915Y0234938D01*
X0334915Y0235736D02*
X0101133Y0235736D01*
X0101133Y0236535D02*
X0240865Y0236535D01*
X0240956Y0236444D02*
X0242389Y0235850D01*
X0243941Y0235850D01*
X0245374Y0236444D01*
X0246471Y0237541D01*
X0247065Y0238974D01*
X0247065Y0245526D01*
X0246471Y0246959D01*
X0245374Y0248056D01*
X0243941Y0248650D01*
X0242389Y0248650D01*
X0188389Y0248650D01*
X0186956Y0248056D01*
X0185859Y0246959D01*
X0185265Y0245526D01*
X0185265Y0243974D01*
X0185859Y0242541D01*
X0185949Y0242450D01*
X0161717Y0242450D01*
X0161117Y0243050D01*
X0159212Y0243050D01*
X0157865Y0241703D01*
X0157865Y0239797D01*
X0159212Y0238450D01*
X0161117Y0238450D01*
X0161717Y0239050D01*
X0224865Y0239050D01*
X0224865Y0238797D01*
X0226212Y0237450D01*
X0228117Y0237450D01*
X0229465Y0238797D01*
X0229465Y0240703D01*
X0229317Y0240850D01*
X0239265Y0240850D01*
X0239265Y0238974D01*
X0239859Y0237541D01*
X0240956Y0236444D01*
X0240066Y0237333D02*
X0100933Y0237333D01*
X0095397Y0237333D02*
X0062415Y0237333D01*
X0062415Y0236535D02*
X0095196Y0236535D01*
X0095196Y0235736D02*
X0062415Y0235736D01*
X0062415Y0234938D02*
X0095196Y0234938D01*
X0095196Y0234139D02*
X0062415Y0234139D01*
X0062415Y0233341D02*
X0095196Y0233341D01*
X0095196Y0232542D02*
X0062415Y0232542D01*
X0062415Y0238132D02*
X0225530Y0238132D01*
X0224865Y0238930D02*
X0161598Y0238930D01*
X0158732Y0238930D02*
X0062415Y0238930D01*
X0062415Y0239729D02*
X0157933Y0239729D01*
X0157865Y0240527D02*
X0062415Y0240527D01*
X0062415Y0241326D02*
X0157865Y0241326D01*
X0158286Y0242124D02*
X0062415Y0242124D01*
X0062415Y0242923D02*
X0159085Y0242923D01*
X0161245Y0242923D02*
X0185700Y0242923D01*
X0185370Y0243721D02*
X0062415Y0243721D01*
X0062415Y0244520D02*
X0185265Y0244520D01*
X0185265Y0245318D02*
X0062415Y0245318D01*
X0062415Y0246117D02*
X0185510Y0246117D01*
X0185840Y0246915D02*
X0062415Y0246915D01*
X0062415Y0247714D02*
X0186613Y0247714D01*
X0188057Y0248512D02*
X0062415Y0248512D01*
X0062415Y0249311D02*
X0334915Y0249311D01*
X0334915Y0250109D02*
X0062415Y0250109D01*
X0062415Y0250908D02*
X0334915Y0250908D01*
X0334915Y0251706D02*
X0062415Y0251706D01*
X0062415Y0252505D02*
X0334915Y0252505D01*
X0334915Y0253303D02*
X0062415Y0253303D01*
X0062415Y0254102D02*
X0090781Y0254102D01*
X0089499Y0254900D02*
X0062415Y0254900D01*
X0062415Y0255699D02*
X0088793Y0255699D01*
X0088462Y0256497D02*
X0062415Y0256497D01*
X0062415Y0257296D02*
X0088265Y0257296D01*
X0088265Y0258094D02*
X0062415Y0258094D01*
X0062415Y0258893D02*
X0088417Y0258893D01*
X0088748Y0259691D02*
X0062415Y0259691D01*
X0062415Y0260490D02*
X0089389Y0260490D01*
X0092165Y0262087D02*
X0334915Y0262087D01*
X0334915Y0261289D02*
X0144813Y0261289D01*
X0145940Y0260490D02*
X0334915Y0260490D01*
X0334915Y0259691D02*
X0146582Y0259691D01*
X0146913Y0258893D02*
X0334915Y0258893D01*
X0334915Y0258094D02*
X0147065Y0258094D01*
X0147065Y0257296D02*
X0334915Y0257296D01*
X0334915Y0256497D02*
X0146867Y0256497D01*
X0146537Y0255699D02*
X0334915Y0255699D01*
X0334915Y0254900D02*
X0145831Y0254900D01*
X0144549Y0254102D02*
X0334915Y0254102D01*
X0334915Y0248512D02*
X0244273Y0248512D01*
X0245716Y0247714D02*
X0334915Y0247714D01*
X0334915Y0246915D02*
X0246489Y0246915D01*
X0246820Y0246117D02*
X0334915Y0246117D01*
X0334915Y0245318D02*
X0247065Y0245318D01*
X0247065Y0244520D02*
X0334915Y0244520D01*
X0334915Y0243721D02*
X0247065Y0243721D01*
X0247065Y0242923D02*
X0334915Y0242923D01*
X0334915Y0242124D02*
X0247065Y0242124D01*
X0247065Y0241326D02*
X0334915Y0241326D01*
X0334915Y0240527D02*
X0247065Y0240527D01*
X0247065Y0239729D02*
X0334915Y0239729D01*
X0334915Y0238930D02*
X0247047Y0238930D01*
X0246716Y0238132D02*
X0334915Y0238132D01*
X0334915Y0237333D02*
X0246263Y0237333D01*
X0245465Y0236535D02*
X0334915Y0236535D01*
X0334915Y0262886D02*
X0092165Y0262886D01*
X0092165Y0263684D02*
X0334915Y0263684D01*
X0334915Y0264483D02*
X0138150Y0264483D01*
X0138117Y0264450D02*
X0139465Y0265797D01*
X0139465Y0267703D01*
X0138117Y0269050D01*
X0136212Y0269050D01*
X0135612Y0268450D01*
X0117717Y0268450D01*
X0117117Y0269050D01*
X0115212Y0269050D01*
X0113865Y0267703D01*
X0113865Y0265797D01*
X0115212Y0264450D01*
X0117117Y0264450D01*
X0117717Y0265050D01*
X0135612Y0265050D01*
X0136212Y0264450D01*
X0138117Y0264450D01*
X0138949Y0265281D02*
X0334915Y0265281D01*
X0334915Y0266080D02*
X0139465Y0266080D01*
X0139465Y0266878D02*
X0334915Y0266878D01*
X0334915Y0267677D02*
X0139465Y0267677D01*
X0138692Y0268475D02*
X0334915Y0268475D01*
X0334915Y0269274D02*
X0092165Y0269274D01*
X0092165Y0270072D02*
X0334915Y0270072D01*
X0334915Y0270871D02*
X0092165Y0270871D01*
X0092165Y0271669D02*
X0334915Y0271669D01*
X0334915Y0272468D02*
X0092165Y0272468D01*
X0092165Y0273266D02*
X0334915Y0273266D01*
X0334915Y0274065D02*
X0092165Y0274065D01*
X0092165Y0274863D02*
X0334915Y0274863D01*
X0334915Y0275662D02*
X0092165Y0275662D01*
X0092165Y0276460D02*
X0334915Y0276460D01*
X0334915Y0277259D02*
X0092165Y0277259D01*
X0092165Y0278057D02*
X0334915Y0278057D01*
X0334915Y0278856D02*
X0092165Y0278856D01*
X0092165Y0279654D02*
X0334915Y0279654D01*
X0334915Y0280453D02*
X0092165Y0280453D01*
X0092165Y0281251D02*
X0334915Y0281251D01*
X0334915Y0282050D02*
X0092165Y0282050D01*
X0092165Y0282848D02*
X0334915Y0282848D01*
X0334915Y0283647D02*
X0092165Y0283647D01*
X0092165Y0284445D02*
X0334915Y0284445D01*
X0334915Y0285244D02*
X0092165Y0285244D01*
X0092165Y0286042D02*
X0334915Y0286042D01*
X0334915Y0286841D02*
X0092165Y0286841D01*
X0092165Y0268475D02*
X0114637Y0268475D01*
X0113865Y0267677D02*
X0092165Y0267677D01*
X0092165Y0266878D02*
X0113865Y0266878D01*
X0113865Y0266080D02*
X0092165Y0266080D01*
X0092165Y0265281D02*
X0114381Y0265281D01*
X0115180Y0264483D02*
X0092165Y0264483D01*
X0117150Y0264483D02*
X0136180Y0264483D01*
X0135637Y0268475D02*
X0117692Y0268475D01*
X0128610Y0224557D02*
X0132719Y0224557D01*
X0133098Y0220564D02*
X0128232Y0220564D01*
X0193456Y0167863D02*
X0220465Y0167863D01*
X0220465Y0167064D02*
X0194255Y0167064D01*
X0195053Y0166266D02*
X0220465Y0166266D01*
X0220465Y0165467D02*
X0196700Y0165467D01*
X0197465Y0164669D02*
X0220465Y0164669D01*
X0220465Y0163870D02*
X0197465Y0163870D01*
X0197465Y0163072D02*
X0220465Y0163072D01*
X0220465Y0162273D02*
X0196941Y0162273D01*
X0291500Y0183833D02*
X0310082Y0183833D01*
X0309283Y0184631D02*
X0297450Y0184631D01*
X0298249Y0185430D02*
X0308485Y0185430D01*
X0307686Y0186228D02*
X0299047Y0186228D01*
X0299846Y0187027D02*
X0307165Y0187027D01*
X0307165Y0187825D02*
X0300644Y0187825D01*
X0301443Y0188624D02*
X0307165Y0188624D01*
X0307165Y0189422D02*
X0302241Y0189422D01*
X0303040Y0190221D02*
X0307165Y0190221D01*
X0307165Y0191020D02*
X0303838Y0191020D01*
X0304637Y0191818D02*
X0307165Y0191818D01*
X0307165Y0192617D02*
X0305435Y0192617D01*
X0306234Y0193415D02*
X0307165Y0193415D01*
X0307165Y0194214D02*
X0307033Y0194214D01*
X0295836Y0187825D02*
X0291342Y0187825D01*
X0239614Y0238132D02*
X0228799Y0238132D01*
X0229465Y0238930D02*
X0239283Y0238930D01*
X0239265Y0239729D02*
X0229465Y0239729D01*
X0229465Y0240527D02*
X0239265Y0240527D01*
X0238470Y0041698D02*
X0266860Y0041698D01*
X0266957Y0037705D02*
X0238373Y0037705D01*
X0290865Y0031317D02*
X0291465Y0031317D01*
X0291465Y0030519D02*
X0290865Y0030519D01*
X0290865Y0029720D02*
X0291465Y0029720D01*
D19*
X0283165Y0032750D03*
X0268165Y0039750D03*
X0269165Y0046750D03*
X0263165Y0055750D03*
X0266165Y0060750D03*
X0269165Y0065750D03*
X0280165Y0063750D03*
X0291165Y0063750D03*
X0293165Y0055750D03*
X0289165Y0051750D03*
X0300165Y0055750D03*
X0311165Y0063750D03*
X0333165Y0063750D03*
X0333165Y0080750D03*
X0328165Y0080750D03*
X0311165Y0083750D03*
X0317165Y0094750D03*
X0309165Y0100750D03*
X0298165Y0108750D03*
X0298165Y0117250D03*
X0298165Y0121250D03*
X0307165Y0127750D03*
X0314165Y0128750D03*
X0321165Y0128750D03*
X0328165Y0128750D03*
X0333165Y0126750D03*
X0321165Y0135750D03*
X0307165Y0136750D03*
X0311165Y0121750D03*
X0286165Y0119250D03*
X0271165Y0117750D03*
X0265165Y0117750D03*
X0265165Y0111750D03*
X0259165Y0111750D03*
X0253165Y0111750D03*
X0247165Y0111750D03*
X0247165Y0117750D03*
X0253165Y0117750D03*
X0259165Y0117750D03*
X0259165Y0123750D03*
X0253165Y0123750D03*
X0247165Y0123750D03*
X0247165Y0129750D03*
X0253165Y0129750D03*
X0259165Y0129750D03*
X0265165Y0129750D03*
X0271165Y0129750D03*
X0271165Y0123750D03*
X0265165Y0123750D03*
X0265165Y0135750D03*
X0271165Y0135750D03*
X0273165Y0144750D03*
X0279165Y0143750D03*
X0279165Y0147750D03*
X0273165Y0148750D03*
X0266165Y0155750D03*
X0263165Y0152750D03*
X0260165Y0155750D03*
X0257165Y0152750D03*
X0254165Y0155750D03*
X0251165Y0152750D03*
X0248165Y0155750D03*
X0243165Y0161750D03*
X0254165Y0164750D03*
X0254165Y0170750D03*
X0254165Y0176750D03*
X0263165Y0176750D03*
X0263165Y0170750D03*
X0263165Y0164750D03*
X0272165Y0164750D03*
X0272165Y0170750D03*
X0278165Y0166750D03*
X0287165Y0164750D03*
X0292165Y0164750D03*
X0302165Y0164750D03*
X0301165Y0157750D03*
X0296165Y0154750D03*
X0311165Y0157750D03*
X0312165Y0164750D03*
X0325165Y0167750D03*
X0333165Y0163750D03*
X0325165Y0158750D03*
X0333165Y0143750D03*
X0333165Y0175750D03*
X0322165Y0175750D03*
X0302165Y0198750D03*
X0298165Y0198750D03*
X0294165Y0198750D03*
X0292165Y0195750D03*
X0292165Y0192750D03*
X0288165Y0192750D03*
X0284165Y0192750D03*
X0280165Y0192750D03*
X0276165Y0192750D03*
X0272165Y0192750D03*
X0272165Y0196750D03*
X0268165Y0196750D03*
X0264165Y0196750D03*
X0260165Y0196750D03*
X0256165Y0195750D03*
X0256165Y0191750D03*
X0253165Y0189750D03*
X0249165Y0189750D03*
X0245165Y0189750D03*
X0242165Y0191750D03*
X0242165Y0195750D03*
X0238165Y0196750D03*
X0238165Y0200750D03*
X0238165Y0204750D03*
X0232165Y0204750D03*
X0228165Y0204750D03*
X0224165Y0204750D03*
X0220165Y0204750D03*
X0216165Y0204750D03*
X0212165Y0204750D03*
X0208165Y0204750D03*
X0204165Y0204750D03*
X0200165Y0204750D03*
X0196165Y0204750D03*
X0192165Y0204750D03*
X0192165Y0200750D03*
X0192165Y0196750D03*
X0192165Y0192750D03*
X0192165Y0188750D03*
X0193165Y0184750D03*
X0197165Y0184750D03*
X0201165Y0184750D03*
X0205165Y0184750D03*
X0205165Y0180750D03*
X0205165Y0176750D03*
X0201165Y0176750D03*
X0197165Y0176750D03*
X0195165Y0163750D03*
X0201165Y0158750D03*
X0205165Y0158750D03*
X0209165Y0158750D03*
X0213165Y0158750D03*
X0217165Y0158750D03*
X0217165Y0162750D03*
X0217165Y0166750D03*
X0217165Y0170750D03*
X0217165Y0174750D03*
X0223165Y0169750D03*
X0226165Y0165750D03*
X0230165Y0165750D03*
X0217165Y0178750D03*
X0217165Y0182750D03*
X0217165Y0186750D03*
X0217165Y0190750D03*
X0242165Y0184750D03*
X0246165Y0184750D03*
X0282165Y0180750D03*
X0287165Y0178750D03*
X0290165Y0185750D03*
X0303165Y0202750D03*
X0303165Y0206750D03*
X0307165Y0206750D03*
X0311165Y0206750D03*
X0314165Y0209750D03*
X0317165Y0212750D03*
X0320165Y0215750D03*
X0321165Y0219750D03*
X0325165Y0219750D03*
X0321165Y0223750D03*
X0321165Y0227750D03*
X0317165Y0228750D03*
X0313165Y0228750D03*
X0309165Y0228750D03*
X0309165Y0232750D03*
X0305165Y0232750D03*
X0305165Y0228750D03*
X0301165Y0228750D03*
X0297165Y0228750D03*
X0293165Y0228750D03*
X0289165Y0229750D03*
X0285165Y0229750D03*
X0281165Y0229750D03*
X0281165Y0233750D03*
X0281165Y0237750D03*
X0281165Y0241750D03*
X0290165Y0241750D03*
X0290165Y0237750D03*
X0293165Y0233750D03*
X0297165Y0233750D03*
X0297165Y0245750D03*
X0301165Y0245750D03*
X0305165Y0245750D03*
X0306165Y0249750D03*
X0306165Y0253750D03*
X0306165Y0257750D03*
X0306165Y0261750D03*
X0306165Y0265750D03*
X0310165Y0265750D03*
X0314165Y0265750D03*
X0318165Y0265750D03*
X0322165Y0265750D03*
X0327165Y0265750D03*
X0332165Y0265750D03*
X0333165Y0271750D03*
X0331165Y0285750D03*
X0311165Y0285750D03*
X0297165Y0275750D03*
X0291165Y0285750D03*
X0285165Y0275750D03*
X0273165Y0275750D03*
X0271165Y0285750D03*
X0261165Y0275750D03*
X0249165Y0275750D03*
X0251165Y0285750D03*
X0237165Y0275750D03*
X0225165Y0275750D03*
X0231165Y0285750D03*
X0213165Y0275750D03*
X0211165Y0285750D03*
X0201165Y0275750D03*
X0189165Y0275750D03*
X0177165Y0275750D03*
X0171165Y0275750D03*
X0167165Y0278750D03*
X0163165Y0278750D03*
X0171165Y0281750D03*
X0171165Y0285750D03*
X0151165Y0285750D03*
X0131165Y0285750D03*
X0111165Y0285750D03*
X0093165Y0285750D03*
X0116165Y0266750D03*
X0121165Y0263750D03*
X0131165Y0263750D03*
X0137165Y0266750D03*
X0142165Y0264750D03*
X0142165Y0268750D03*
X0143165Y0257750D03*
X0133165Y0251750D03*
X0129165Y0251750D03*
X0141165Y0243750D03*
X0146165Y0231750D03*
X0146165Y0227750D03*
X0146165Y0223750D03*
X0146165Y0219750D03*
X0139165Y0215750D03*
X0133165Y0213750D03*
X0133165Y0217750D03*
X0134165Y0222750D03*
X0138165Y0227750D03*
X0127165Y0222750D03*
X0123165Y0220750D03*
X0123165Y0216750D03*
X0117165Y0210750D03*
X0132165Y0202750D03*
X0139165Y0207750D03*
X0136165Y0197750D03*
X0139165Y0187750D03*
X0147165Y0191750D03*
X0149165Y0197750D03*
X0165165Y0207750D03*
X0192165Y0208750D03*
X0192165Y0212750D03*
X0192165Y0216750D03*
X0192165Y0220750D03*
X0192165Y0224750D03*
X0192165Y0228750D03*
X0192165Y0232750D03*
X0192165Y0236750D03*
X0188165Y0236750D03*
X0184165Y0236750D03*
X0180165Y0236750D03*
X0176165Y0236750D03*
X0172165Y0236750D03*
X0167165Y0236750D03*
X0160165Y0240750D03*
X0171165Y0251750D03*
X0167165Y0254750D03*
X0171165Y0257750D03*
X0167165Y0260750D03*
X0171165Y0263750D03*
X0171165Y0269750D03*
X0191165Y0285750D03*
X0201165Y0263750D03*
X0213165Y0263750D03*
X0225165Y0263750D03*
X0237165Y0263750D03*
X0249165Y0263750D03*
X0261165Y0263750D03*
X0273165Y0263750D03*
X0273165Y0251750D03*
X0285165Y0251750D03*
X0293165Y0245750D03*
X0297165Y0251750D03*
X0318165Y0249750D03*
X0318165Y0245750D03*
X0322165Y0245750D03*
X0327165Y0245750D03*
X0332165Y0245750D03*
X0333165Y0240750D03*
X0321165Y0240750D03*
X0333165Y0223750D03*
X0333165Y0207750D03*
X0323165Y0207750D03*
X0309165Y0217750D03*
X0312165Y0219750D03*
X0305165Y0217750D03*
X0301165Y0217750D03*
X0297165Y0217750D03*
X0293165Y0217750D03*
X0289165Y0216750D03*
X0285165Y0216750D03*
X0281165Y0216750D03*
X0277165Y0216750D03*
X0273165Y0216750D03*
X0269165Y0216750D03*
X0265165Y0216750D03*
X0261165Y0216750D03*
X0261165Y0220750D03*
X0257165Y0216750D03*
X0253165Y0216750D03*
X0249165Y0216750D03*
X0245165Y0216750D03*
X0241165Y0216750D03*
X0237165Y0216750D03*
X0233165Y0216750D03*
X0229165Y0216750D03*
X0225165Y0216750D03*
X0221165Y0216750D03*
X0217165Y0216750D03*
X0213165Y0216750D03*
X0213165Y0220750D03*
X0209165Y0216750D03*
X0205165Y0216750D03*
X0213165Y0224750D03*
X0213165Y0228750D03*
X0213165Y0232750D03*
X0213165Y0236750D03*
X0217165Y0236750D03*
X0221165Y0236750D03*
X0227165Y0239750D03*
X0236165Y0236750D03*
X0236165Y0232750D03*
X0236165Y0228750D03*
X0236165Y0224750D03*
X0236165Y0220750D03*
X0261165Y0224750D03*
X0261165Y0228750D03*
X0261165Y0232750D03*
X0261165Y0236750D03*
X0261165Y0240750D03*
X0261165Y0251750D03*
X0249165Y0251750D03*
X0237165Y0251750D03*
X0225165Y0251750D03*
X0213165Y0251750D03*
X0201165Y0251750D03*
X0189165Y0251750D03*
X0177165Y0251750D03*
X0189165Y0244750D03*
X0243165Y0239750D03*
X0174165Y0175750D03*
X0170165Y0175750D03*
X0166165Y0175750D03*
X0162165Y0175750D03*
X0158165Y0175750D03*
X0154165Y0175750D03*
X0150165Y0175750D03*
X0148165Y0172750D03*
X0148165Y0168750D03*
X0148165Y0164750D03*
X0153165Y0157750D03*
X0158165Y0157750D03*
X0158165Y0152750D03*
X0161165Y0148750D03*
X0166165Y0148750D03*
X0171165Y0148750D03*
X0171165Y0153750D03*
X0166165Y0153750D03*
X0176165Y0153750D03*
X0181165Y0153750D03*
X0186165Y0153750D03*
X0186165Y0148750D03*
X0191165Y0148750D03*
X0196165Y0148750D03*
X0201165Y0148750D03*
X0206165Y0148750D03*
X0211165Y0148750D03*
X0216165Y0148750D03*
X0216165Y0143750D03*
X0216165Y0138750D03*
X0221165Y0138750D03*
X0221165Y0133750D03*
X0216165Y0133750D03*
X0211165Y0133750D03*
X0211165Y0138750D03*
X0206165Y0138750D03*
X0206165Y0133750D03*
X0201165Y0133750D03*
X0201165Y0138750D03*
X0196165Y0138750D03*
X0196165Y0133750D03*
X0191165Y0133750D03*
X0191165Y0138750D03*
X0186165Y0138750D03*
X0186165Y0133750D03*
X0181165Y0133750D03*
X0181165Y0138750D03*
X0176165Y0138750D03*
X0176165Y0133750D03*
X0176165Y0128750D03*
X0181165Y0128750D03*
X0186165Y0128750D03*
X0191165Y0128750D03*
X0196165Y0128750D03*
X0209165Y0116750D03*
X0213165Y0116750D03*
X0216165Y0114750D03*
X0216165Y0110750D03*
X0216165Y0106750D03*
X0216165Y0102750D03*
X0213165Y0099750D03*
X0209165Y0099750D03*
X0211165Y0093750D03*
X0199165Y0098750D03*
X0191165Y0098750D03*
X0183165Y0098750D03*
X0175165Y0098750D03*
X0167165Y0098750D03*
X0160165Y0098750D03*
X0156165Y0098750D03*
X0152165Y0098750D03*
X0148165Y0098750D03*
X0148165Y0102750D03*
X0148165Y0106750D03*
X0148165Y0110750D03*
X0148165Y0114750D03*
X0148165Y0118750D03*
X0148165Y0122750D03*
X0148165Y0126750D03*
X0148165Y0130750D03*
X0148165Y0134750D03*
X0148165Y0138750D03*
X0148165Y0142750D03*
X0148165Y0146750D03*
X0137165Y0146750D03*
X0131165Y0146750D03*
X0125165Y0146750D03*
X0125165Y0152750D03*
X0125165Y0158750D03*
X0125165Y0164750D03*
X0130165Y0170750D03*
X0134165Y0170750D03*
X0138165Y0170750D03*
X0112165Y0173750D03*
X0113165Y0187750D03*
X0099165Y0187750D03*
X0099165Y0192750D03*
X0094165Y0192750D03*
X0094165Y0187750D03*
X0089165Y0187750D03*
X0089165Y0192750D03*
X0084165Y0192750D03*
X0084165Y0187750D03*
X0079165Y0187750D03*
X0079165Y0192750D03*
X0079165Y0197750D03*
X0084165Y0197750D03*
X0089165Y0197750D03*
X0094165Y0197750D03*
X0099165Y0197750D03*
X0099165Y0202750D03*
X0099165Y0207750D03*
X0094165Y0207750D03*
X0094165Y0202750D03*
X0089165Y0202750D03*
X0089165Y0207750D03*
X0084165Y0207750D03*
X0084165Y0202750D03*
X0079165Y0202750D03*
X0079165Y0207750D03*
X0064165Y0203750D03*
X0064165Y0223750D03*
X0089165Y0233750D03*
X0089165Y0237750D03*
X0089165Y0241750D03*
X0089165Y0245750D03*
X0089165Y0249750D03*
X0092165Y0257750D03*
X0093165Y0263750D03*
X0111165Y0263750D03*
X0064165Y0259750D03*
X0064165Y0243750D03*
X0064165Y0183750D03*
X0064165Y0163750D03*
X0091165Y0163750D03*
X0088165Y0143750D03*
X0064165Y0143750D03*
X0064165Y0123750D03*
X0084165Y0108750D03*
X0093165Y0107750D03*
X0097165Y0107750D03*
X0101165Y0107750D03*
X0105165Y0107750D03*
X0101165Y0111750D03*
X0101165Y0115750D03*
X0117165Y0115750D03*
X0124165Y0115750D03*
X0119165Y0104750D03*
X0136165Y0104750D03*
X0136165Y0087750D03*
X0143165Y0085750D03*
X0147165Y0080750D03*
X0160165Y0080750D03*
X0175165Y0079750D03*
X0171165Y0063750D03*
X0160165Y0063750D03*
X0157165Y0052750D03*
X0148165Y0046750D03*
X0142165Y0046750D03*
X0157165Y0035750D03*
X0162165Y0037750D03*
X0162165Y0043750D03*
X0171165Y0043750D03*
X0171165Y0037750D03*
X0171165Y0031750D03*
X0181165Y0037750D03*
X0180165Y0043750D03*
X0191165Y0043750D03*
X0191165Y0031750D03*
X0211165Y0031750D03*
X0211165Y0043750D03*
X0231165Y0043750D03*
X0237165Y0039750D03*
X0237165Y0030750D03*
X0241165Y0027750D03*
X0231165Y0031750D03*
X0231165Y0016750D03*
X0251165Y0016750D03*
X0271165Y0016750D03*
X0291165Y0016750D03*
X0311165Y0016750D03*
X0325165Y0017750D03*
X0330165Y0017750D03*
X0324165Y0035750D03*
X0333165Y0043750D03*
X0311165Y0035750D03*
X0252165Y0034750D03*
X0252165Y0047750D03*
X0233165Y0060750D03*
X0233165Y0065750D03*
X0250165Y0077750D03*
X0254165Y0077750D03*
X0252165Y0071750D03*
X0231165Y0078750D03*
X0232165Y0085750D03*
X0225165Y0090750D03*
X0221165Y0090750D03*
X0211165Y0078750D03*
X0203165Y0065750D03*
X0240165Y0089750D03*
X0251165Y0095750D03*
X0241165Y0111750D03*
X0241165Y0117750D03*
X0241165Y0123750D03*
X0241165Y0129750D03*
X0241165Y0135750D03*
X0247165Y0135750D03*
X0253165Y0135750D03*
X0259165Y0135750D03*
X0226165Y0136250D03*
X0211165Y0143750D03*
X0206165Y0143750D03*
X0201165Y0143750D03*
X0196165Y0143750D03*
X0191165Y0143750D03*
X0186165Y0143750D03*
X0181165Y0143750D03*
X0176165Y0143750D03*
X0176165Y0148750D03*
X0181165Y0148750D03*
X0181165Y0158750D03*
X0176165Y0158750D03*
X0187165Y0163750D03*
X0171165Y0143750D03*
X0166165Y0143750D03*
X0161165Y0143750D03*
X0161165Y0138750D03*
X0166165Y0138750D03*
X0171165Y0138750D03*
X0171165Y0133750D03*
X0166165Y0133750D03*
X0161165Y0133750D03*
X0161165Y0128750D03*
X0166165Y0128750D03*
X0171165Y0128750D03*
X0170165Y0116750D03*
X0174165Y0116750D03*
X0178165Y0116750D03*
X0182165Y0116750D03*
X0166165Y0116750D03*
X0162165Y0116750D03*
X0158165Y0116750D03*
X0154165Y0116750D03*
X0119165Y0087750D03*
X0104165Y0085750D03*
X0084165Y0083750D03*
X0084165Y0099750D03*
X0064165Y0103750D03*
X0064165Y0083750D03*
X0064165Y0063750D03*
X0070165Y0049750D03*
X0064165Y0043750D03*
X0084165Y0043750D03*
X0093165Y0033750D03*
X0111165Y0033750D03*
X0117228Y0049813D03*
X0110165Y0062750D03*
X0106165Y0062750D03*
X0102165Y0062750D03*
X0098165Y0062750D03*
X0106165Y0066750D03*
X0106165Y0070750D03*
X0089165Y0063750D03*
X0089165Y0054750D03*
X0136165Y0065750D03*
X0136165Y0031750D03*
X0151165Y0031750D03*
X0151165Y0016750D03*
X0171165Y0016750D03*
X0191165Y0016750D03*
X0211165Y0016750D03*
X0131165Y0016750D03*
X0111165Y0016750D03*
X0093165Y0016750D03*
X0226165Y0111250D03*
X0273165Y0089750D03*
X0280165Y0083750D03*
X0291165Y0083750D03*
X0287165Y0095750D03*
X0283165Y0095750D03*
X0333165Y0094750D03*
D20*
X0110665Y0212250D03*
X0110665Y0217250D03*
X0105665Y0217250D03*
X0105665Y0212250D03*
D21*
X0127165Y0222750D02*
X0134165Y0222750D01*
X0139165Y0207750D02*
X0165165Y0207750D01*
X0149165Y0197750D02*
X0136165Y0197750D01*
X0139165Y0191750D02*
X0147165Y0191750D01*
X0139165Y0191750D02*
X0139165Y0187750D01*
X0113165Y0187750D02*
X0112165Y0186750D01*
X0112165Y0173750D01*
X0125165Y0158750D02*
X0134165Y0158750D01*
X0135165Y0159750D01*
X0147165Y0159750D01*
X0150165Y0162750D01*
X0181165Y0162750D01*
X0185165Y0166750D01*
X0192165Y0166750D01*
X0195165Y0163750D01*
X0187165Y0163750D02*
X0184365Y0160950D01*
X0175254Y0160950D01*
X0175054Y0160750D01*
X0151165Y0160750D01*
X0148165Y0157750D01*
X0136165Y0157750D01*
X0133165Y0154750D01*
X0126165Y0154750D01*
X0125165Y0153750D01*
X0125165Y0152750D01*
X0126165Y0150750D02*
X0125165Y0149750D01*
X0125165Y0146750D01*
X0126165Y0150750D02*
X0128165Y0150750D01*
X0130165Y0152750D01*
X0134165Y0152750D01*
X0137165Y0155750D01*
X0149165Y0155750D01*
X0151165Y0157750D01*
X0153165Y0157750D01*
X0155165Y0154750D02*
X0151165Y0154750D01*
X0150165Y0153750D01*
X0138165Y0153750D01*
X0135165Y0150750D01*
X0132165Y0150750D01*
X0131165Y0149750D01*
X0131165Y0146750D01*
X0137165Y0146750D02*
X0137165Y0149750D01*
X0139165Y0151750D01*
X0157165Y0151750D01*
X0158165Y0152750D01*
X0155165Y0154750D02*
X0158165Y0157750D01*
X0124165Y0115750D02*
X0117165Y0115750D01*
X0175165Y0079750D02*
X0175165Y0065750D01*
X0180165Y0060750D01*
X0185165Y0060750D01*
X0190165Y0055750D01*
X0263165Y0055750D01*
X0266165Y0060750D02*
X0233165Y0060750D01*
X0233165Y0065750D02*
X0269165Y0065750D01*
X0289165Y0051750D02*
X0289165Y0029750D01*
X0281165Y0029750D01*
X0280165Y0030750D01*
X0237165Y0030750D01*
X0241165Y0027750D02*
X0293165Y0027750D01*
X0293165Y0055750D01*
X0283165Y0032750D02*
X0269165Y0046750D01*
X0268165Y0039750D02*
X0237165Y0039750D01*
X0203165Y0065750D02*
X0190165Y0065750D01*
X0185165Y0070750D01*
X0157165Y0052750D02*
X0157165Y0035750D01*
X0240165Y0089750D02*
X0273165Y0089750D01*
X0320165Y0136750D02*
X0321165Y0135750D01*
X0320165Y0136750D02*
X0307165Y0136750D01*
X0325165Y0158750D02*
X0322165Y0161750D01*
X0305165Y0161750D01*
X0302165Y0164750D01*
X0312165Y0164750D02*
X0322165Y0164750D01*
X0325165Y0167750D01*
X0296165Y0185750D02*
X0325165Y0214750D01*
X0325165Y0219750D01*
X0296165Y0185750D02*
X0290165Y0185750D01*
X0282165Y0180750D02*
X0282165Y0174750D01*
X0284165Y0172750D01*
X0289165Y0172750D01*
X0292165Y0169750D01*
X0292165Y0164750D01*
X0263165Y0164750D02*
X0263165Y0152750D01*
X0260165Y0155750D02*
X0260165Y0169750D01*
X0261165Y0170750D01*
X0263165Y0170750D01*
X0258165Y0174750D02*
X0260165Y0176750D01*
X0263165Y0176750D01*
X0258165Y0174750D02*
X0258165Y0158750D01*
X0257165Y0157750D01*
X0257165Y0152750D01*
X0254165Y0155750D02*
X0254165Y0164750D01*
X0251165Y0169750D02*
X0252165Y0170750D01*
X0254165Y0170750D01*
X0251165Y0169750D02*
X0251165Y0152750D01*
X0248165Y0155750D02*
X0248165Y0157750D01*
X0249165Y0158750D01*
X0249165Y0174750D01*
X0251165Y0176750D01*
X0254165Y0176750D01*
X0243165Y0161750D02*
X0242165Y0160750D01*
X0223165Y0160750D01*
X0222165Y0161750D01*
X0222165Y0168750D01*
X0223165Y0169750D01*
X0227165Y0239750D02*
X0226165Y0240750D01*
X0160165Y0240750D01*
X0137165Y0266750D02*
X0116165Y0266750D01*
D22*
X0098165Y0234750D03*
X0179165Y0085750D03*
X0328165Y0135750D03*
D23*
X0241165Y0111750D02*
X0232165Y0102750D01*
X0232165Y0085750D01*
X0179165Y0085750D02*
X0143165Y0085750D01*
X0117165Y0059750D01*
X0117228Y0049813D01*
X0116165Y0041750D02*
X0135165Y0022750D01*
X0294165Y0022750D01*
X0300165Y0028750D01*
X0300165Y0055750D01*
X0116165Y0041750D02*
X0095165Y0041750D01*
X0087165Y0049750D01*
X0070165Y0049750D01*
D24*
X0266165Y0155750D02*
X0266165Y0157750D01*
X0272165Y0164750D01*
X0278165Y0166750D02*
X0287165Y0157750D01*
X0301165Y0157750D01*
X0311165Y0131750D02*
X0320165Y0131750D01*
X0321165Y0130750D01*
X0321165Y0128750D01*
X0314165Y0128750D02*
X0307165Y0121750D01*
X0307165Y0108750D01*
X0298165Y0108750D01*
X0307165Y0127750D02*
X0311165Y0131750D01*
D25*
X0243165Y0239750D02*
X0243165Y0244750D01*
X0189165Y0244750D01*
X0143165Y0257750D02*
X0092165Y0257750D01*
D26*
X0301165Y0157750D02*
X0301165Y0133750D01*
X0307165Y0127750D01*
M02*
