G75*
%MOIN*%
%OFA0B0*%
%FSLAX25Y25*%
%IPPOS*%
%LPD*%
%AMOC8*
5,1,8,0,0,1.08239X$1,22.5*
%
%ADD10C,0.00300*%
%ADD11C,0.00400*%
D10*
X0100815Y0231534D02*
X0104518Y0231534D01*
X0104518Y0233385D01*
X0103901Y0234002D01*
X0102666Y0234002D01*
X0102049Y0233385D01*
X0102049Y0231534D01*
X0104518Y0235217D02*
X0104518Y0237686D01*
X0104518Y0238900D02*
X0104518Y0241369D01*
X0104518Y0240134D02*
X0100815Y0240134D01*
X0100815Y0242583D02*
X0100815Y0245052D01*
X0100815Y0243818D02*
X0104518Y0243818D01*
X0103284Y0242583D01*
X0104518Y0236451D02*
X0100815Y0236451D01*
D11*
X0320200Y0125503D02*
X0324804Y0125503D01*
X0324804Y0127805D01*
X0324036Y0128572D01*
X0322502Y0128572D01*
X0321734Y0127805D01*
X0321734Y0125503D01*
X0324804Y0130107D02*
X0324804Y0133176D01*
X0324804Y0131642D02*
X0320200Y0131642D01*
X0324804Y0134711D02*
X0324804Y0137780D01*
X0324804Y0136246D02*
X0320200Y0136246D01*
X0320200Y0139315D02*
X0323269Y0142384D01*
X0324036Y0142384D01*
X0324804Y0141617D01*
X0324804Y0140082D01*
X0324036Y0139315D01*
X0320200Y0139315D02*
X0320200Y0142384D01*
M02*
