G75*
%MOIN*%
%OFA0B0*%
%FSLAX25Y25*%
%IPPOS*%
%LPD*%
%AMOC8*
5,1,8,0,0,1.08239X$1,22.5*
%
%ADD10C,0.21800*%
%ADD11R,0.16800X0.06800*%
%ADD12C,0.07400*%
%ADD13C,0.13800*%
%ADD14OC8,0.06800*%
%ADD15R,1.26784X0.28359*%
%ADD16C,0.20485*%
%ADD17R,0.04737X0.04737*%
%ADD18C,0.03400*%
%ADD19C,0.03975*%
%ADD20C,0.03778*%
D10*
X0076790Y0026250D03*
X0323665Y0110625D03*
X0323665Y0191875D03*
X0076790Y0276250D03*
D11*
X0327165Y0265750D03*
X0327165Y0245750D03*
D12*
X0102713Y0155671D03*
X0094913Y0155671D03*
X0094913Y0145829D03*
X0102713Y0145829D03*
D13*
X0084213Y0127050D03*
X0084213Y0174450D03*
D14*
X0089165Y0226750D03*
X0102165Y0274750D03*
X0185165Y0070750D03*
X0195165Y0070750D03*
X0195165Y0060750D03*
X0185165Y0060750D03*
X0185165Y0050750D03*
X0195165Y0050750D03*
D15*
X0237165Y0263750D03*
D16*
X0289527Y0263750D03*
X0184803Y0263750D03*
D17*
X0098165Y0234750D03*
X0328165Y0135750D03*
D18*
X0064165Y0043750D03*
X0070165Y0049750D03*
X0084165Y0043750D03*
X0093165Y0033750D03*
X0111165Y0033750D03*
X0117228Y0049813D03*
X0110165Y0062750D03*
X0106165Y0062750D03*
X0102165Y0062750D03*
X0098165Y0062750D03*
X0106165Y0066750D03*
X0106165Y0070750D03*
X0089165Y0063750D03*
X0089165Y0054750D03*
X0064165Y0063750D03*
X0064165Y0083750D03*
X0084165Y0083750D03*
X0104165Y0085750D03*
X0119165Y0087750D03*
X0136165Y0087750D03*
X0143165Y0085750D03*
X0147165Y0080750D03*
X0160165Y0080750D03*
X0175165Y0079750D03*
X0171165Y0063750D03*
X0160165Y0063750D03*
X0157165Y0052750D03*
X0148165Y0046750D03*
X0142165Y0046750D03*
X0157165Y0035750D03*
X0162165Y0037750D03*
X0162165Y0043750D03*
X0171165Y0043750D03*
X0171165Y0037750D03*
X0171165Y0031750D03*
X0181165Y0037750D03*
X0180165Y0043750D03*
X0191165Y0043750D03*
X0191165Y0031750D03*
X0211165Y0031750D03*
X0211165Y0043750D03*
X0231165Y0043750D03*
X0237165Y0039750D03*
X0237165Y0030750D03*
X0241165Y0027750D03*
X0231165Y0031750D03*
X0231165Y0016750D03*
X0251165Y0016750D03*
X0271165Y0016750D03*
X0291165Y0016750D03*
X0311165Y0016750D03*
X0325165Y0017750D03*
X0330165Y0017750D03*
X0324165Y0035750D03*
X0333165Y0043750D03*
X0311165Y0035750D03*
X0289165Y0051750D03*
X0293165Y0055750D03*
X0300165Y0055750D03*
X0291165Y0063750D03*
X0280165Y0063750D03*
X0269165Y0065750D03*
X0266165Y0060750D03*
X0263165Y0055750D03*
X0269165Y0046750D03*
X0268165Y0039750D03*
X0252165Y0034750D03*
X0252165Y0047750D03*
X0233165Y0060750D03*
X0233165Y0065750D03*
X0250165Y0077750D03*
X0254165Y0077750D03*
X0252165Y0071750D03*
X0231165Y0078750D03*
X0232165Y0085750D03*
X0225165Y0090750D03*
X0221165Y0090750D03*
X0213165Y0099750D03*
X0209165Y0099750D03*
X0211165Y0093750D03*
X0199165Y0098750D03*
X0191165Y0098750D03*
X0183165Y0098750D03*
X0175165Y0098750D03*
X0167165Y0098750D03*
X0160165Y0098750D03*
X0156165Y0098750D03*
X0152165Y0098750D03*
X0148165Y0098750D03*
X0148165Y0102750D03*
X0148165Y0106750D03*
X0148165Y0110750D03*
X0148165Y0114750D03*
X0148165Y0118750D03*
X0148165Y0122750D03*
X0148165Y0126750D03*
X0148165Y0130750D03*
X0148165Y0134750D03*
X0148165Y0138750D03*
X0148165Y0142750D03*
X0148165Y0146750D03*
X0137165Y0146750D03*
X0131165Y0146750D03*
X0125165Y0146750D03*
X0125165Y0152750D03*
X0125165Y0158750D03*
X0125165Y0164750D03*
X0130165Y0170750D03*
X0134165Y0170750D03*
X0138165Y0170750D03*
X0148165Y0168750D03*
X0148165Y0164750D03*
X0153165Y0157750D03*
X0158165Y0157750D03*
X0158165Y0152750D03*
X0161165Y0148750D03*
X0166165Y0148750D03*
X0171165Y0148750D03*
X0171165Y0153750D03*
X0166165Y0153750D03*
X0176165Y0153750D03*
X0181165Y0153750D03*
X0186165Y0153750D03*
X0186165Y0148750D03*
X0191165Y0148750D03*
X0196165Y0148750D03*
X0201165Y0148750D03*
X0206165Y0148750D03*
X0211165Y0148750D03*
X0216165Y0148750D03*
X0216165Y0143750D03*
X0216165Y0138750D03*
X0221165Y0138750D03*
X0221165Y0133750D03*
X0216165Y0133750D03*
X0211165Y0133750D03*
X0211165Y0138750D03*
X0206165Y0138750D03*
X0206165Y0133750D03*
X0201165Y0133750D03*
X0201165Y0138750D03*
X0196165Y0138750D03*
X0196165Y0133750D03*
X0191165Y0133750D03*
X0191165Y0138750D03*
X0186165Y0138750D03*
X0186165Y0133750D03*
X0181165Y0133750D03*
X0181165Y0138750D03*
X0176165Y0138750D03*
X0176165Y0133750D03*
X0176165Y0128750D03*
X0181165Y0128750D03*
X0186165Y0128750D03*
X0191165Y0128750D03*
X0196165Y0128750D03*
X0209165Y0116750D03*
X0213165Y0116750D03*
X0216165Y0114750D03*
X0216165Y0110750D03*
X0216165Y0106750D03*
X0216165Y0102750D03*
X0226165Y0111250D03*
X0241165Y0111750D03*
X0247165Y0111750D03*
X0253165Y0111750D03*
X0259165Y0111750D03*
X0265165Y0111750D03*
X0265165Y0117750D03*
X0271165Y0117750D03*
X0271165Y0123750D03*
X0265165Y0123750D03*
X0265165Y0129750D03*
X0271165Y0129750D03*
X0271165Y0135750D03*
X0265165Y0135750D03*
X0259165Y0135750D03*
X0253165Y0135750D03*
X0247165Y0135750D03*
X0247165Y0129750D03*
X0253165Y0129750D03*
X0259165Y0129750D03*
X0259165Y0123750D03*
X0253165Y0123750D03*
X0247165Y0123750D03*
X0247165Y0117750D03*
X0253165Y0117750D03*
X0259165Y0117750D03*
X0241165Y0117750D03*
X0241165Y0123750D03*
X0241165Y0129750D03*
X0241165Y0135750D03*
X0226165Y0136250D03*
X0211165Y0143750D03*
X0206165Y0143750D03*
X0201165Y0143750D03*
X0196165Y0143750D03*
X0191165Y0143750D03*
X0186165Y0143750D03*
X0181165Y0143750D03*
X0176165Y0143750D03*
X0176165Y0148750D03*
X0181165Y0148750D03*
X0181165Y0158750D03*
X0176165Y0158750D03*
X0187165Y0163750D03*
X0195165Y0163750D03*
X0201165Y0158750D03*
X0205165Y0158750D03*
X0209165Y0158750D03*
X0213165Y0158750D03*
X0217165Y0158750D03*
X0217165Y0162750D03*
X0217165Y0166750D03*
X0217165Y0170750D03*
X0217165Y0174750D03*
X0223165Y0169750D03*
X0226165Y0165750D03*
X0230165Y0165750D03*
X0243165Y0161750D03*
X0248165Y0155750D03*
X0251165Y0152750D03*
X0254165Y0155750D03*
X0257165Y0152750D03*
X0260165Y0155750D03*
X0263165Y0152750D03*
X0266165Y0155750D03*
X0273165Y0148750D03*
X0279165Y0147750D03*
X0279165Y0143750D03*
X0273165Y0144750D03*
X0296165Y0154750D03*
X0301165Y0157750D03*
X0302165Y0164750D03*
X0312165Y0164750D03*
X0311165Y0157750D03*
X0325165Y0158750D03*
X0333165Y0163750D03*
X0325165Y0167750D03*
X0322165Y0175750D03*
X0333165Y0175750D03*
X0302165Y0198750D03*
X0298165Y0198750D03*
X0294165Y0198750D03*
X0292165Y0195750D03*
X0292165Y0192750D03*
X0288165Y0192750D03*
X0284165Y0192750D03*
X0280165Y0192750D03*
X0276165Y0192750D03*
X0272165Y0192750D03*
X0272165Y0196750D03*
X0268165Y0196750D03*
X0264165Y0196750D03*
X0260165Y0196750D03*
X0256165Y0195750D03*
X0256165Y0191750D03*
X0253165Y0189750D03*
X0249165Y0189750D03*
X0245165Y0189750D03*
X0242165Y0191750D03*
X0242165Y0195750D03*
X0238165Y0196750D03*
X0238165Y0200750D03*
X0238165Y0204750D03*
X0232165Y0204750D03*
X0228165Y0204750D03*
X0224165Y0204750D03*
X0220165Y0204750D03*
X0216165Y0204750D03*
X0212165Y0204750D03*
X0208165Y0204750D03*
X0204165Y0204750D03*
X0200165Y0204750D03*
X0196165Y0204750D03*
X0192165Y0204750D03*
X0192165Y0200750D03*
X0192165Y0196750D03*
X0192165Y0192750D03*
X0192165Y0188750D03*
X0193165Y0184750D03*
X0197165Y0184750D03*
X0201165Y0184750D03*
X0205165Y0184750D03*
X0205165Y0180750D03*
X0205165Y0176750D03*
X0201165Y0176750D03*
X0197165Y0176750D03*
X0217165Y0178750D03*
X0217165Y0182750D03*
X0217165Y0186750D03*
X0217165Y0190750D03*
X0242165Y0184750D03*
X0246165Y0184750D03*
X0254165Y0176750D03*
X0254165Y0170750D03*
X0254165Y0164750D03*
X0263165Y0164750D03*
X0263165Y0170750D03*
X0263165Y0176750D03*
X0272165Y0170750D03*
X0272165Y0164750D03*
X0278165Y0166750D03*
X0287165Y0164750D03*
X0292165Y0164750D03*
X0287165Y0178750D03*
X0282165Y0180750D03*
X0290165Y0185750D03*
X0303165Y0202750D03*
X0303165Y0206750D03*
X0307165Y0206750D03*
X0311165Y0206750D03*
X0314165Y0209750D03*
X0317165Y0212750D03*
X0320165Y0215750D03*
X0321165Y0219750D03*
X0325165Y0219750D03*
X0321165Y0223750D03*
X0321165Y0227750D03*
X0317165Y0228750D03*
X0313165Y0228750D03*
X0309165Y0228750D03*
X0309165Y0232750D03*
X0305165Y0232750D03*
X0305165Y0228750D03*
X0301165Y0228750D03*
X0297165Y0228750D03*
X0293165Y0228750D03*
X0289165Y0229750D03*
X0285165Y0229750D03*
X0281165Y0229750D03*
X0281165Y0233750D03*
X0281165Y0237750D03*
X0281165Y0241750D03*
X0290165Y0241750D03*
X0290165Y0237750D03*
X0293165Y0233750D03*
X0297165Y0233750D03*
X0297165Y0245750D03*
X0301165Y0245750D03*
X0305165Y0245750D03*
X0306165Y0249750D03*
X0306165Y0253750D03*
X0306165Y0257750D03*
X0306165Y0261750D03*
X0306165Y0265750D03*
X0310165Y0265750D03*
X0314165Y0265750D03*
X0318165Y0265750D03*
X0322165Y0265750D03*
X0327165Y0265750D03*
X0332165Y0265750D03*
X0333165Y0271750D03*
X0331165Y0285750D03*
X0311165Y0285750D03*
X0297165Y0275750D03*
X0291165Y0285750D03*
X0285165Y0275750D03*
X0273165Y0275750D03*
X0271165Y0285750D03*
X0261165Y0275750D03*
X0249165Y0275750D03*
X0251165Y0285750D03*
X0237165Y0275750D03*
X0225165Y0275750D03*
X0231165Y0285750D03*
X0213165Y0275750D03*
X0211165Y0285750D03*
X0201165Y0275750D03*
X0189165Y0275750D03*
X0177165Y0275750D03*
X0171165Y0275750D03*
X0167165Y0278750D03*
X0163165Y0278750D03*
X0171165Y0281750D03*
X0171165Y0285750D03*
X0151165Y0285750D03*
X0131165Y0285750D03*
X0111165Y0285750D03*
X0093165Y0285750D03*
X0116165Y0266750D03*
X0121165Y0263750D03*
X0131165Y0263750D03*
X0137165Y0266750D03*
X0142165Y0264750D03*
X0142165Y0268750D03*
X0143165Y0257750D03*
X0133165Y0251750D03*
X0129165Y0251750D03*
X0141165Y0243750D03*
X0146165Y0231750D03*
X0146165Y0227750D03*
X0146165Y0223750D03*
X0146165Y0219750D03*
X0139165Y0215750D03*
X0133165Y0213750D03*
X0133165Y0217750D03*
X0134165Y0222750D03*
X0138165Y0227750D03*
X0127165Y0222750D03*
X0123165Y0220750D03*
X0123165Y0216750D03*
X0117165Y0210750D03*
X0132165Y0202750D03*
X0139165Y0207750D03*
X0136165Y0197750D03*
X0139165Y0187750D03*
X0147165Y0191750D03*
X0149165Y0197750D03*
X0165165Y0207750D03*
X0192165Y0208750D03*
X0192165Y0212750D03*
X0192165Y0216750D03*
X0192165Y0220750D03*
X0192165Y0224750D03*
X0192165Y0228750D03*
X0192165Y0232750D03*
X0192165Y0236750D03*
X0188165Y0236750D03*
X0184165Y0236750D03*
X0180165Y0236750D03*
X0176165Y0236750D03*
X0172165Y0236750D03*
X0167165Y0236750D03*
X0160165Y0240750D03*
X0171165Y0251750D03*
X0167165Y0254750D03*
X0171165Y0257750D03*
X0167165Y0260750D03*
X0171165Y0263750D03*
X0171165Y0269750D03*
X0191165Y0285750D03*
X0201165Y0263750D03*
X0213165Y0263750D03*
X0225165Y0263750D03*
X0237165Y0263750D03*
X0249165Y0263750D03*
X0261165Y0263750D03*
X0273165Y0263750D03*
X0273165Y0251750D03*
X0285165Y0251750D03*
X0293165Y0245750D03*
X0297165Y0251750D03*
X0318165Y0249750D03*
X0318165Y0245750D03*
X0322165Y0245750D03*
X0327165Y0245750D03*
X0332165Y0245750D03*
X0333165Y0240750D03*
X0321165Y0240750D03*
X0333165Y0223750D03*
X0333165Y0207750D03*
X0323165Y0207750D03*
X0309165Y0217750D03*
X0312165Y0219750D03*
X0305165Y0217750D03*
X0301165Y0217750D03*
X0297165Y0217750D03*
X0293165Y0217750D03*
X0289165Y0216750D03*
X0285165Y0216750D03*
X0281165Y0216750D03*
X0277165Y0216750D03*
X0273165Y0216750D03*
X0269165Y0216750D03*
X0265165Y0216750D03*
X0261165Y0216750D03*
X0261165Y0220750D03*
X0257165Y0216750D03*
X0253165Y0216750D03*
X0249165Y0216750D03*
X0245165Y0216750D03*
X0241165Y0216750D03*
X0237165Y0216750D03*
X0233165Y0216750D03*
X0229165Y0216750D03*
X0225165Y0216750D03*
X0221165Y0216750D03*
X0217165Y0216750D03*
X0213165Y0216750D03*
X0213165Y0220750D03*
X0209165Y0216750D03*
X0205165Y0216750D03*
X0213165Y0224750D03*
X0213165Y0228750D03*
X0213165Y0232750D03*
X0213165Y0236750D03*
X0217165Y0236750D03*
X0221165Y0236750D03*
X0227165Y0239750D03*
X0236165Y0236750D03*
X0236165Y0232750D03*
X0236165Y0228750D03*
X0236165Y0224750D03*
X0236165Y0220750D03*
X0261165Y0224750D03*
X0261165Y0228750D03*
X0261165Y0232750D03*
X0261165Y0236750D03*
X0261165Y0240750D03*
X0261165Y0251750D03*
X0249165Y0251750D03*
X0237165Y0251750D03*
X0225165Y0251750D03*
X0213165Y0251750D03*
X0201165Y0251750D03*
X0189165Y0251750D03*
X0177165Y0251750D03*
X0189165Y0244750D03*
X0243165Y0239750D03*
X0174165Y0175750D03*
X0170165Y0175750D03*
X0166165Y0175750D03*
X0162165Y0175750D03*
X0158165Y0175750D03*
X0154165Y0175750D03*
X0150165Y0175750D03*
X0148165Y0172750D03*
X0112165Y0173750D03*
X0113165Y0187750D03*
X0099165Y0187750D03*
X0099165Y0192750D03*
X0094165Y0192750D03*
X0094165Y0187750D03*
X0089165Y0187750D03*
X0089165Y0192750D03*
X0084165Y0192750D03*
X0084165Y0187750D03*
X0079165Y0187750D03*
X0079165Y0192750D03*
X0079165Y0197750D03*
X0084165Y0197750D03*
X0089165Y0197750D03*
X0094165Y0197750D03*
X0099165Y0197750D03*
X0099165Y0202750D03*
X0099165Y0207750D03*
X0094165Y0207750D03*
X0094165Y0202750D03*
X0089165Y0202750D03*
X0089165Y0207750D03*
X0084165Y0207750D03*
X0084165Y0202750D03*
X0079165Y0202750D03*
X0079165Y0207750D03*
X0064165Y0203750D03*
X0064165Y0223750D03*
X0089165Y0233750D03*
X0089165Y0237750D03*
X0089165Y0241750D03*
X0089165Y0245750D03*
X0089165Y0249750D03*
X0092165Y0257750D03*
X0093165Y0263750D03*
X0111165Y0263750D03*
X0064165Y0259750D03*
X0064165Y0243750D03*
X0064165Y0183750D03*
X0064165Y0163750D03*
X0091165Y0163750D03*
X0088165Y0143750D03*
X0064165Y0143750D03*
X0064165Y0123750D03*
X0084165Y0108750D03*
X0093165Y0107750D03*
X0097165Y0107750D03*
X0101165Y0107750D03*
X0105165Y0107750D03*
X0101165Y0111750D03*
X0101165Y0115750D03*
X0117165Y0115750D03*
X0124165Y0115750D03*
X0119165Y0104750D03*
X0136165Y0104750D03*
X0154165Y0116750D03*
X0158165Y0116750D03*
X0162165Y0116750D03*
X0166165Y0116750D03*
X0170165Y0116750D03*
X0174165Y0116750D03*
X0178165Y0116750D03*
X0182165Y0116750D03*
X0171165Y0128750D03*
X0166165Y0128750D03*
X0161165Y0128750D03*
X0161165Y0133750D03*
X0166165Y0133750D03*
X0171165Y0133750D03*
X0171165Y0138750D03*
X0166165Y0138750D03*
X0161165Y0138750D03*
X0161165Y0143750D03*
X0166165Y0143750D03*
X0171165Y0143750D03*
X0240165Y0089750D03*
X0251165Y0095750D03*
X0273165Y0089750D03*
X0280165Y0083750D03*
X0291165Y0083750D03*
X0287165Y0095750D03*
X0283165Y0095750D03*
X0298165Y0108750D03*
X0298165Y0117250D03*
X0298165Y0121250D03*
X0307165Y0127750D03*
X0314165Y0128750D03*
X0321165Y0128750D03*
X0328165Y0128750D03*
X0333165Y0126750D03*
X0321165Y0135750D03*
X0307165Y0136750D03*
X0311165Y0121750D03*
X0286165Y0119250D03*
X0309165Y0100750D03*
X0317165Y0094750D03*
X0333165Y0094750D03*
X0333165Y0080750D03*
X0328165Y0080750D03*
X0311165Y0083750D03*
X0311165Y0063750D03*
X0333165Y0063750D03*
X0283165Y0032750D03*
X0211165Y0016750D03*
X0191165Y0016750D03*
X0171165Y0016750D03*
X0151165Y0016750D03*
X0151165Y0031750D03*
X0136165Y0031750D03*
X0131165Y0016750D03*
X0111165Y0016750D03*
X0093165Y0016750D03*
X0136165Y0065750D03*
X0084165Y0099750D03*
X0064165Y0103750D03*
X0203165Y0065750D03*
X0211165Y0078750D03*
X0333165Y0143750D03*
D19*
X0110665Y0212250D03*
X0110665Y0217250D03*
X0105665Y0217250D03*
X0105665Y0212250D03*
D20*
X0098165Y0234750D03*
X0179165Y0085750D03*
X0328165Y0135750D03*
M02*
